{
.appVersion = "1056";
customParameters = (
{
name = Axes;
value = (
{
Name = Weight;
Tag = wght;
}
);
}
);
date = "2018-09-15 09:11:05 +0000";
designer = "Mael Sinic & Alexandre Texier";
familyName = "Phototype-A";
featurePrefixes = (
{
automatic = 1;
code = "languagesystem DFLT dflt;\012";
name = Languagesystems;
}
);
features = (
{
automatic = 1;
code = "feature lnum;\012feature onum;\012";
name = aalt;
},
{
automatic = 1;
code = "sub zero.osf by zero;\012sub one.osf by one;\012sub two.osf by two;\012sub three.osf by three;\012sub four.osf by four;\012sub five.osf by five;\012sub six.osf by six;\012sub seven.osf by seven;\012sub eight.osf by eight;\012sub nine.osf by nine;\012";
name = lnum;
},
{
automatic = 1;
code = "sub zero by zero.osf;\012sub one by one.osf;\012sub two by two.osf;\012sub three by three.osf;\012sub four by four.osf;\012sub five by five.osf;\012sub six by six.osf;\012sub seven by seven.osf;\012sub eight by eight.osf;\012sub nine by nine.osf;\012";
name = onum;
},
{
automatic = 1;
code = "sub f t by f_t;\012";
name = dlig;
},
{
automatic = 1;
code = "sub f f l by f_f_l;\012sub f f by f_f;\012";
name = liga;
}
);
fontMaster = (
{
ascender = 700;
capHeight = 700;
customParameters = (
{
name = "Color Palettes";
value = (
(
"255,16,46,255",
"0,150,57,255",
"255,158,27,255",
"78,195,224,255"
)
);
}
);
descender = -200;
guideLines = (
{
position = "{-100, 500}";
},
{
position = "{-100, 700}";
},
{
position = "{-100, -300}";
},
{
position = "{-100, 0}";
}
);
id = "6F4F10D2-8254-4335-A627-9F8D8891324D";
userData = {
GSCornerRadius = 50;
GSOffsetAutoStroke = 1;
GSOffsetHorizontal = 10;
GSOffsetMakeStroke = 1;
GSOffsetVertical = 10;
};
visible = 1;
xHeight = 500;
}
);
glyphs = (
{
color = 4;
glyphname = A;
lastChange = "2019-01-25 15:48:55 +0000";
layers = (
{
associatedMasterId = "6F4F10D2-8254-4335-A627-9F8D8891324D";
layerId = "EAEE0337-7CC5-4CD4-8F2F-E2D84841D1E3";
name = path;
paths = (
{
closed = 0;
nodes = (
"481 0 LINE",
"251 700 LINE",
"20 0 LINE"
);
},
{
closed = 0;
nodes = (
"123 281 LINE",
"382 281 LINE"
);
}
);
width = 567;
},
{
layerId = "6F4F10D2-8254-4335-A627-9F8D8891324D";
paths = (
{
closed = 1;
nodes = (
"95 -45 OFFCURVE",
"112 -32 OFFCURVE",
"118 -13 CURVE SMOOTH",
"200 236 LINE",
"411 236 LINE",
"493 -13 LINE SMOOTH",
"499 -32 OFFCURVE",
"516 -45 OFFCURVE",
"536 -45 CURVE SMOOTH",
"561 -45 OFFCURVE",
"581 -25 OFFCURVE",
"581 0 CURVE SMOOTH",
"581 5 OFFCURVE",
"580 10 OFFCURVE",
"578 15 CURVE SMOOTH",
"361 677 LINE SMOOTH",
"353 702 OFFCURVE",
"336 714 OFFCURVE",
"310 714 CURVE SMOOTH",
"302 714 LINE SMOOTH",
"276 714 OFFCURVE",
"259 702 OFFCURVE",
"251 677 CURVE SMOOTH",
"33 15 LINE SMOOTH",
"31 10 OFFCURVE",
"30 5 OFFCURVE",
"30 0 CURVE SMOOTH",
"30 -25 OFFCURVE",
"50 -45 OFFCURVE",
"75 -45 CURVE SMOOTH"
);
},
{
closed = 1;
nodes = (
"306 556 LINE",
"382 326 LINE",
"230 326 LINE"
);
}
);
visible = 1;
width = 611;
},
{
associatedMasterId = "6F4F10D2-8254-4335-A627-9F8D8891324D";
layerId = "DB4B084F-5831-43EE-A697-EBE7336D2D01";
name = path;
paths = (
{
closed = 0;
nodes = (
"547 0 LINE",
"284 800 LINE",
"20 0 LINE"
);
},
{
closed = 0;
nodes = (
"138 321 LINE",
"434 321 LINE"
);
}
);
width = 567;
}
);
unicode = 0041;
},
{
color = 1;
glyphname = B;
lastChange = "2019-01-25 15:48:55 +0000";
layers = (
{
layerId = "6F4F10D2-8254-4335-A627-9F8D8891324D";
paths = (
{
closed = 1;
nodes = (
"235 -45 LINE SMOOTH",
"427 -45 OFFCURVE",
"520 31 OFFCURVE",
"520 193 CURVE SMOOTH",
"520 279 OFFCURVE",
"480 343 OFFCURVE",
"407 382 CURVE",
"455 417 OFFCURVE",
"480 470 OFFCURVE",
"480 540 CURVE SMOOTH",
"480 671 OFFCURVE",
"390 745 OFFCURVE",
"235 745 CURVE SMOOTH",
"108 745 LINE SMOOTH",
"84 745 OFFCURVE",
"68 738 OFFCURVE",
"53 723 CURVE SMOOTH",
"37 707 OFFCURVE",
"30 691 OFFCURVE",
"30 667 CURVE SMOOTH",
"30 33 LINE SMOOTH",
"30 9 OFFCURVE",
"37 -7 OFFCURVE",
"53 -23 CURVE SMOOTH",
"68 -38 OFFCURVE",
"84 -45 OFFCURVE",
"108 -45 CURVE SMOOTH"
);
},
{
closed = 1;
nodes = (
"120 335 LINE",
"202 335 LINE SMOOTH",
"349 335 OFFCURVE",
"430 288 OFFCURVE",
"430 193 CURVE SMOOTH",
"430 84 OFFCURVE",
"378 45 OFFCURVE",
"235 45 CURVE SMOOTH",
"120 45 LINE"
);
},
{
closed = 1;
nodes = (
"224 425 OFFCURVE",
"213 425 OFFCURVE",
"202 425 CURVE SMOOTH",
"120 425 LINE",
"120 655 LINE",
"235 655 LINE SMOOTH",
"342 655 OFFCURVE",
"390 617 OFFCURVE",
"390 540 CURVE SMOOTH",
"390 463 OFFCURVE",
"342 425 OFFCURVE",
"235 425 CURVE",
"235 424 LINE"
);
}
);
width = 550;
},
{
associatedMasterId = "6F4F10D2-8254-4335-A627-9F8D8891324D";
layerId = "8A367D76-A199-48AE-9DB0-368DCFD5F25A";
name = path;
paths = (
{
closed = 0;
nodes = (
"180 380 LINE",
"290 380 OFFCURVE",
"380 420 OFFCURVE",
"380 540 CURVE SMOOTH",
"380 660 OFFCURVE",
"290 700 OFFCURVE",
"180 700 CURVE SMOOTH",
"20 700 LINE",
"20 0 LINE",
"180 0 LINE SMOOTH",
"290 0 OFFCURVE",
"420 18 OFFCURVE",
"420 193 CURVE SMOOTH",
"420 368 OFFCURVE",
"220 380 OFFCURVE",
"147 380 CURVE SMOOTH",
"34 380 LINE"
);
}
);
visible = 1;
width = 440;
},
{
associatedMasterId = "6F4F10D2-8254-4335-A627-9F8D8891324D";
layerId = "CF7DDA0E-FC34-422B-913D-B4FDAEC86090";
name = path;
paths = (
{
closed = 0;
nodes = (
"180 440 LINE",
"300 440 OFFCURVE",
"380 520 OFFCURVE",
"380 640 CURVE SMOOTH",
"380 800 OFFCURVE",
"220 800 OFFCURVE",
"140 800 CURVE SMOOTH",
"20 800 LINE",
"20 0 LINE",
"145 0 LINE SMOOTH",
"217 0 OFFCURVE",
"420 0 OFFCURVE",
"420 200 CURVE SMOOTH",
"420 440 OFFCURVE",
"220 440 OFFCURVE",
"147 440 CURVE SMOOTH",
"34 440 LINE"
);
}
);
width = 440;
}
);
unicode = 0042;
},
{
color = 1;
glyphname = C;
lastChange = "2019-01-25 15:48:55 +0000";
layers = (
{
layerId = "6F4F10D2-8254-4335-A627-9F8D8891324D";
paths = (
{
closed = 1;
nodes = (
"430 -45 OFFCURVE",
"513 1 OFFCURVE",
"561 90 CURVE SMOOTH",
"565 96 OFFCURVE",
"567 104 OFFCURVE",
"567 112 CURVE SMOOTH",
"567 137 OFFCURVE",
"547 157 OFFCURVE",
"522 157 CURVE SMOOTH",
"505 157 OFFCURVE",
"490 147 OFFCURVE",
"482 133 CURVE SMOOTH",
"450 73 OFFCURVE",
"398 45 OFFCURVE",
"322 45 CURVE SMOOTH",
"177 45 OFFCURVE",
"120 130 OFFCURVE",
"120 350 CURVE SMOOTH",
"120 566 OFFCURVE",
"180 655 OFFCURVE",
"322 655 CURVE SMOOTH",
"398 655 OFFCURVE",
"450 625 OFFCURVE",
"483 564 CURVE SMOOTH",
"490 549 OFFCURVE",
"506 539 OFFCURVE",
"523 539 CURVE SMOOTH",
"548 539 OFFCURVE",
"568 559 OFFCURVE",
"568 584 CURVE SMOOTH",
"568 592 OFFCURVE",
"566 600 OFFCURVE",
"562 606 CURVE SMOOTH",
"513 697 OFFCURVE",
"430 745 OFFCURVE",
"322 745 CURVE SMOOTH",
"124 745 OFFCURVE",
"30 614 OFFCURVE",
"30 350 CURVE SMOOTH",
"30 82 OFFCURVE",
"121 -45 OFFCURVE",
"322 -45 CURVE SMOOTH"
);
}
);
width = 598;
},
{
associatedMasterId = "6F4F10D2-8254-4335-A627-9F8D8891324D";
layerId = "A24DD931-A4BF-412C-96B5-53B3DA73CE2E";
name = path;
paths = (
{
closed = 0;
nodes = (
"468 584 LINE",
"430 655 OFFCURVE",
"366 700 OFFCURVE",
"267 700 CURVE SMOOTH",
"58 700 OFFCURVE",
"20 528 OFFCURVE",
"20 350 CURVE SMOOTH",
"20 163 OFFCURVE",
"58 0 OFFCURVE",
"267 0 CURVE SMOOTH",
"365 0 OFFCURVE",
"429 42 OFFCURVE",
"467 112 CURVE"
);
}
);
visible = 1;
width = 552;
},
{
associatedMasterId = "6F4F10D2-8254-4335-A627-9F8D8891324D";
layerId = "ED1132E6-0F91-48D4-A789-FB50DFD807F4";
name = path;
paths = (
{
closed = 0;
nodes = (
"532 667 LINE",
"489 749 OFFCURVE",
"415 800 OFFCURVE",
"302 800 CURVE SMOOTH",
"63 800 OFFCURVE",
"20 603 OFFCURVE",
"20 400 CURVE SMOOTH",
"20 186 OFFCURVE",
"63 0 OFFCURVE",
"302 0 CURVE SMOOTH",
"414 0 OFFCURVE",
"487 48 OFFCURVE",
"531 128 CURVE"
);
}
);
width = 552;
}
);
unicode = 0043;
},
{
color = 1;
glyphname = D;
lastChange = "2019-01-25 15:48:55 +0000";
layers = (
{
layerId = "6F4F10D2-8254-4335-A627-9F8D8891324D";
paths = (
{
closed = 1;
nodes = (
"184 -45 LINE SMOOTH",
"396 -45 OFFCURVE",
"519 100 OFFCURVE",
"519 350 CURVE SMOOTH",
"519 603 OFFCURVE",
"395 745 OFFCURVE",
"174 745 CURVE SMOOTH",
"108 745 LINE SMOOTH",
"84 745 OFFCURVE",
"68 738 OFFCURVE",
"53 723 CURVE SMOOTH",
"37 707 OFFCURVE",
"30 691 OFFCURVE",
"30 667 CURVE SMOOTH",
"30 33 LINE SMOOTH",
"30 9 OFFCURVE",
"37 -7 OFFCURVE",
"53 -23 CURVE SMOOTH",
"68 -38 OFFCURVE",
"84 -45 OFFCURVE",
"108 -45 CURVE SMOOTH"
);
},
{
closed = 1;
nodes = (
"120 655 LINE",
"174 655 LINE SMOOTH",
"344 655 OFFCURVE",
"429 554 OFFCURVE",
"429 350 CURVE SMOOTH",
"429 149 OFFCURVE",
"345 45 OFFCURVE",
"184 45 CURVE SMOOTH",
"120 45 LINE"
);
}
);
width = 549;
},
{
associatedMasterId = "6F4F10D2-8254-4335-A627-9F8D8891324D";
layerId = "85BC1AA6-C1D3-4630-B584-06F73A38B585";
name = path;
paths = (
{
closed = 1;
nodes = (
"20 0 LINE",
"129 0 LINE SMOOTH",
"265 0 OFFCURVE",
"419 70 OFFCURVE",
"419 350 CURVE SMOOTH",
"419 630 OFFCURVE",
"265 700 OFFCURVE",
"119 700 CURVE SMOOTH",
"20 700 LINE"
);
}
);
width = 496;
},
{
associatedMasterId = "6F4F10D2-8254-4335-A627-9F8D8891324D";
layerId = "CD6E020E-105A-472A-9A63-E4543D9F98B2";
name = path;
paths = (
{
closed = 1;
nodes = (
"20 0 LINE",
"145 0 LINE SMOOTH",
"300 0 OFFCURVE",
"476 80 OFFCURVE",
"476 400 CURVE SMOOTH",
"476 720 OFFCURVE",
"300 800 OFFCURVE",
"133 800 CURVE SMOOTH",
"20 800 LINE"
);
}
);
width = 496;
}
);
unicode = 0044;
},
{
color = 1;
glyphname = E;
lastChange = "2019-01-25 15:48:55 +0000";
layers = (
{
layerId = "6F4F10D2-8254-4335-A627-9F8D8891324D";
paths = (
{
closed = 1;
nodes = (
"421 -45 LINE SMOOTH",
"446 -45 OFFCURVE",
"466 -25 OFFCURVE",
"466 0 CURVE SMOOTH",
"466 25 OFFCURVE",
"446 45 OFFCURVE",
"421 45 CURVE SMOOTH",
"120 45 LINE",
"120 305 LINE",
"341 305 LINE SMOOTH",
"366 305 OFFCURVE",
"386 325 OFFCURVE",
"386 350 CURVE SMOOTH",
"386 375 OFFCURVE",
"366 395 OFFCURVE",
"341 395 CURVE SMOOTH",
"120 395 LINE",
"120 655 LINE",
"421 655 LINE SMOOTH",
"446 655 OFFCURVE",
"466 675 OFFCURVE",
"466 700 CURVE SMOOTH",
"466 725 OFFCURVE",
"446 745 OFFCURVE",
"421 745 CURVE SMOOTH",
"108 745 LINE SMOOTH",
"84 745 OFFCURVE",
"68 738 OFFCURVE",
"53 723 CURVE SMOOTH",
"37 707 OFFCURVE",
"30 691 OFFCURVE",
"30 667 CURVE SMOOTH",
"30 33 LINE SMOOTH",
"30 9 OFFCURVE",
"37 -7 OFFCURVE",
"53 -23 CURVE SMOOTH",
"68 -38 OFFCURVE",
"84 -45 OFFCURVE",
"108 -45 CURVE SMOOTH"
);
}
);
width = 496;
},
{
associatedMasterId = "6F4F10D2-8254-4335-A627-9F8D8891324D";
layerId = "318F8A7B-26DD-4F17-BC4A-3BF14152A499";
name = path;
paths = (
{
closed = 0;
nodes = (
"366 700 LINE",
"20 700 LINE",
"20 0 LINE",
"366 0 LINE"
);
},
{
closed = 0;
nodes = (
"286 350 LINE",
"20 350 LINE"
);
}
);
visible = 1;
width = 435;
},
{
associatedMasterId = "6F4F10D2-8254-4335-A627-9F8D8891324D";
layerId = "9B516011-045B-414A-B133-2CB1FFDB927A";
name = path;
paths = (
{
closed = 0;
nodes = (
"415 800 LINE",
"20 800 LINE",
"20 0 LINE",
"415 0 LINE"
);
},
{
closed = 0;
nodes = (
"324 400 LINE",
"20 400 LINE"
);
}
);
width = 435;
}
);
unicode = 0045;
},
{
color = 1;
glyphname = F;
lastChange = "2019-01-25 15:48:55 +0000";
layers = (
{
layerId = "6F4F10D2-8254-4335-A627-9F8D8891324D";
paths = (
{
closed = 1;
nodes = (
"100 -45 OFFCURVE",
"120 -25 OFFCURVE",
"120 0 CURVE SMOOTH",
"120 305 LINE",
"341 305 LINE SMOOTH",
"366 305 OFFCURVE",
"386 325 OFFCURVE",
"386 350 CURVE SMOOTH",
"386 375 OFFCURVE",
"366 395 OFFCURVE",
"341 395 CURVE SMOOTH",
"120 395 LINE",
"120 655 LINE",
"422 655 LINE SMOOTH",
"447 655 OFFCURVE",
"467 675 OFFCURVE",
"467 700 CURVE SMOOTH",
"467 725 OFFCURVE",
"447 745 OFFCURVE",
"422 745 CURVE SMOOTH",
"108 745 LINE SMOOTH",
"84 745 OFFCURVE",
"68 738 OFFCURVE",
"53 723 CURVE SMOOTH",
"37 707 OFFCURVE",
"30 691 OFFCURVE",
"30 667 CURVE SMOOTH",
"30 0 LINE SMOOTH",
"30 -25 OFFCURVE",
"50 -45 OFFCURVE",
"75 -45 CURVE SMOOTH"
);
}
);
width = 497;
},
{
associatedMasterId = "6F4F10D2-8254-4335-A627-9F8D8891324D";
layerId = "3631285E-E3C7-4A6F-9383-73F4C77534C8";
name = path;
paths = (
{
closed = 0;
nodes = (
"367 700 LINE",
"20 700 LINE",
"20 0 LINE"
);
},
{
closed = 0;
nodes = (
"286 350 LINE",
"20 350 LINE"
);
}
);
visible = 1;
width = 437;
},
{
associatedMasterId = "6F4F10D2-8254-4335-A627-9F8D8891324D";
layerId = "C385AC63-352F-4A11-803F-6B6F7FF6C763";
name = path;
paths = (
{
closed = 0;
nodes = (
"417 800 LINE",
"20 800 LINE",
"20 0 LINE"
);
},
{
closed = 0;
nodes = (
"324 400 LINE",
"20 400 LINE"
);
}
);
width = 437;
}
);
unicode = 0046;
},
{
glyphname = G;
lastChange = "2019-01-25 15:48:55 +0000";
layers = (
{
layerId = "6F4F10D2-8254-4335-A627-9F8D8891324D";
paths = (
{
closed = 1;
nodes = (
"422 -45 OFFCURVE",
"526 2 OFFCURVE",
"575 68 CURVE SMOOTH",
"587 85 OFFCURVE",
"591 94 OFFCURVE",
"592 102 CURVE SMOOTH",
"594 109 OFFCURVE",
"595 119 OFFCURVE",
"595 140 CURVE SMOOTH",
"595 274 LINE SMOOTH",
"595 298 OFFCURVE",
"588 314 OFFCURVE",
"573 330 CURVE SMOOTH",
"557 345 OFFCURVE",
"541 352 OFFCURVE",
"517 352 CURVE SMOOTH",
"349 352 LINE SMOOTH",
"324 352 OFFCURVE",
"304 332 OFFCURVE",
"304 307 CURVE SMOOTH",
"304 282 OFFCURVE",
"324 262 OFFCURVE",
"349 262 CURVE SMOOTH",
"505 262 LINE",
"505 124 LINE",
"475 81 OFFCURVE",
"395 45 OFFCURVE",
"322 45 CURVE SMOOTH",
"177 45 OFFCURVE",
"120 130 OFFCURVE",
"120 350 CURVE SMOOTH",
"120 566 OFFCURVE",
"180 655 OFFCURVE",
"322 655 CURVE SMOOTH",
"398 655 OFFCURVE",
"450 625 OFFCURVE",
"483 564 CURVE SMOOTH",
"490 549 OFFCURVE",
"506 539 OFFCURVE",
"523 539 CURVE SMOOTH",
"548 539 OFFCURVE",
"568 559 OFFCURVE",
"568 584 CURVE SMOOTH",
"568 592 OFFCURVE",
"566 600 OFFCURVE",
"562 606 CURVE SMOOTH",
"513 697 OFFCURVE",
"430 745 OFFCURVE",
"322 745 CURVE SMOOTH",
"124 745 OFFCURVE",
"30 614 OFFCURVE",
"30 350 CURVE SMOOTH",
"30 82 OFFCURVE",
"121 -45 OFFCURVE",
"322 -45 CURVE SMOOTH"
);
}
);
width = 625;
},
{
associatedMasterId = "6F4F10D2-8254-4335-A627-9F8D8891324D";
layerId = "FC98F0E2-EADE-40FC-8203-C765818E7099";
name = path;
paths = (
{
closed = 0;
nodes = (
"468 584 LINE",
"430 655 OFFCURVE",
"366 700 OFFCURVE",
"267 700 CURVE SMOOTH",
"58 700 OFFCURVE",
"20 528 OFFCURVE",
"20 350 CURVE SMOOTH",
"20 163 OFFCURVE",
"58 0 OFFCURVE",
"267 0 CURVE SMOOTH",
"352 0 OFFCURVE",
"459 43 OFFCURVE",
"495 112 CURVE",
"495 307 LINE",
"294 307 LINE"
);
}
);
visible = 1;
width = 583;
},
{
associatedMasterId = "6F4F10D2-8254-4335-A627-9F8D8891324D";
layerId = "39057D74-2CF7-4622-9EF6-2B96468F0349";
name = "50";
paths = (
{
closed = 1;
nodes = (
"404.465 -25 OFFCURVE",
"500.208 25.342 OFFCURVE",
"547.688 103.178 CURVE SMOOTH",
"553.555 112.99 OFFCURVE",
"555.559 117.996 OFFCURVE",
"556.595 122.242 CURVE SMOOTH",
"557.632 126.49 OFFCURVE",
"558 132.012 OFFCURVE",
"558 143.298 CURVE SMOOTH",
"558 281.925 LINE SMOOTH",
"558 294.772 OFFCURVE",
"554.384 303.616 OFFCURVE",
"545.5 312.5 CURVE SMOOTH",
"536.616 321.384 OFFCURVE",
"527.772 325 OFFCURVE",
"514.925 325 CURVE SMOOTH",
"333 325 LINE SMOOTH",
"319.193 325 OFFCURVE",
"308 313.807 OFFCURVE",
"308 300 CURVE SMOOTH",
"308 286.193 OFFCURVE",
"319.193 275 OFFCURVE",
"333 275 CURVE SMOOTH",
"508 275 LINE",
"508 134.32 LINE",
"470.78 68.173 OFFCURVE",
"390.127 25 OFFCURVE",
"302 25 CURVE SMOOTH",
"138.083 25 OFFCURVE",
"65 126.464 OFFCURVE",
"65 350 CURVE SMOOTH",
"65 451.839 OFFCURVE",
"85.78 675 OFFCURVE",
"302 675 CURVE SMOOTH",
"398.898 675 OFFCURVE",
"467.757 635.381 OFFCURVE",
"509.656 555.776 CURVE SMOOTH",
"513.768 547.606 OFFCURVE",
"522.229 542 OFFCURVE",
"532 542 CURVE SMOOTH",
"545.807 542 OFFCURVE",
"557 553.193 OFFCURVE",
"557 567 CURVE SMOOTH",
"557 571.366 OFFCURVE",
"555.88 575.471 OFFCURVE",
"553.913 579.043 CURVE SMOOTH",
"503.427 674.974 OFFCURVE",
"416.948 725 OFFCURVE",
"302 725 CURVE SMOOTH",
"118.528 725 OFFCURVE",
"15 585.072 OFFCURVE",
"15 350 CURVE SMOOTH",
"15 208.635 OFFCURVE",
"40.589 -25 OFFCURVE",
"302 -25 CURVE SMOOTH"
);
}
);
width = 583;
},
{
associatedMasterId = "6F4F10D2-8254-4335-A627-9F8D8891324D";
layerId = "2D83411B-4E6B-4769-87C4-933289F2ABCB";
name = "70";
paths = (
{
closed = 1;
nodes = (
"405.991 -35 OFFCURVE",
"503.106 15.091 OFFCURVE",
"553.34 93.358 CURVE SMOOTH",
"561.866 106.936 OFFCURVE",
"564.582 113.994 OFFCURVE",
"566.033 119.938 CURVE SMOOTH",
"567.484 125.886 OFFCURVE",
"568 133.617 OFFCURVE",
"568 149.418 CURVE SMOOTH",
"568 274.696 LINE SMOOTH",
"568 292.68 OFFCURVE",
"562.938 305.062 OFFCURVE",
"550.5 317.5 CURVE SMOOTH",
"538.062 329.938 OFFCURVE",
"525.68 335 OFFCURVE",
"507.696 335 CURVE SMOOTH",
"333 335 LINE SMOOTH",
"313.67 335 OFFCURVE",
"298 319.33 OFFCURVE",
"298 300 CURVE SMOOTH",
"298 280.67 OFFCURVE",
"313.67 265 OFFCURVE",
"333 265 CURVE SMOOTH",
"498 265 LINE",
"498 136.981 LINE",
"462.041 75.347 OFFCURVE",
"385.502 35 OFFCURVE",
"302 35 CURVE SMOOTH",
"143.724 35 OFFCURVE",
"75 132.205 OFFCURVE",
"75 350 CURVE SMOOTH",
"75 451.374 OFFCURVE",
"94.892 665 OFFCURVE",
"302 665 CURVE SMOOTH",
"395.106 665 OFFCURVE",
"460.575 627.412 OFFCURVE",
"500.707 551.307 CURVE SMOOTH",
"506.46 539.857 OFFCURVE",
"518.312 532 OFFCURVE",
"532 532 CURVE SMOOTH",
"551.33 532 OFFCURVE",
"567 547.67 OFFCURVE",
"567 567 CURVE SMOOTH",
"567 573.121 OFFCURVE",
"565.428 578.874 OFFCURVE",
"562.667 583.88 CURVE SMOOTH",
"510.537 682.786 OFFCURVE",
"420.306 735 OFFCURVE",
"302 735 CURVE SMOOTH",
"112.774 735 OFFCURVE",
"5 590.555 OFFCURVE",
"5 350 CURVE SMOOTH",
"5 208.089 OFFCURVE",
"31.624 -35 OFFCURVE",
"302 -35 CURVE SMOOTH"
);
}
);
width = 583;
},
{
associatedMasterId = "6F4F10D2-8254-4335-A627-9F8D8891324D";
layerId = "EA2B6CA7-031E-4770-A695-6BE83B7201C4";
name = "90";
paths = (
{
closed = 1;
nodes = (
"407.542 -45 OFFCURVE",
"506.04 4.889 OFFCURVE",
"558.894 83.592 CURVE SMOOTH",
"570.216 100.855 OFFCURVE",
"573.606 109.994 OFFCURVE",
"575.47 117.636 CURVE SMOOTH",
"577.337 125.282 OFFCURVE",
"578 135.222 OFFCURVE",
"578 155.537 CURVE SMOOTH",
"578 267.466 LINE SMOOTH",
"578 290.589 OFFCURVE",
"571.491 306.509 OFFCURVE",
"555.5 322.5 CURVE SMOOTH",
"539.509 338.491 OFFCURVE",
"523.589 345 OFFCURVE",
"500.466 345 CURVE SMOOTH",
"333 345 LINE SMOOTH",
"308.147 345 OFFCURVE",
"288 324.853 OFFCURVE",
"288 300 CURVE SMOOTH",
"288 275.147 OFFCURVE",
"308.147 255 OFFCURVE",
"333 255 CURVE SMOOTH",
"488 255 LINE",
"488 139.73 LINE",
"453.321 82.544 OFFCURVE",
"380.91 45 OFFCURVE",
"302 45 CURVE SMOOTH",
"149.714 45 OFFCURVE",
"85 138.26 OFFCURVE",
"85 350 CURVE SMOOTH",
"85 546.724 OFFCURVE",
"159.929 655 OFFCURVE",
"302 655 CURVE SMOOTH",
"391.331 655 OFFCURVE",
"453.391 619.449 OFFCURVE",
"491.758 546.84 CURVE SMOOTH",
"499.152 532.11 OFFCURVE",
"514.395 522 OFFCURVE",
"532 522 CURVE SMOOTH",
"556.853 522 OFFCURVE",
"577 542.147 OFFCURVE",
"577 567 CURVE SMOOTH",
"577 574.876 OFFCURVE",
"574.976 582.278 OFFCURVE",
"571.421 588.718 CURVE SMOOTH",
"517.49 690.902 OFFCURVE",
"424.012 745 OFFCURVE",
"302 745 CURVE SMOOTH",
"107.033 745 OFFCURVE",
"-5 596.039 OFFCURVE",
"-5 350 CURVE SMOOTH",
"-5 207.543 OFFCURVE",
"22.659 -45 OFFCURVE",
"302 -45 CURVE SMOOTH"
);
}
);
width = 583;
},
{
associatedMasterId = "6F4F10D2-8254-4335-A627-9F8D8891324D";
layerId = "716B9A3D-AA8E-4B1A-B788-DEB2AC29AD3D";
name = "110";
paths = (
{
closed = 1;
nodes = (
"409.113 -55 OFFCURVE",
"509.006 -5.272 OFFCURVE",
"564.362 73.875 CURVE SMOOTH",
"578.597 94.748 OFFCURVE",
"582.63 105.994 OFFCURVE",
"584.909 115.333 CURVE SMOOTH",
"587.189 124.678 OFFCURVE",
"588 136.827 OFFCURVE",
"588 161.657 CURVE SMOOTH",
"588 260.236 LINE SMOOTH",
"588 288.497 OFFCURVE",
"580.045 307.955 OFFCURVE",
"560.5 327.5 CURVE SMOOTH",
"540.955 347.045 OFFCURVE",
"521.497 355 OFFCURVE",
"493.236 355 CURVE SMOOTH",
"333 355 LINE SMOOTH",
"302.624 355 OFFCURVE",
"278 330.376 OFFCURVE",
"278 300 CURVE SMOOTH",
"278 269.624 OFFCURVE",
"302.624 245 OFFCURVE",
"333 245 CURVE SMOOTH",
"478 245 LINE",
"478 142.574 LINE",
"444.623 89.768 OFFCURVE",
"376.349 55 OFFCURVE",
"302 55 CURVE SMOOTH",
"156.078 55 OFFCURVE",
"95 143.328 OFFCURVE",
"95 350 CURVE SMOOTH",
"95 540.591 OFFCURVE",
"165.835 645 OFFCURVE",
"302 645 CURVE SMOOTH",
"387.576 645 OFFCURVE",
"446.209 611.49 OFFCURVE",
"482.813 542.364 CURVE SMOOTH",
"491.849 524.358 OFFCURVE",
"510.481 512 OFFCURVE",
"532 512 CURVE SMOOTH",
"562.376 512 OFFCURVE",
"587 536.624 OFFCURVE",
"587 567 CURVE SMOOTH",
"587 576.637 OFFCURVE",
"584.522 585.694 OFFCURVE",
"580.168 593.571 CURVE SMOOTH",
"524.432 699.028 OFFCURVE",
"427.722 755 OFFCURVE",
"302 755 CURVE SMOOTH",
"101.303 755 OFFCURVE",
"-15 602.183 OFFCURVE",
"-15 350 CURVE SMOOTH",
"-15 83.096 OFFCURVE",
"90.584 -55 OFFCURVE",
"302 -55 CURVE SMOOTH"
);
}
);
width = 583;
},
{
associatedMasterId = "6F4F10D2-8254-4335-A627-9F8D8891324D";
layerId = "7AC067FC-8A53-413A-A6F7-81BE2D846EF7";
name = "130";
paths = (
{
closed = 1;
nodes = (
"410.365 -65 OFFCURVE",
"511.993 -15.186 OFFCURVE",
"569.737 64.216 CURVE SMOOTH",
"587.009 88.611 OFFCURVE",
"591.654 101.994 OFFCURVE",
"594.346 113.029 CURVE SMOOTH",
"597.042 124.073 OFFCURVE",
"598 138.432 OFFCURVE",
"598 167.776 CURVE SMOOTH",
"598 253.006 LINE SMOOTH",
"598 286.406 OFFCURVE",
"588.599 309.401 OFFCURVE",
"565.5 332.5 CURVE SMOOTH",
"542.401 355.599 OFFCURVE",
"519.406 365 OFFCURVE",
"486.006 365 CURVE SMOOTH",
"333 365 LINE SMOOTH",
"297.101 365 OFFCURVE",
"268 335.899 OFFCURVE",
"268 300 CURVE SMOOTH",
"268 264.101 OFFCURVE",
"297.101 235 OFFCURVE",
"333 235 CURVE SMOOTH",
"468 235 LINE",
"468 145.524 LINE",
"435.951 97.021 OFFCURVE",
"371.825 65 OFFCURVE",
"302 65 CURVE SMOOTH",
"162.141 65 OFFCURVE",
"105 148.711 OFFCURVE",
"105 350 CURVE SMOOTH",
"105 534.776 OFFCURVE",
"171.458 635 OFFCURVE",
"302 635 CURVE SMOOTH",
"383.849 635 OFFCURVE",
"439.036 603.532 OFFCURVE",
"473.878 537.868 CURVE SMOOTH",
"484.56 516.597 OFFCURVE",
"506.575 502 OFFCURVE",
"532 502 CURVE SMOOTH",
"567.899 502 OFFCURVE",
"597 531.101 OFFCURVE",
"597 567 CURVE SMOOTH",
"597 578.394 OFFCURVE",
"594.068 589.103 OFFCURVE",
"588.918 598.414 CURVE SMOOTH",
"531.531 706.854 OFFCURVE",
"431.098 765 OFFCURVE",
"302 765 CURVE SMOOTH",
"95.585 765 OFFCURVE",
"-25 607.668 OFFCURVE",
"-25 350 CURVE SMOOTH",
"-25 77.667 OFFCURVE",
"84.816 -65 OFFCURVE",
"302 -65 CURVE SMOOTH"
);
}
);
width = 583;
},
{
associatedMasterId = "6F4F10D2-8254-4335-A627-9F8D8891324D";
layerId = "CA3EF84C-06EB-4DC1-95FE-1B8D0D78F5AA";
name = "150";
paths = (
{
closed = 1;
nodes = (
"411.971 -75 OFFCURVE",
"514.996 -25.285 OFFCURVE",
"575.062 54.585 CURVE SMOOTH",
"595.439 82.454 OFFCURVE",
"600.678 97.995 OFFCURVE",
"603.784 110.726 CURVE SMOOTH",
"606.894 123.469 OFFCURVE",
"608 140.037 OFFCURVE",
"608 173.896 CURVE SMOOTH",
"608 245.776 LINE SMOOTH",
"608 284.315 OFFCURVE",
"597.152 310.848 OFFCURVE",
"570.5 337.5 CURVE SMOOTH",
"543.848 364.152 OFFCURVE",
"517.315 375 OFFCURVE",
"478.776 375 CURVE SMOOTH",
"333 375 LINE SMOOTH",
"291.579 375 OFFCURVE",
"258 341.421 OFFCURVE",
"258 300 CURVE SMOOTH",
"258 258.579 OFFCURVE",
"291.579 225 OFFCURVE",
"333 225 CURVE SMOOTH",
"458 225 LINE",
"458 148.587 LINE",
"427.311 104.307 OFFCURVE",
"367.338 75 OFFCURVE",
"302 75 CURVE SMOOTH",
"168.571 75 OFFCURVE",
"115 153.752 OFFCURVE",
"115 350 CURVE SMOOTH",
"115 529.307 OFFCURVE",
"177.423 625 OFFCURVE",
"302 625 CURVE SMOOTH",
"380.162 625 OFFCURVE",
"431.886 595.566 OFFCURVE",
"464.966 533.327 CURVE SMOOTH",
"477.303 508.816 OFFCURVE",
"502.688 492 OFFCURVE",
"532 492 CURVE SMOOTH",
"573.421 492 OFFCURVE",
"607 525.579 OFFCURVE",
"607 567 CURVE SMOOTH",
"607 580.135 OFFCURVE",
"603.623 592.481 OFFCURVE",
"597.691 603.218 CURVE SMOOTH",
"538.497 714.971 OFFCURVE",
"434.842 775 OFFCURVE",
"302 775 CURVE SMOOTH",
"89.876 775 OFFCURVE",
"-35 613.154 OFFCURVE",
"-35 350 CURVE SMOOTH",
"-35 72.236 OFFCURVE",
"79.062 -75 OFFCURVE",
"302 -75 CURVE SMOOTH"
);
}
);
width = 583;
},
{
associatedMasterId = "6F4F10D2-8254-4335-A627-9F8D8891324D";
layerId = "FAE50D67-DF93-4582-89B0-291549CC1587";
name = "Oct 3 18, 17:44";
paths = (
{
closed = 0;
nodes = (
"532 567 LINE",
"489 649 OFFCURVE",
"415 700 OFFCURVE",
"302 700 CURVE SMOOTH",
"63 700 OFFCURVE",
"40 453 OFFCURVE",
"40 350 CURVE SMOOTH",
"40 210 OFFCURVE",
"63 0 OFFCURVE",
"302 0 CURVE SMOOTH",
"399 0 OFFCURVE",
"492 49 OFFCURVE",
"533 128 CURVE",
"533 300 LINE",
"333 300 LINE"
);
}
);
width = 583;
},
{
associatedMasterId = "6F4F10D2-8254-4335-A627-9F8D8891324D";
layerId = "BCA7A78E-90AC-4395-B7E1-8EDA546F6786";
name = path;
paths = (
{
closed = 0;
nodes = (
"532 667 LINE",
"489 749 OFFCURVE",
"415 800 OFFCURVE",
"302 800 CURVE SMOOTH",
"63 800 OFFCURVE",
"20 603 OFFCURVE",
"20 400 CURVE SMOOTH",
"20 186 OFFCURVE",
"63 0 OFFCURVE",
"302 0 CURVE SMOOTH",
"399 0 OFFCURVE",
"522 49 OFFCURVE",
"563 128 CURVE",
"563 351 LINE",
"333 351 LINE"
);
}
);
width = 583;
},
{
associatedMasterId = "6F4F10D2-8254-4335-A627-9F8D8891324D";
layerId = "BCB15317-AD6D-412C-BCD4-7882F28C5A1A";
name = "50";
paths = (
{
closed = 1;
nodes = (
"404.465 -25 OFFCURVE",
"500.208 25.342 OFFCURVE",
"547.688 103.178 CURVE SMOOTH",
"553.555 112.99 OFFCURVE",
"555.559 117.996 OFFCURVE",
"556.595 122.242 CURVE SMOOTH",
"557.632 126.49 OFFCURVE",
"558 132.012 OFFCURVE",
"558 143.298 CURVE SMOOTH",
"558 281.925 LINE SMOOTH",
"558 294.772 OFFCURVE",
"554.384 303.616 OFFCURVE",
"545.5 312.5 CURVE SMOOTH",
"536.616 321.384 OFFCURVE",
"527.772 325 OFFCURVE",
"514.925 325 CURVE SMOOTH",
"333 325 LINE SMOOTH",
"319.193 325 OFFCURVE",
"308 313.807 OFFCURVE",
"308 300 CURVE SMOOTH",
"308 286.193 OFFCURVE",
"319.193 275 OFFCURVE",
"333 275 CURVE SMOOTH",
"508 275 LINE",
"508 134.32 LINE",
"470.78 68.173 OFFCURVE",
"390.127 25 OFFCURVE",
"302 25 CURVE SMOOTH",
"138.083 25 OFFCURVE",
"65 126.464 OFFCURVE",
"65 350 CURVE SMOOTH",
"65 451.839 OFFCURVE",
"85.78 675 OFFCURVE",
"302 675 CURVE SMOOTH",
"398.898 675 OFFCURVE",
"467.757 635.381 OFFCURVE",
"509.656 555.776 CURVE SMOOTH",
"513.768 547.606 OFFCURVE",
"522.229 542 OFFCURVE",
"532 542 CURVE SMOOTH",
"545.807 542 OFFCURVE",
"557 553.193 OFFCURVE",
"557 567 CURVE SMOOTH",
"557 571.366 OFFCURVE",
"555.88 575.471 OFFCURVE",
"553.913 579.043 CURVE SMOOTH",
"503.427 674.974 OFFCURVE",
"416.948 725 OFFCURVE",
"302 725 CURVE SMOOTH",
"118.528 725 OFFCURVE",
"15 585.072 OFFCURVE",
"15 350 CURVE SMOOTH",
"15 208.635 OFFCURVE",
"40.589 -25 OFFCURVE",
"302 -25 CURVE SMOOTH"
);
}
);
width = 583;
},
{
associatedMasterId = "6F4F10D2-8254-4335-A627-9F8D8891324D";
layerId = "3B7B80C0-5C4A-42D1-9C2D-BE67B30D5DD9";
name = "70";
paths = (
{
closed = 1;
nodes = (
"405.991 -35 OFFCURVE",
"503.106 15.091 OFFCURVE",
"553.34 93.358 CURVE SMOOTH",
"561.866 106.936 OFFCURVE",
"564.582 113.994 OFFCURVE",
"566.033 119.938 CURVE SMOOTH",
"567.484 125.886 OFFCURVE",
"568 133.617 OFFCURVE",
"568 149.418 CURVE SMOOTH",
"568 274.696 LINE SMOOTH",
"568 292.68 OFFCURVE",
"562.938 305.062 OFFCURVE",
"550.5 317.5 CURVE SMOOTH",
"538.062 329.938 OFFCURVE",
"525.68 335 OFFCURVE",
"507.696 335 CURVE SMOOTH",
"333 335 LINE SMOOTH",
"313.67 335 OFFCURVE",
"298 319.33 OFFCURVE",
"298 300 CURVE SMOOTH",
"298 280.67 OFFCURVE",
"313.67 265 OFFCURVE",
"333 265 CURVE SMOOTH",
"498 265 LINE",
"498 136.981 LINE",
"462.041 75.347 OFFCURVE",
"385.502 35 OFFCURVE",
"302 35 CURVE SMOOTH",
"143.724 35 OFFCURVE",
"75 132.205 OFFCURVE",
"75 350 CURVE SMOOTH",
"75 451.374 OFFCURVE",
"94.892 665 OFFCURVE",
"302 665 CURVE SMOOTH",
"395.106 665 OFFCURVE",
"460.575 627.412 OFFCURVE",
"500.707 551.307 CURVE SMOOTH",
"506.46 539.857 OFFCURVE",
"518.312 532 OFFCURVE",
"532 532 CURVE SMOOTH",
"551.33 532 OFFCURVE",
"567 547.67 OFFCURVE",
"567 567 CURVE SMOOTH",
"567 573.121 OFFCURVE",
"565.428 578.874 OFFCURVE",
"562.667 583.88 CURVE SMOOTH",
"510.537 682.786 OFFCURVE",
"420.306 735 OFFCURVE",
"302 735 CURVE SMOOTH",
"112.774 735 OFFCURVE",
"5 590.555 OFFCURVE",
"5 350 CURVE SMOOTH",
"5 208.089 OFFCURVE",
"31.624 -35 OFFCURVE",
"302 -35 CURVE SMOOTH"
);
}
);
width = 583;
},
{
associatedMasterId = "6F4F10D2-8254-4335-A627-9F8D8891324D";
layerId = "054E8B16-19B4-470F-AAA6-AABEEB51BF11";
name = "90";
paths = (
{
closed = 1;
nodes = (
"407.542 -45 OFFCURVE",
"506.04 4.889 OFFCURVE",
"558.894 83.592 CURVE SMOOTH",
"570.216 100.855 OFFCURVE",
"573.606 109.994 OFFCURVE",
"575.47 117.636 CURVE SMOOTH",
"577.337 125.282 OFFCURVE",
"578 135.222 OFFCURVE",
"578 155.537 CURVE SMOOTH",
"578 267.466 LINE SMOOTH",
"578 290.589 OFFCURVE",
"571.491 306.509 OFFCURVE",
"555.5 322.5 CURVE SMOOTH",
"539.509 338.491 OFFCURVE",
"523.589 345 OFFCURVE",
"500.466 345 CURVE SMOOTH",
"333 345 LINE SMOOTH",
"308.147 345 OFFCURVE",
"288 324.853 OFFCURVE",
"288 300 CURVE SMOOTH",
"288 275.147 OFFCURVE",
"308.147 255 OFFCURVE",
"333 255 CURVE SMOOTH",
"488 255 LINE",
"488 139.73 LINE",
"453.321 82.544 OFFCURVE",
"380.91 45 OFFCURVE",
"302 45 CURVE SMOOTH",
"149.714 45 OFFCURVE",
"85 138.26 OFFCURVE",
"85 350 CURVE SMOOTH",
"85 546.724 OFFCURVE",
"159.929 655 OFFCURVE",
"302 655 CURVE SMOOTH",
"391.331 655 OFFCURVE",
"453.391 619.449 OFFCURVE",
"491.758 546.84 CURVE SMOOTH",
"499.152 532.11 OFFCURVE",
"514.395 522 OFFCURVE",
"532 522 CURVE SMOOTH",
"556.853 522 OFFCURVE",
"577 542.147 OFFCURVE",
"577 567 CURVE SMOOTH",
"577 574.876 OFFCURVE",
"574.976 582.278 OFFCURVE",
"571.421 588.718 CURVE SMOOTH",
"517.49 690.902 OFFCURVE",
"424.012 745 OFFCURVE",
"302 745 CURVE SMOOTH",
"107.033 745 OFFCURVE",
"-5 596.039 OFFCURVE",
"-5 350 CURVE SMOOTH",
"-5 207.543 OFFCURVE",
"22.659 -45 OFFCURVE",
"302 -45 CURVE SMOOTH"
);
}
);
width = 583;
},
{
associatedMasterId = "6F4F10D2-8254-4335-A627-9F8D8891324D";
layerId = "E1030D1D-29BE-4B4C-8FCC-5D4FF47A4F73";
name = "110";
paths = (
{
closed = 1;
nodes = (
"409.113 -55 OFFCURVE",
"509.006 -5.272 OFFCURVE",
"564.362 73.875 CURVE SMOOTH",
"578.597 94.748 OFFCURVE",
"582.63 105.994 OFFCURVE",
"584.909 115.333 CURVE SMOOTH",
"587.189 124.678 OFFCURVE",
"588 136.827 OFFCURVE",
"588 161.657 CURVE SMOOTH",
"588 260.236 LINE SMOOTH",
"588 288.497 OFFCURVE",
"580.045 307.955 OFFCURVE",
"560.5 327.5 CURVE SMOOTH",
"540.955 347.045 OFFCURVE",
"521.497 355 OFFCURVE",
"493.236 355 CURVE SMOOTH",
"333 355 LINE SMOOTH",
"302.624 355 OFFCURVE",
"278 330.376 OFFCURVE",
"278 300 CURVE SMOOTH",
"278 269.624 OFFCURVE",
"302.624 245 OFFCURVE",
"333 245 CURVE SMOOTH",
"478 245 LINE",
"478 142.574 LINE",
"444.623 89.768 OFFCURVE",
"376.349 55 OFFCURVE",
"302 55 CURVE SMOOTH",
"156.078 55 OFFCURVE",
"95 143.328 OFFCURVE",
"95 350 CURVE SMOOTH",
"95 540.591 OFFCURVE",
"165.835 645 OFFCURVE",
"302 645 CURVE SMOOTH",
"387.576 645 OFFCURVE",
"446.209 611.49 OFFCURVE",
"482.813 542.364 CURVE SMOOTH",
"491.849 524.358 OFFCURVE",
"510.481 512 OFFCURVE",
"532 512 CURVE SMOOTH",
"562.376 512 OFFCURVE",
"587 536.624 OFFCURVE",
"587 567 CURVE SMOOTH",
"587 576.637 OFFCURVE",
"584.522 585.694 OFFCURVE",
"580.168 593.571 CURVE SMOOTH",
"524.432 699.028 OFFCURVE",
"427.722 755 OFFCURVE",
"302 755 CURVE SMOOTH",
"101.303 755 OFFCURVE",
"-15 602.183 OFFCURVE",
"-15 350 CURVE SMOOTH",
"-15 83.096 OFFCURVE",
"90.584 -55 OFFCURVE",
"302 -55 CURVE SMOOTH"
);
}
);
width = 583;
},
{
associatedMasterId = "6F4F10D2-8254-4335-A627-9F8D8891324D";
layerId = "653E0B5D-5302-43C7-811E-314FCE2141E6";
name = "130";
paths = (
{
closed = 1;
nodes = (
"410.365 -65 OFFCURVE",
"511.993 -15.186 OFFCURVE",
"569.737 64.216 CURVE SMOOTH",
"587.009 88.611 OFFCURVE",
"591.654 101.994 OFFCURVE",
"594.346 113.029 CURVE SMOOTH",
"597.042 124.073 OFFCURVE",
"598 138.432 OFFCURVE",
"598 167.776 CURVE SMOOTH",
"598 253.006 LINE SMOOTH",
"598 286.406 OFFCURVE",
"588.599 309.401 OFFCURVE",
"565.5 332.5 CURVE SMOOTH",
"542.401 355.599 OFFCURVE",
"519.406 365 OFFCURVE",
"486.006 365 CURVE SMOOTH",
"333 365 LINE SMOOTH",
"297.101 365 OFFCURVE",
"268 335.899 OFFCURVE",
"268 300 CURVE SMOOTH",
"268 264.101 OFFCURVE",
"297.101 235 OFFCURVE",
"333 235 CURVE SMOOTH",
"468 235 LINE",
"468 145.524 LINE",
"435.951 97.021 OFFCURVE",
"371.825 65 OFFCURVE",
"302 65 CURVE SMOOTH",
"162.141 65 OFFCURVE",
"105 148.711 OFFCURVE",
"105 350 CURVE SMOOTH",
"105 534.776 OFFCURVE",
"171.458 635 OFFCURVE",
"302 635 CURVE SMOOTH",
"383.849 635 OFFCURVE",
"439.036 603.532 OFFCURVE",
"473.878 537.868 CURVE SMOOTH",
"484.56 516.597 OFFCURVE",
"506.575 502 OFFCURVE",
"532 502 CURVE SMOOTH",
"567.899 502 OFFCURVE",
"597 531.101 OFFCURVE",
"597 567 CURVE SMOOTH",
"597 578.394 OFFCURVE",
"594.068 589.103 OFFCURVE",
"588.918 598.414 CURVE SMOOTH",
"531.531 706.854 OFFCURVE",
"431.098 765 OFFCURVE",
"302 765 CURVE SMOOTH",
"95.585 765 OFFCURVE",
"-25 607.668 OFFCURVE",
"-25 350 CURVE SMOOTH",
"-25 77.667 OFFCURVE",
"84.816 -65 OFFCURVE",
"302 -65 CURVE SMOOTH"
);
}
);
width = 583;
},
{
associatedMasterId = "6F4F10D2-8254-4335-A627-9F8D8891324D";
layerId = "D9D2E533-4AF5-4BD6-8966-75361DF1BE22";
name = "150";
paths = (
{
closed = 1;
nodes = (
"411.971 -75 OFFCURVE",
"514.996 -25.285 OFFCURVE",
"575.062 54.585 CURVE SMOOTH",
"595.439 82.454 OFFCURVE",
"600.678 97.995 OFFCURVE",
"603.784 110.726 CURVE SMOOTH",
"606.894 123.469 OFFCURVE",
"608 140.037 OFFCURVE",
"608 173.896 CURVE SMOOTH",
"608 245.776 LINE SMOOTH",
"608 284.315 OFFCURVE",
"597.152 310.848 OFFCURVE",
"570.5 337.5 CURVE SMOOTH",
"543.848 364.152 OFFCURVE",
"517.315 375 OFFCURVE",
"478.776 375 CURVE SMOOTH",
"333 375 LINE SMOOTH",
"291.579 375 OFFCURVE",
"258 341.421 OFFCURVE",
"258 300 CURVE SMOOTH",
"258 258.579 OFFCURVE",
"291.579 225 OFFCURVE",
"333 225 CURVE SMOOTH",
"458 225 LINE",
"458 148.587 LINE",
"427.311 104.307 OFFCURVE",
"367.338 75 OFFCURVE",
"302 75 CURVE SMOOTH",
"168.571 75 OFFCURVE",
"115 153.752 OFFCURVE",
"115 350 CURVE SMOOTH",
"115 529.307 OFFCURVE",
"177.423 625 OFFCURVE",
"302 625 CURVE SMOOTH",
"380.162 625 OFFCURVE",
"431.886 595.566 OFFCURVE",
"464.966 533.327 CURVE SMOOTH",
"477.303 508.816 OFFCURVE",
"502.688 492 OFFCURVE",
"532 492 CURVE SMOOTH",
"573.421 492 OFFCURVE",
"607 525.579 OFFCURVE",
"607 567 CURVE SMOOTH",
"607 580.135 OFFCURVE",
"603.623 592.481 OFFCURVE",
"597.691 603.218 CURVE SMOOTH",
"538.497 714.971 OFFCURVE",
"434.842 775 OFFCURVE",
"302 775 CURVE SMOOTH",
"89.876 775 OFFCURVE",
"-35 613.154 OFFCURVE",
"-35 350 CURVE SMOOTH",
"-35 72.236 OFFCURVE",
"79.062 -75 OFFCURVE",
"302 -75 CURVE SMOOTH"
);
}
);
width = 583;
},
{
associatedMasterId = "6F4F10D2-8254-4335-A627-9F8D8891324D";
layerId = "FC9016B4-D654-47E0-855C-8C969FAA6039";
name = "Oct 3 18, 17:44";
paths = (
{
closed = 0;
nodes = (
"532 567 LINE",
"489 649 OFFCURVE",
"415 700 OFFCURVE",
"302 700 CURVE SMOOTH",
"63 700 OFFCURVE",
"40 453 OFFCURVE",
"40 350 CURVE SMOOTH",
"40 210 OFFCURVE",
"63 0 OFFCURVE",
"302 0 CURVE SMOOTH",
"399 0 OFFCURVE",
"492 49 OFFCURVE",
"533 128 CURVE",
"533 300 LINE",
"333 300 LINE"
);
}
);
width = 583;
}
);
unicode = 0047;
},
{
glyphname = H;
lastChange = "2019-01-25 15:48:55 +0000";
layers = (
{
layerId = "6F4F10D2-8254-4335-A627-9F8D8891324D";
paths = (
{
closed = 1;
nodes = (
"100 -45 OFFCURVE",
"120 -25 OFFCURVE",
"120 0 CURVE SMOOTH",
"120 305 LINE",
"436 305 LINE",
"436 0 LINE SMOOTH",
"436 -25 OFFCURVE",
"456 -45 OFFCURVE",
"481 -45 CURVE SMOOTH",
"506 -45 OFFCURVE",
"526 -25 OFFCURVE",
"526 0 CURVE SMOOTH",
"526 700 LINE SMOOTH",
"526 725 OFFCURVE",
"506 745 OFFCURVE",
"481 745 CURVE SMOOTH",
"456 745 OFFCURVE",
"436 725 OFFCURVE",
"436 700 CURVE SMOOTH",
"436 395 LINE",
"120 395 LINE",
"120 700 LINE SMOOTH",
"120 725 OFFCURVE",
"100 745 OFFCURVE",
"75 745 CURVE SMOOTH",
"50 745 OFFCURVE",
"30 725 OFFCURVE",
"30 700 CURVE SMOOTH",
"30 0 LINE SMOOTH",
"30 -25 OFFCURVE",
"50 -45 OFFCURVE",
"75 -45 CURVE SMOOTH"
);
}
);
width = 556;
},
{
associatedMasterId = "6F4F10D2-8254-4335-A627-9F8D8891324D";
layerId = "F5E1098B-A28C-48AF-934F-359502CD6880";
name = path;
paths = (
{
closed = 0;
nodes = (
"20 700 LINE",
"20 0 LINE"
);
},
{
closed = 0;
nodes = (
"426 700 LINE",
"426 0 LINE"
);
},
{
closed = 0;
nodes = (
"20 350 LINE",
"426 350 LINE"
);
}
);
visible = 1;
width = 504;
},
{
associatedMasterId = "6F4F10D2-8254-4335-A627-9F8D8891324D";
layerId = "766BC8F0-7652-4D5A-AC65-4357CF58A07A";
name = path;
paths = (
{
closed = 0;
nodes = (
"20 800 LINE",
"20 0 LINE"
);
},
{
closed = 0;
nodes = (
"484 800 LINE",
"484 0 LINE"
);
},
{
closed = 0;
nodes = (
"20 400 LINE",
"484 400 LINE"
);
}
);
width = 504;
}
);
unicode = 0048;
},
{
glyphname = I;
lastChange = "2019-01-25 15:48:55 +0000";
layers = (
{
layerId = "6F4F10D2-8254-4335-A627-9F8D8891324D";
paths = (
{
closed = 1;
nodes = (
"100 -45 OFFCURVE",
"120 -25 OFFCURVE",
"120 0 CURVE SMOOTH",
"120 700 LINE SMOOTH",
"120 725 OFFCURVE",
"100 745 OFFCURVE",
"75 745 CURVE SMOOTH",
"50 745 OFFCURVE",
"30 725 OFFCURVE",
"30 700 CURVE SMOOTH",
"30 0 LINE SMOOTH",
"30 -25 OFFCURVE",
"50 -45 OFFCURVE",
"75 -45 CURVE SMOOTH"
);
}
);
width = 150;
},
{
associatedMasterId = "6F4F10D2-8254-4335-A627-9F8D8891324D";
layerId = "8EE5B634-C740-4753-9E93-40991081FEAB";
name = path;
paths = (
{
closed = 0;
nodes = (
"20 700 LINE",
"20 0 LINE"
);
}
);
visible = 1;
width = 40;
},
{
associatedMasterId = "6F4F10D2-8254-4335-A627-9F8D8891324D";
layerId = "351423B3-7BF3-4274-9CFA-5465706AAE7F";
name = path;
paths = (
{
closed = 0;
nodes = (
"20 800 LINE",
"20 0 LINE"
);
}
);
width = 40;
}
);
unicode = 0049;
},
{
color = 1;
glyphname = J;
lastChange = "2019-01-25 15:48:55 +0000";
layers = (
{
layerId = "6F4F10D2-8254-4335-A627-9F8D8891324D";
paths = (
{
closed = 1;
nodes = (
"382 -45 OFFCURVE",
"470 42 OFFCURVE",
"470 175 CURVE SMOOTH",
"470 700 LINE SMOOTH",
"470 725 OFFCURVE",
"450 745 OFFCURVE",
"425 745 CURVE SMOOTH",
"400 745 OFFCURVE",
"380 725 OFFCURVE",
"380 700 CURVE SMOOTH",
"380 175 LINE SMOOTH",
"380 92 OFFCURVE",
"332 45 OFFCURVE",
"250 45 CURVE SMOOTH",
"168 45 OFFCURVE",
"120 92 OFFCURVE",
"120 175 CURVE SMOOTH",
"120 200 OFFCURVE",
"100 220 OFFCURVE",
"75 220 CURVE SMOOTH",
"50 220 OFFCURVE",
"30 200 OFFCURVE",
"30 175 CURVE SMOOTH",
"30 42 OFFCURVE",
"118 -45 OFFCURVE",
"250 -45 CURVE SMOOTH"
);
}
);
width = 500;
},
{
associatedMasterId = "6F4F10D2-8254-4335-A627-9F8D8891324D";
layerId = "2E527735-7AED-488C-A9D2-3D18EE3C0A9E";
name = path;
paths = (
{
closed = 0;
nodes = (
"370 700 LINE",
"370 175 LINE SMOOTH",
"370 35 OFFCURVE",
"265 0 OFFCURVE",
"195 0 CURVE SMOOTH",
"125 0 OFFCURVE",
"20 35 OFFCURVE",
"20 175 CURVE"
);
}
);
visible = 1;
width = 440;
},
{
associatedMasterId = "6F4F10D2-8254-4335-A627-9F8D8891324D";
layerId = "A4B36DC4-F5AE-4FB9-AF6D-07DCEA226F2C";
name = path;
paths = (
{
closed = 0;
nodes = (
"420 800 LINE",
"420 160 LINE SMOOTH",
"420 40 OFFCURVE",
"300 0 OFFCURVE",
"220 0 CURVE SMOOTH",
"140 0 OFFCURVE",
"20 40 OFFCURVE",
"20 200 CURVE"
);
}
);
width = 440;
}
);
unicode = 004A;
},
{
color = 4;
glyphname = K;
lastChange = "2019-01-25 15:48:55 +0000";
layers = (
{
associatedMasterId = "6F4F10D2-8254-4335-A627-9F8D8891324D";
layerId = "457C2936-8C35-4B45-9D28-CE91441009F2";
name = path;
paths = (
{
closed = 0;
nodes = (
"20 700 LINE",
"20 1 LINE"
);
},
{
closed = 0;
nodes = (
"20 278 LINE",
"400 700 LINE"
);
},
{
closed = 0;
nodes = (
"122 363 LINE",
"417 0 LINE"
);
}
);
visible = 1;
width = 474;
},
{
layerId = "6F4F10D2-8254-4335-A627-9F8D8891324D";
paths = (
{
closed = 1;
nodes = (
"497 -45 OFFCURVE",
"517 -25 OFFCURVE",
"517 0 CURVE SMOOTH",
"517 11 OFFCURVE",
"513 21 OFFCURVE",
"507 29 CURVE SMOOTH",
"224 376 LINE",
"488 670 LINE SMOOTH",
"496 678 OFFCURVE",
"500 688 OFFCURVE",
"500 700 CURVE SMOOTH",
"500 725 OFFCURVE",
"480 745 OFFCURVE",
"455 745 CURVE SMOOTH",
"442 745 OFFCURVE",
"430 739 OFFCURVE",
"422 730 CURVE SMOOTH",
"120 395 LINE",
"120 700 LINE SMOOTH",
"120 725 OFFCURVE",
"100 745 OFFCURVE",
"75 745 CURVE SMOOTH",
"50 745 OFFCURVE",
"30 725 OFFCURVE",
"30 700 CURVE SMOOTH",
"30 1 LINE SMOOTH",
"30 -24 OFFCURVE",
"50 -44 OFFCURVE",
"75 -44 CURVE SMOOTH",
"100 -44 OFFCURVE",
"120 -24 OFFCURVE",
"120 1 CURVE SMOOTH",
"120 261 LINE",
"163 309 LINE",
"437 -28 LINE SMOOTH",
"445 -38 OFFCURVE",
"458 -45 OFFCURVE",
"472 -45 CURVE SMOOTH"
);
}
);
width = 547;
},
{
associatedMasterId = "6F4F10D2-8254-4335-A627-9F8D8891324D";
layerId = "BF58FAD0-54FA-4747-9573-76CFE3EBDE1C";
name = path;
paths = (
{
closed = 0;
nodes = (
"20 799 LINE",
"20 1 LINE"
);
},
{
closed = 0;
nodes = (
"20 318 LINE",
"454 800 LINE"
);
},
{
closed = 0;
nodes = (
"136 415 LINE",
"474 0 LINE"
);
}
);
width = 474;
}
);
unicode = 004B;
},
{
glyphname = L;
lastChange = "2019-01-25 15:48:55 +0000";
layers = (
{
layerId = "6F4F10D2-8254-4335-A627-9F8D8891324D";
paths = (
{
closed = 1;
nodes = (
"394 -45 LINE SMOOTH",
"419 -45 OFFCURVE",
"439 -25 OFFCURVE",
"439 0 CURVE SMOOTH",
"439 25 OFFCURVE",
"419 45 OFFCURVE",
"394 45 CURVE SMOOTH",
"120 45 LINE",
"120 700 LINE SMOOTH",
"120 725 OFFCURVE",
"100 745 OFFCURVE",
"75 745 CURVE SMOOTH",
"50 745 OFFCURVE",
"30 725 OFFCURVE",
"30 700 CURVE SMOOTH",
"30 33 LINE SMOOTH",
"30 9 OFFCURVE",
"37 -7 OFFCURVE",
"53 -23 CURVE SMOOTH",
"68 -38 OFFCURVE",
"84 -45 OFFCURVE",
"108 -45 CURVE SMOOTH"
);
}
);
width = 469;
},
{
associatedMasterId = "6F4F10D2-8254-4335-A627-9F8D8891324D";
layerId = "5E2C3B7B-09B2-44BF-84C0-910C6FABEBCE";
name = path;
paths = (
{
closed = 0;
nodes = (
"20 700 LINE",
"20 0 LINE",
"339 0 LINE"
);
}
);
visible = 1;
width = 405;
},
{
associatedMasterId = "6F4F10D2-8254-4335-A627-9F8D8891324D";
layerId = "226242C9-6C44-4A08-A563-A9CBEF05FF4E";
name = path;
paths = (
{
closed = 0;
nodes = (
"20 800 LINE",
"20 0 LINE",
"385 0 LINE"
);
}
);
width = 405;
}
);
unicode = 004C;
},
{
color = 1;
glyphname = M;
lastChange = "2019-01-25 15:48:55 +0000";
layers = (
{
layerId = "6F4F10D2-8254-4335-A627-9F8D8891324D";
paths = (
{
closed = 1;
nodes = (
"100 -45 OFFCURVE",
"120 -25 OFFCURVE",
"120 0 CURVE SMOOTH",
"120 515 LINE",
"298 172 LINE SMOOTH",
"310 149 OFFCURVE",
"326 139 OFFCURVE",
"351 139 CURVE SMOOTH",
"359 139 LINE SMOOTH",
"384 139 OFFCURVE",
"400 149 OFFCURVE",
"412 172 CURVE SMOOTH",
"590 515 LINE",
"590 0 LINE SMOOTH",
"590 -25 OFFCURVE",
"610 -45 OFFCURVE",
"635 -45 CURVE SMOOTH",
"660 -45 OFFCURVE",
"680 -25 OFFCURVE",
"680 0 CURVE SMOOTH",
"680 660 LINE SMOOTH",
"680 687 OFFCURVE",
"667 703 OFFCURVE",
"641 710 CURVE SMOOTH",
"634 711 LINE SMOOTH",
"608 718 OFFCURVE",
"589 709 OFFCURVE",
"577 685 CURVE SMOOTH",
"355 258 LINE",
"133 685 LINE SMOOTH",
"121 709 OFFCURVE",
"102 718 OFFCURVE",
"76 711 CURVE SMOOTH",
"69 710 LINE SMOOTH",
"43 703 OFFCURVE",
"30 687 OFFCURVE",
"30 660 CURVE SMOOTH",
"30 0 LINE SMOOTH",
"30 -25 OFFCURVE",
"50 -45 OFFCURVE",
"75 -45 CURVE SMOOTH"
);
}
);
width = 710;
},
{
associatedMasterId = "6F4F10D2-8254-4335-A627-9F8D8891324D";
layerId = "689F0889-A0B2-44AE-9B6B-11589C1C2C02";
name = path;
paths = (
{
closed = 0;
nodes = (
"580 0 LINE",
"580 700 LINE",
"300 160 LINE",
"20 700 LINE",
"20 0 LINE"
);
}
);
visible = 1;
width = 680;
},
{
associatedMasterId = "6F4F10D2-8254-4335-A627-9F8D8891324D";
layerId = "0153D6A8-DFB5-49EB-ACB2-D48FDD051A62";
name = path;
paths = (
{
closed = 0;
nodes = (
"660 0 LINE",
"660 800 LINE",
"340 183 LINE",
"20 800 LINE",
"20 0 LINE"
);
}
);
width = 680;
}
);
unicode = 004D;
},
{
glyphname = N;
lastChange = "2019-01-25 15:48:55 +0000";
layers = (
{
layerId = "6F4F10D2-8254-4335-A627-9F8D8891324D";
paths = (
{
closed = 1;
nodes = (
"100 -45 OFFCURVE",
"120 -25 OFFCURVE",
"120 0 CURVE SMOOTH",
"120 532 LINE",
"420 12 LINE SMOOTH",
"434 -11 OFFCURVE",
"453 -19 OFFCURVE",
"478 -12 CURVE SMOOTH",
"486 -10 LINE SMOOTH",
"511 -3 OFFCURVE",
"524 13 OFFCURVE",
"524 40 CURVE SMOOTH",
"524 700 LINE SMOOTH",
"524 725 OFFCURVE",
"504 745 OFFCURVE",
"479 745 CURVE SMOOTH",
"454 745 OFFCURVE",
"434 725 OFFCURVE",
"434 700 CURVE SMOOTH",
"434 168 LINE",
"134 688 LINE SMOOTH",
"120 711 OFFCURVE",
"101 719 OFFCURVE",
"76 712 CURVE SMOOTH",
"68 710 LINE SMOOTH",
"43 703 OFFCURVE",
"30 687 OFFCURVE",
"30 660 CURVE SMOOTH",
"30 0 LINE SMOOTH",
"30 -25 OFFCURVE",
"50 -45 OFFCURVE",
"75 -45 CURVE SMOOTH"
);
}
);
width = 554;
},
{
associatedMasterId = "6F4F10D2-8254-4335-A627-9F8D8891324D";
layerId = "4BF1856C-120C-42A7-83AB-FB28D17EA55C";
name = path;
paths = (
{
closed = 0;
nodes = (
"20 0 LINE",
"20 700 LINE",
"424 0 LINE",
"424 700 LINE"
);
}
);
visible = 1;
width = 502;
},
{
associatedMasterId = "6F4F10D2-8254-4335-A627-9F8D8891324D";
layerId = "F119E06C-57E9-4284-918C-449A531315A6";
name = path;
paths = (
{
closed = 0;
nodes = (
"20 0 LINE",
"20 800 LINE",
"482 0 LINE",
"482 800 LINE"
);
}
);
width = 502;
}
);
unicode = 004E;
},
{
glyphname = O;
lastChange = "2019-01-25 15:48:55 +0000";
layers = (
{
layerId = "6F4F10D2-8254-4335-A627-9F8D8891324D";
paths = (
{
closed = 1;
nodes = (
"490 -45 OFFCURVE",
"588 97 OFFCURVE",
"588 351 CURVE SMOOTH",
"588 600 OFFCURVE",
"487 745 OFFCURVE",
"309 745 CURVE SMOOTH",
"61 745 OFFCURVE",
"30 532 OFFCURVE",
"30 350 CURVE SMOOTH",
"30 96 OFFCURVE",
"127 -45 OFFCURVE",
"309 -45 CURVE SMOOTH"
);
},
{
closed = 1;
nodes = (
"183 45 OFFCURVE",
"120 145 OFFCURVE",
"120 350 CURVE SMOOTH",
"120 574 OFFCURVE",
"169 655 OFFCURVE",
"309 655 CURVE SMOOTH",
"432 655 OFFCURVE",
"498 551 OFFCURVE",
"498 351 CURVE SMOOTH",
"498 145 OFFCURVE",
"434 45 OFFCURVE",
"309 45 CURVE SMOOTH"
);
}
);
width = 618;
},
{
associatedMasterId = "6F4F10D2-8254-4335-A627-9F8D8891324D";
layerId = "83D1E95C-34F0-4735-9F17-5029666BFD0C";
name = path;
paths = (
{
closed = 1;
nodes = (
"488 163 OFFCURVE",
"433 0 OFFCURVE",
"254 0 CURVE SMOOTH",
"74 0 OFFCURVE",
"20 163 OFFCURVE",
"20 350 CURVE SMOOTH",
"20 529 OFFCURVE",
"45 700 OFFCURVE",
"254 700 CURVE SMOOTH",
"433 700 OFFCURVE",
"488 529 OFFCURVE",
"488 351 CURVE SMOOTH"
);
}
);
visible = 1;
width = 575;
},
{
associatedMasterId = "6F4F10D2-8254-4335-A627-9F8D8891324D";
layerId = "37A4A655-FD7E-49E8-8CC6-F59214322C75";
name = path;
paths = (
{
closed = 1;
nodes = (
"555 186 OFFCURVE",
"492 0 OFFCURVE",
"287 0 CURVE SMOOTH",
"82 0 OFFCURVE",
"20 186 OFFCURVE",
"20 400 CURVE SMOOTH",
"20 605 OFFCURVE",
"49 800 OFFCURVE",
"287 800 CURVE SMOOTH",
"492 800 OFFCURVE",
"555 605 OFFCURVE",
"555 401 CURVE SMOOTH"
);
}
);
width = 575;
}
);
unicode = 004F;
},
{
glyphname = OE;
lastChange = "2019-01-25 15:48:55 +0000";
layers = (
{
layerId = "6F4F10D2-8254-4335-A627-9F8D8891324D";
paths = (
{
closed = 1;
nodes = (
"388 -45 OFFCURVE",
"452 -18 OFFCURVE",
"498 34 CURVE",
"498 17 LINE SMOOTH",
"498 5 OFFCURVE",
"505 -7 OFFCURVE",
"521 -23 CURVE SMOOTH",
"536 -38 OFFCURVE",
"552 -45 OFFCURVE",
"576 -45 CURVE SMOOTH",
"889 -45 LINE SMOOTH",
"914 -45 OFFCURVE",
"934 -25 OFFCURVE",
"934 0 CURVE SMOOTH",
"934 25 OFFCURVE",
"914 45 OFFCURVE",
"889 45 CURVE SMOOTH",
"588 45 LINE",
"588 306 LINE",
"808 306 LINE SMOOTH",
"833 306 OFFCURVE",
"853 326 OFFCURVE",
"853 351 CURVE SMOOTH",
"853 376 OFFCURVE",
"833 396 OFFCURVE",
"808 396 CURVE SMOOTH",
"588 396 LINE",
"588 655 LINE",
"889 655 LINE SMOOTH",
"914 655 OFFCURVE",
"934 675 OFFCURVE",
"934 700 CURVE SMOOTH",
"934 725 OFFCURVE",
"914 745 OFFCURVE",
"889 745 CURVE SMOOTH",
"576 745 LINE SMOOTH",
"552 745 OFFCURVE",
"536 738 OFFCURVE",
"521 723 CURVE SMOOTH",
"505 707 OFFCURVE",
"498 691 OFFCURVE",
"498 667 CURVE SMOOTH",
"498 663 LINE",
"451 717 OFFCURVE",
"388 745 OFFCURVE",
"309 745 CURVE SMOOTH",
"61 745 OFFCURVE",
"30 532 OFFCURVE",
"30 350 CURVE SMOOTH",
"30 96 OFFCURVE",
"127 -45 OFFCURVE",
"309 -45 CURVE SMOOTH"
);
},
{
closed = 1;
nodes = (
"182 45 OFFCURVE",
"120 145 OFFCURVE",
"120 350 CURVE SMOOTH",
"120 574 OFFCURVE",
"169 655 OFFCURVE",
"309 655 CURVE SMOOTH",
"432 655 OFFCURVE",
"498 551 OFFCURVE",
"498 351 CURVE SMOOTH",
"498 145 OFFCURVE",
"434 45 OFFCURVE",
"309 45 CURVE SMOOTH"
);
}
);
width = 964;
},
{
associatedMasterId = "6F4F10D2-8254-4335-A627-9F8D8891324D";
layerId = "0C90DAC8-C23D-4CD9-B5F3-608DC915B053";
name = path;
paths = (
{
closed = 0;
nodes = (
"834 700 LINE",
"488 700 LINE",
"488 0 LINE",
"834 0 LINE"
);
},
{
closed = 0;
nodes = (
"753 351 LINE",
"488 351 LINE"
);
},
{
closed = 1;
nodes = (
"488 163 OFFCURVE",
"433 0 OFFCURVE",
"254 0 CURVE SMOOTH",
"73 0 OFFCURVE",
"20 163 OFFCURVE",
"20 350 CURVE SMOOTH",
"20 529 OFFCURVE",
"45 700 OFFCURVE",
"254 700 CURVE SMOOTH",
"433 700 OFFCURVE",
"488 529 OFFCURVE",
"488 351 CURVE SMOOTH"
);
}
);
visible = 1;
width = 970;
},
{
associatedMasterId = "6F4F10D2-8254-4335-A627-9F8D8891324D";
layerId = "95F0B4CA-E2B8-4EF7-8356-D177FAC2EF91";
name = path;
paths = (
{
closed = 0;
nodes = (
"950 800 LINE",
"555 800 LINE",
"555 0 LINE",
"950 0 LINE"
);
},
{
closed = 0;
nodes = (
"858 401 LINE",
"555 401 LINE"
);
},
{
closed = 1;
nodes = (
"555 186 OFFCURVE",
"492 0 OFFCURVE",
"287 0 CURVE SMOOTH",
"81 0 OFFCURVE",
"20 186 OFFCURVE",
"20 400 CURVE SMOOTH",
"20 605 OFFCURVE",
"49 800 OFFCURVE",
"287 800 CURVE SMOOTH",
"492 800 OFFCURVE",
"555 605 OFFCURVE",
"555 401 CURVE SMOOTH"
);
}
);
width = 970;
}
);
unicode = 0152;
},
{
glyphname = P;
lastChange = "2019-01-25 15:48:55 +0000";
layers = (
{
layerId = "6F4F10D2-8254-4335-A627-9F8D8891324D";
paths = (
{
closed = 1;
nodes = (
"100 -45 OFFCURVE",
"120 -25 OFFCURVE",
"120 0 CURVE SMOOTH",
"120 303 LINE",
"290 303 LINE SMOOTH",
"306 303 OFFCURVE",
"497 304 OFFCURVE",
"497 527 CURVE SMOOTH",
"497 662 OFFCURVE",
"415 745 OFFCURVE",
"281 745 CURVE SMOOTH",
"108 745 LINE SMOOTH",
"84 745 OFFCURVE",
"68 738 OFFCURVE",
"53 723 CURVE SMOOTH",
"37 707 OFFCURVE",
"30 691 OFFCURVE",
"30 667 CURVE SMOOTH",
"30 0 LINE SMOOTH",
"30 -25 OFFCURVE",
"50 -45 OFFCURVE",
"75 -45 CURVE SMOOTH"
);
},
{
closed = 1;
nodes = (
"120 655 LINE",
"281 655 LINE SMOOTH",
"365 655 OFFCURVE",
"407 612 OFFCURVE",
"407 527 CURVE SMOOTH",
"407 442 OFFCURVE",
"365 393 OFFCURVE",
"290 393 CURVE SMOOTH",
"120 393 LINE"
);
}
);
width = 527;
},
{
associatedMasterId = "6F4F10D2-8254-4335-A627-9F8D8891324D";
layerId = "B6BE8936-30B5-4252-96B7-8EBED16B661B";
name = path;
paths = (
{
closed = 0;
nodes = (
"20 0 LINE",
"20 700 LINE",
"226 700 LINE SMOOTH",
"251 700 OFFCURVE",
"397 700 OFFCURVE",
"397 527 CURVE SMOOTH",
"397 349 OFFCURVE",
"251 348 OFFCURVE",
"235 348 CURVE SMOOTH",
"39 348 LINE"
);
}
);
visible = 1;
width = 471;
},
{
associatedMasterId = "6F4F10D2-8254-4335-A627-9F8D8891324D";
layerId = "FD2896B9-79C0-4C77-BA0E-B09A0BC09BC5";
name = path;
paths = (
{
closed = 0;
nodes = (
"20 0 LINE",
"20 800 LINE",
"255 800 LINE SMOOTH",
"284 800 OFFCURVE",
"450 800 OFFCURVE",
"450 602 CURVE SMOOTH",
"450 399 OFFCURVE",
"284 398 OFFCURVE",
"266 398 CURVE SMOOTH",
"42 398 LINE"
);
}
);
width = 470;
}
);
unicode = 0050;
},
{
glyphname = Q;
lastChange = "2019-01-25 15:48:55 +0000";
layers = (
{
layerId = "6F4F10D2-8254-4335-A627-9F8D8891324D";
paths = (
{
closed = 1;
nodes = (
"546 -158 OFFCURVE",
"566 -138 OFFCURVE",
"566 -113 CURVE SMOOTH",
"566 -105 OFFCURVE",
"564 -97 OFFCURVE",
"560 -90 CURVE SMOOTH",
"498 16 LINE",
"562 84 OFFCURVE",
"596 195 OFFCURVE",
"596 345 CURVE SMOOTH",
"596 598 OFFCURVE",
"494 745 OFFCURVE",
"313 745 CURVE SMOOTH",
"61 745 OFFCURVE",
"30 529 OFFCURVE",
"30 343 CURVE SMOOTH",
"30 86 OFFCURVE",
"129 -57 OFFCURVE",
"313 -57 CURVE SMOOTH",
"354 -57 OFFCURVE",
"391 -50 OFFCURVE",
"424 -35 CURVE",
"482 -135 LINE SMOOTH",
"489 -149 OFFCURVE",
"504 -158 OFFCURVE",
"521 -158 CURVE SMOOTH"
);
},
{
closed = 1;
nodes = (
"184 33 OFFCURVE",
"120 134 OFFCURVE",
"120 343 CURVE SMOOTH",
"120 573 OFFCURVE",
"170 655 OFFCURVE",
"313 655 CURVE SMOOTH",
"438 655 OFFCURVE",
"506 548 OFFCURVE",
"506 345 CURVE SMOOTH",
"506 233 OFFCURVE",
"487 151 OFFCURVE",
"450 99 CURVE",
"406 175 LINE SMOOTH",
"399 189 OFFCURVE",
"384 198 OFFCURVE",
"367 198 CURVE SMOOTH",
"342 198 OFFCURVE",
"322 178 OFFCURVE",
"322 153 CURVE SMOOTH",
"322 145 OFFCURVE",
"324 137 OFFCURVE",
"328 130 CURVE SMOOTH",
"378 44 LINE",
"359 37 OFFCURVE",
"337 33 OFFCURVE",
"313 33 CURVE SMOOTH"
);
}
);
width = 626;
},
{
associatedMasterId = "6F4F10D2-8254-4335-A627-9F8D8891324D";
layerId = "3651E6E4-72CC-482B-B990-2CB145851F89";
name = path;
paths = (
{
closed = 1;
nodes = (
"496 154 OFFCURVE",
"440 -12 OFFCURVE",
"258 -12 CURVE SMOOTH",
"75 -12 OFFCURVE",
"20 153 OFFCURVE",
"20 343 CURVE SMOOTH",
"20 526 OFFCURVE",
"45 700 OFFCURVE",
"258 700 CURVE SMOOTH",
"440 700 OFFCURVE",
"496 526 OFFCURVE",
"496 345 CURVE SMOOTH"
);
},
{
closed = 0;
nodes = (
"312 153 LINE",
"466 -113 LINE"
);
}
);
visible = 1;
width = 575;
},
{
associatedMasterId = "6F4F10D2-8254-4335-A627-9F8D8891324D";
layerId = "73934EF4-B254-4E4A-81A0-F0501A49D3FF";
name = path;
paths = (
{
closed = 1;
nodes = (
"555 187 OFFCURVE",
"492 0 OFFCURVE",
"287 0 CURVE SMOOTH",
"82 0 OFFCURVE",
"20 186 OFFCURVE",
"20 399 CURVE SMOOTH",
"20 605 OFFCURVE",
"48 800 OFFCURVE",
"287 800 CURVE SMOOTH",
"492 800 OFFCURVE",
"555 605 OFFCURVE",
"555 401 CURVE SMOOTH"
);
},
{
closed = 0;
nodes = (
"348 186 LINE",
"521 -113 LINE"
);
}
);
width = 575;
}
);
unicode = 0051;
},
{
glyphname = R;
lastChange = "2019-01-25 15:48:55 +0000";
layers = (
{
layerId = "6F4F10D2-8254-4335-A627-9F8D8891324D";
paths = (
{
closed = 1;
nodes = (
"471 -45 OFFCURVE",
"491 -25 OFFCURVE",
"491 0 CURVE SMOOTH",
"491 7 OFFCURVE",
"489 13 OFFCURVE",
"487 19 CURVE SMOOTH",
"354 314 LINE",
"415 332 OFFCURVE",
"495 384 OFFCURVE",
"495 528 CURVE SMOOTH",
"495 663 OFFCURVE",
"414 745 OFFCURVE",
"280 745 CURVE SMOOTH",
"108 745 LINE SMOOTH",
"84 745 OFFCURVE",
"68 738 OFFCURVE",
"53 723 CURVE SMOOTH",
"37 707 OFFCURVE",
"30 691 OFFCURVE",
"30 667 CURVE SMOOTH",
"30 2 LINE SMOOTH",
"30 -23 OFFCURVE",
"50 -43 OFFCURVE",
"75 -43 CURVE SMOOTH",
"100 -43 OFFCURVE",
"120 -23 OFFCURVE",
"120 2 CURVE SMOOTH",
"120 304 LINE",
"260 304 LINE",
"405 -18 LINE SMOOTH",
"411 -34 OFFCURVE",
"427 -45 OFFCURVE",
"446 -45 CURVE SMOOTH"
);
},
{
closed = 1;
nodes = (
"120 655 LINE",
"280 655 LINE SMOOTH",
"364 655 OFFCURVE",
"405 613 OFFCURVE",
"405 528 CURVE SMOOTH",
"405 395 OFFCURVE",
"306 394 OFFCURVE",
"289 394 CURVE SMOOTH",
"120 394 LINE"
);
}
);
width = 525;
},
{
associatedMasterId = "6F4F10D2-8254-4335-A627-9F8D8891324D";
layerId = "34D026D8-AE78-4916-8D56-C0C850113180";
name = path;
paths = (
{
closed = 0;
nodes = (
"20 2 LINE",
"20 700 LINE",
"225 700 LINE SMOOTH",
"251 700 OFFCURVE",
"395 700 OFFCURVE",
"395 528 CURVE SMOOTH",
"395 351 OFFCURVE",
"251 349 OFFCURVE",
"234 349 CURVE SMOOTH",
"39 349 LINE"
);
},
{
closed = 0;
nodes = (
"391 0 LINE",
"234 349 LINE"
);
}
);
visible = 1;
width = 469;
},
{
associatedMasterId = "6F4F10D2-8254-4335-A627-9F8D8891324D";
layerId = "71C7A59F-8B5D-4A6C-AB0B-CE743C051B21";
name = path;
paths = (
{
closed = 0;
nodes = (
"20 2 LINE",
"20 800 LINE",
"254 800 LINE SMOOTH",
"284 800 OFFCURVE",
"449 800 OFFCURVE",
"449 603 CURVE SMOOTH",
"449 401 OFFCURVE",
"284 399 OFFCURVE",
"265 399 CURVE SMOOTH",
"42 399 LINE"
);
},
{
closed = 0;
nodes = (
"444 0 LINE",
"265 399 LINE"
);
}
);
width = 469;
}
);
unicode = 0052;
},
{
glyphname = S;
lastChange = "2019-01-25 15:48:55 +0000";
layers = (
{
layerId = "6F4F10D2-8254-4335-A627-9F8D8891324D";
paths = (
{
closed = 1;
nodes = (
"478 -45 OFFCURVE",
"576 33 OFFCURVE",
"576 174 CURVE SMOOTH",
"576 288 OFFCURVE",
"482 364 OFFCURVE",
"310 394 CURVE SMOOTH",
"180 417 OFFCURVE",
"120 462 OFFCURVE",
"120 525 CURVE SMOOTH",
"120 613 OFFCURVE",
"174 655 OFFCURVE",
"302 655 CURVE SMOOTH",
"442 655 OFFCURVE",
"482 556 OFFCURVE",
"486 546 CURVE SMOOTH",
"492 528 OFFCURVE",
"509 515 OFFCURVE",
"529 515 CURVE SMOOTH",
"554 515 OFFCURVE",
"574 535 OFFCURVE",
"574 560 CURVE SMOOTH",
"574 566 OFFCURVE",
"573 571 OFFCURVE",
"571 576 CURVE SMOOTH",
"567 588 OFFCURVE",
"506 745 OFFCURVE",
"302 745 CURVE SMOOTH",
"128 745 OFFCURVE",
"30 668 OFFCURVE",
"30 525 CURVE SMOOTH",
"30 411 OFFCURVE",
"123 336 OFFCURVE",
"294 306 CURVE SMOOTH",
"424 282 OFFCURVE",
"486 237 OFFCURVE",
"486 174 CURVE SMOOTH",
"486 87 OFFCURVE",
"430 45 OFFCURVE",
"302 45 CURVE SMOOTH",
"162 45 OFFCURVE",
"122 144 OFFCURVE",
"119 154 CURVE SMOOTH",
"113 172 OFFCURVE",
"96 185 OFFCURVE",
"76 185 CURVE SMOOTH",
"51 185 OFFCURVE",
"31 165 OFFCURVE",
"31 140 CURVE SMOOTH",
"31 135 OFFCURVE",
"32 129 OFFCURVE",
"34 124 CURVE SMOOTH",
"38 112 OFFCURVE",
"97 -45 OFFCURVE",
"302 -45 CURVE SMOOTH"
);
}
);
width = 606;
},
{
associatedMasterId = "6F4F10D2-8254-4335-A627-9F8D8891324D";
layerId = "4D974AB7-DD30-4321-8E36-5993838640D6";
name = path;
paths = (
{
closed = 0;
nodes = (
"474 560 LINE",
"474 560 OFFCURVE",
"427 700 OFFCURVE",
"247 700 CURVE SMOOTH",
"77 700 OFFCURVE",
"20 625 OFFCURVE",
"20 525 CURVE SMOOTH",
"20 430 OFFCURVE",
"107 375 OFFCURVE",
"247 350 CURVE SMOOTH",
"387 325 OFFCURVE",
"476 269 OFFCURVE",
"476 174 CURVE SMOOTH",
"476 74 OFFCURVE",
"417 0 OFFCURVE",
"247 0 CURVE SMOOTH",
"67 0 OFFCURVE",
"21 140 OFFCURVE",
"21 140 CURVE"
);
}
);
visible = 1;
width = 561;
},
{
associatedMasterId = "6F4F10D2-8254-4335-A627-9F8D8891324D";
layerId = "ADD7DF0D-6401-4E2B-A306-241D2B466D6E";
name = path;
paths = (
{
closed = 0;
nodes = (
"539 640 LINE",
"539 640 OFFCURVE",
"490 800 OFFCURVE",
"279 800 CURVE SMOOTH",
"63 800 OFFCURVE",
"20 722 OFFCURVE",
"20 600 CURVE SMOOTH",
"20 477 OFFCURVE",
"118 429 OFFCURVE",
"279 400 CURVE SMOOTH",
"442 371 OFFCURVE",
"541 328 OFFCURVE",
"541 199 CURVE SMOOTH",
"541 75 OFFCURVE",
"497 0 OFFCURVE",
"279 0 CURVE SMOOTH",
"70 0 OFFCURVE",
"21 160 OFFCURVE",
"21 160 CURVE"
);
}
);
width = 561;
}
);
unicode = 0053;
},
{
glyphname = T;
lastChange = "2019-01-25 15:48:55 +0000";
layers = (
{
layerId = "6F4F10D2-8254-4335-A627-9F8D8891324D";
paths = (
{
closed = 1;
nodes = (
"362 -45 OFFCURVE",
"382 -25 OFFCURVE",
"382 0 CURVE SMOOTH",
"382 655 LINE",
"594 655 LINE SMOOTH",
"619 655 OFFCURVE",
"639 675 OFFCURVE",
"639 700 CURVE SMOOTH",
"639 725 OFFCURVE",
"619 745 OFFCURVE",
"594 745 CURVE SMOOTH",
"75 745 LINE SMOOTH",
"50 745 OFFCURVE",
"30 725 OFFCURVE",
"30 700 CURVE SMOOTH",
"30 675 OFFCURVE",
"50 655 OFFCURVE",
"75 655 CURVE SMOOTH",
"292 655 LINE",
"292 0 LINE SMOOTH",
"292 -25 OFFCURVE",
"312 -45 OFFCURVE",
"337 -45 CURVE SMOOTH"
);
}
);
width = 669;
},
{
associatedMasterId = "6F4F10D2-8254-4335-A627-9F8D8891324D";
layerId = "FFB98EB9-09D2-47C8-A383-23584B986005";
name = path;
paths = (
{
closed = 0;
nodes = (
"20 700 LINE",
"539 700 LINE"
);
},
{
closed = 0;
nodes = (
"282 0 LINE",
"282 700 LINE"
);
}
);
visible = 1;
width = 633;
},
{
associatedMasterId = "6F4F10D2-8254-4335-A627-9F8D8891324D";
layerId = "9ADBBCD6-56A1-44AC-BA9F-F23A59A4DF23";
name = path;
paths = (
{
closed = 0;
nodes = (
"20 800 LINE",
"613 800 LINE"
);
},
{
closed = 0;
nodes = (
"319 0 LINE",
"319 800 LINE"
);
}
);
width = 633;
}
);
unicode = 0054;
},
{
glyphname = U;
lastChange = "2019-01-25 15:48:55 +0000";
layers = (
{
layerId = "6F4F10D2-8254-4335-A627-9F8D8891324D";
paths = (
{
closed = 1;
nodes = (
"464 -45 OFFCURVE",
"568 58 OFFCURVE",
"568 224 CURVE SMOOTH",
"568 700 LINE SMOOTH",
"568 725 OFFCURVE",
"548 745 OFFCURVE",
"523 745 CURVE SMOOTH",
"498 745 OFFCURVE",
"478 725 OFFCURVE",
"478 700 CURVE SMOOTH",
"478 224 LINE SMOOTH",
"478 108 OFFCURVE",
"415 45 OFFCURVE",
"299 45 CURVE SMOOTH",
"184 45 OFFCURVE",
"120 108 OFFCURVE",
"120 224 CURVE SMOOTH",
"120 700 LINE SMOOTH",
"120 725 OFFCURVE",
"100 745 OFFCURVE",
"75 745 CURVE SMOOTH",
"50 745 OFFCURVE",
"30 725 OFFCURVE",
"30 700 CURVE SMOOTH",
"30 224 LINE SMOOTH",
"30 58 OFFCURVE",
"134 -45 OFFCURVE",
"299 -45 CURVE SMOOTH"
);
}
);
width = 598;
},
{
associatedMasterId = "6F4F10D2-8254-4335-A627-9F8D8891324D";
layerId = "848500F8-4464-46BF-B7F9-C2ECC4D78F25";
name = path;
paths = (
{
closed = 0;
nodes = (
"468 700 LINE",
"468 224 LINE SMOOTH",
"468 67 OFFCURVE",
"368 0 OFFCURVE",
"244 0 CURVE SMOOTH",
"121 0 OFFCURVE",
"20 67 OFFCURVE",
"20 224 CURVE SMOOTH",
"20 700 LINE"
);
}
);
visible = 1;
width = 552;
},
{
associatedMasterId = "6F4F10D2-8254-4335-A627-9F8D8891324D";
layerId = "8D24600A-F8FF-4701-A007-13A8675B54A6";
name = path;
paths = (
{
closed = 0;
nodes = (
"532 800 LINE",
"532 256 LINE SMOOTH",
"532 77 OFFCURVE",
"418 0 OFFCURVE",
"276 0 CURVE SMOOTH",
"135 0 OFFCURVE",
"20 77 OFFCURVE",
"20 256 CURVE SMOOTH",
"20 800 LINE"
);
}
);
width = 552;
}
);
unicode = 0055;
},
{
glyphname = V;
lastChange = "2019-01-25 15:48:55 +0000";
layers = (
{
layerId = "6F4F10D2-8254-4335-A627-9F8D8891324D";
paths = (
{
closed = 1;
nodes = (
"338 -16 LINE SMOOTH",
"364 -16 OFFCURVE",
"380 -4 OFFCURVE",
"389 20 CURVE SMOOTH",
"635 683 LINE SMOOTH",
"637 689 OFFCURVE",
"638 694 OFFCURVE",
"638 700 CURVE SMOOTH",
"638 725 OFFCURVE",
"618 745 OFFCURVE",
"593 745 CURVE SMOOTH",
"573 745 OFFCURVE",
"557 732 OFFCURVE",
"550 715 CURVE SMOOTH",
"334 130 LINE",
"118 715 LINE SMOOTH",
"111 732 OFFCURVE",
"95 745 OFFCURVE",
"75 745 CURVE SMOOTH",
"50 745 OFFCURVE",
"30 725 OFFCURVE",
"30 700 CURVE SMOOTH",
"30 694 OFFCURVE",
"31 689 OFFCURVE",
"33 683 CURVE SMOOTH",
"279 20 LINE SMOOTH",
"288 -4 OFFCURVE",
"304 -16 OFFCURVE",
"330 -16 CURVE SMOOTH"
);
}
);
width = 668;
},
{
associatedMasterId = "6F4F10D2-8254-4335-A627-9F8D8891324D";
layerId = "E6AF7CDB-8A76-4B13-A4F4-D042B56D95D5";
name = path;
paths = (
{
closed = 0;
nodes = (
"20 700 LINE",
"279 0 LINE",
"538 700 LINE"
);
}
);
visible = 1;
width = 632;
},
{
associatedMasterId = "6F4F10D2-8254-4335-A627-9F8D8891324D";
layerId = "386FACA0-5B50-4576-8C9E-904D0E76537F";
name = path;
paths = (
{
closed = 0;
nodes = (
"20 800 LINE",
"316 0 LINE",
"612 800 LINE"
);
}
);
width = 632;
}
);
unicode = 0056;
},
{
glyphname = W;
lastChange = "2019-01-25 15:48:55 +0000";
layers = (
{
layerId = "6F4F10D2-8254-4335-A627-9F8D8891324D";
paths = (
{
closed = 1;
nodes = (
"322 -15 OFFCURVE",
"339 -4 OFFCURVE",
"348 21 CURVE SMOOTH",
"509 464 LINE",
"670 21 LINE SMOOTH",
"679 -4 OFFCURVE",
"696 -15 OFFCURVE",
"722 -14 CURVE SMOOTH",
"730 -14 LINE SMOOTH",
"757 -14 OFFCURVE",
"773 -1 OFFCURVE",
"780 24 CURVE SMOOTH",
"986 686 LINE SMOOTH",
"987 690 OFFCURVE",
"988 695 OFFCURVE",
"988 700 CURVE SMOOTH",
"988 725 OFFCURVE",
"968 745 OFFCURVE",
"943 745 CURVE SMOOTH",
"922 745 OFFCURVE",
"905 731 OFFCURVE",
"900 712 CURVE SMOOTH",
"723 141 LINE",
"564 574 LINE SMOOTH",
"555 599 OFFCURVE",
"539 610 OFFCURVE",
"513 610 CURVE SMOOTH",
"505 610 LINE SMOOTH",
"479 610 OFFCURVE",
"463 599 OFFCURVE",
"454 574 CURVE SMOOTH",
"295 141 LINE",
"118 712 LINE SMOOTH",
"113 731 OFFCURVE",
"96 745 OFFCURVE",
"75 745 CURVE SMOOTH",
"50 745 OFFCURVE",
"30 725 OFFCURVE",
"30 700 CURVE SMOOTH",
"30 695 OFFCURVE",
"31 690 OFFCURVE",
"32 686 CURVE SMOOTH",
"238 24 LINE SMOOTH",
"245 -1 OFFCURVE",
"261 -14 OFFCURVE",
"288 -14 CURVE SMOOTH",
"296 -14 LINE SMOOTH"
);
}
);
width = 1018;
},
{
associatedMasterId = "6F4F10D2-8254-4335-A627-9F8D8891324D";
layerId = "295B7420-E1EE-4D34-A2D9-D878D5D7A03F";
name = path;
paths = (
{
closed = 0;
nodes = (
"20 700 LINE",
"237 0 LINE",
"454 595 LINE",
"671 0 LINE",
"888 700 LINE"
);
}
);
visible = 1;
width = 1032;
},
{
associatedMasterId = "6F4F10D2-8254-4335-A627-9F8D8891324D";
layerId = "D1D3015B-6061-4D31-8DE6-07B69ADB8AE0";
name = path;
paths = (
{
closed = 0;
nodes = (
"20 800 LINE",
"268 0 LINE",
"516 680 LINE",
"764 0 LINE",
"1012 800 LINE"
);
}
);
width = 1032;
}
);
unicode = 0057;
},
{
glyphname = X;
lastChange = "2019-01-25 15:48:55 +0000";
layers = (
{
layerId = "6F4F10D2-8254-4335-A627-9F8D8891324D";
paths = (
{
closed = 1;
nodes = (
"90 -45 OFFCURVE",
"103 -38 OFFCURVE",
"111 -26 CURVE SMOOTH",
"334 274 LINE",
"557 -26 LINE SMOOTH",
"565 -38 OFFCURVE",
"578 -45 OFFCURVE",
"593 -45 CURVE SMOOTH",
"618 -45 OFFCURVE",
"638 -25 OFFCURVE",
"638 0 CURVE SMOOTH",
"638 10 OFFCURVE",
"635 20 OFFCURVE",
"629 27 CURVE SMOOTH",
"390 350 LINE",
"629 673 LINE SMOOTH",
"635 680 OFFCURVE",
"638 690 OFFCURVE",
"638 700 CURVE SMOOTH",
"638 725 OFFCURVE",
"618 745 OFFCURVE",
"593 745 CURVE SMOOTH",
"578 745 OFFCURVE",
"565 738 OFFCURVE",
"557 726 CURVE SMOOTH",
"334 426 LINE",
"111 726 LINE SMOOTH",
"103 738 OFFCURVE",
"90 745 OFFCURVE",
"75 745 CURVE SMOOTH",
"50 745 OFFCURVE",
"30 725 OFFCURVE",
"30 700 CURVE SMOOTH",
"30 690 OFFCURVE",
"33 680 OFFCURVE",
"39 673 CURVE SMOOTH",
"278 350 LINE",
"39 27 LINE SMOOTH",
"33 20 OFFCURVE",
"30 10 OFFCURVE",
"30 0 CURVE SMOOTH",
"30 -25 OFFCURVE",
"50 -45 OFFCURVE",
"75 -45 CURVE SMOOTH"
);
}
);
width = 668;
},
{
associatedMasterId = "6F4F10D2-8254-4335-A627-9F8D8891324D";
layerId = "CAFA34F1-9382-4A5C-9473-41DF82FCCCEA";
name = path;
paths = (
{
closed = 0;
nodes = (
"20 700 LINE",
"538 0 LINE"
);
},
{
closed = 0;
nodes = (
"20 0 LINE",
"538 700 LINE"
);
}
);
visible = 1;
width = 632;
},
{
associatedMasterId = "6F4F10D2-8254-4335-A627-9F8D8891324D";
layerId = "C559197E-4E94-4F18-B898-900521D59D85";
name = path;
paths = (
{
closed = 0;
nodes = (
"20 800 LINE",
"612 0 LINE"
);
},
{
closed = 0;
nodes = (
"20 0 LINE",
"612 800 LINE"
);
}
);
width = 632;
}
);
unicode = 0058;
},
{
glyphname = Y;
lastChange = "2019-01-25 15:48:55 +0000";
layers = (
{
layerId = "6F4F10D2-8254-4335-A627-9F8D8891324D";
paths = (
{
closed = 1;
nodes = (
"315 -45 OFFCURVE",
"335 -25 OFFCURVE",
"335 0 CURVE SMOOTH",
"335 317 LINE",
"543 677 LINE SMOOTH",
"547 684 OFFCURVE",
"549 692 OFFCURVE",
"549 700 CURVE SMOOTH",
"549 725 OFFCURVE",
"529 745 OFFCURVE",
"504 745 CURVE SMOOTH",
"487 745 OFFCURVE",
"472 736 OFFCURVE",
"465 722 CURVE SMOOTH",
"290 419 LINE",
"114 722 LINE SMOOTH",
"107 736 OFFCURVE",
"92 745 OFFCURVE",
"75 745 CURVE SMOOTH",
"50 745 OFFCURVE",
"30 725 OFFCURVE",
"30 700 CURVE SMOOTH",
"30 692 OFFCURVE",
"32 684 OFFCURVE",
"36 677 CURVE SMOOTH",
"245 317 LINE",
"245 0 LINE SMOOTH",
"245 -25 OFFCURVE",
"265 -45 OFFCURVE",
"290 -45 CURVE SMOOTH"
);
}
);
width = 579;
},
{
associatedMasterId = "6F4F10D2-8254-4335-A627-9F8D8891324D";
layerId = "859D0C5D-ED0E-4E84-AD74-037CD6AF6B68";
name = path;
paths = (
{
closed = 0;
nodes = (
"20 700 LINE",
"235 329 LINE",
"449 700 LINE"
);
},
{
closed = 0;
nodes = (
"235 0 LINE",
"235 329 LINE"
);
}
);
visible = 1;
width = 530;
},
{
associatedMasterId = "6F4F10D2-8254-4335-A627-9F8D8891324D";
layerId = "1303DFF8-C57C-448C-A5A3-6D7B4E844343";
name = path;
paths = (
{
closed = 0;
nodes = (
"20 800 LINE",
"266 376 LINE",
"510 800 LINE"
);
},
{
closed = 0;
nodes = (
"266 0 LINE",
"266 376 LINE"
);
}
);
width = 530;
}
);
unicode = 0059;
},
{
glyphname = Z;
lastChange = "2019-01-25 15:48:55 +0000";
layers = (
{
layerId = "6F4F10D2-8254-4335-A627-9F8D8891324D";
paths = (
{
closed = 1;
nodes = (
"557 -45 LINE SMOOTH",
"582 -45 OFFCURVE",
"602 -25 OFFCURVE",
"602 0 CURVE SMOOTH",
"602 25 OFFCURVE",
"582 45 OFFCURVE",
"557 45 CURVE SMOOTH",
"161 45 LINE",
"573 645 LINE SMOOTH",
"588 665 OFFCURVE",
"589 684 OFFCURVE",
"577 707 CURVE SMOOTH",
"574 713 LINE SMOOTH",
"562 735 OFFCURVE",
"546 745 OFFCURVE",
"521 745 CURVE SMOOTH",
"75 745 LINE SMOOTH",
"50 745 OFFCURVE",
"30 725 OFFCURVE",
"30 700 CURVE SMOOTH",
"30 675 OFFCURVE",
"50 655 OFFCURVE",
"75 655 CURVE SMOOTH",
"471 655 LINE",
"59 55 LINE SMOOTH",
"44 35 OFFCURVE",
"43 16 OFFCURVE",
"55 -7 CURVE SMOOTH",
"58 -13 LINE SMOOTH",
"70 -35 OFFCURVE",
"86 -45 OFFCURVE",
"111 -45 CURVE SMOOTH"
);
}
);
width = 632;
},
{
associatedMasterId = "6F4F10D2-8254-4335-A627-9F8D8891324D";
layerId = "6700EA1E-D0FA-46D5-B94E-BDEFF808E497";
name = path;
paths = (
{
closed = 0;
nodes = (
"20 700 LINE",
"502 700 LINE",
"20 0 LINE",
"502 0 LINE"
);
}
);
visible = 1;
width = 591;
},
{
associatedMasterId = "6F4F10D2-8254-4335-A627-9F8D8891324D";
layerId = "7522518C-E318-473C-83FE-D7D0DAEC2436";
name = path;
paths = (
{
closed = 0;
nodes = (
"20 800 LINE",
"571 798 LINE",
"20 0 LINE",
"571 0 LINE"
);
}
);
width = 591;
}
);
unicode = 005A;
},
{
color = 1;
glyphname = a;
lastChange = "2018-12-09 15:33:22 +0000";
layers = (
{
layerId = "6F4F10D2-8254-4335-A627-9F8D8891324D";
paths = (
{
closed = 1;
nodes = (
"285 -45 OFFCURVE",
"336 -24 OFFCURVE",
"375 -1 CURVE",
"376 -25 OFFCURVE",
"396 -45 OFFCURVE",
"420 -45 CURVE SMOOTH",
"445 -45 OFFCURVE",
"465 -25 OFFCURVE",
"465 0 CURVE SMOOTH",
"465 341 LINE SMOOTH",
"465 462 OFFCURVE",
"379 545 OFFCURVE",
"252 545 CURVE SMOOTH",
"111 545 OFFCURVE",
"56 456 OFFCURVE",
"52 449 CURVE SMOOTH",
"47 443 OFFCURVE",
"45 435 OFFCURVE",
"45 426 CURVE SMOOTH",
"45 401 OFFCURVE",
"65 381 OFFCURVE",
"90 381 CURVE SMOOTH",
"107 381 OFFCURVE",
"121 390 OFFCURVE",
"129 403 CURVE SMOOTH",
"132 408 OFFCURVE",
"163 455 OFFCURVE",
"252 455 CURVE SMOOTH",
"330 455 OFFCURVE",
"375 412 OFFCURVE",
"375 341 CURVE SMOOTH",
"375 337 LINE",
"332 359 OFFCURVE",
"282 370 OFFCURVE",
"225 370 CURVE SMOOTH",
"115 370 OFFCURVE",
"30 281 OFFCURVE",
"30 169 CURVE SMOOTH",
"30 53 OFFCURVE",
"118 -45 OFFCURVE",
"225 -45 CURVE SMOOTH"
);
},
{
closed = 1;
nodes = (
"168 45 OFFCURVE",
"120 102 OFFCURVE",
"120 169 CURVE SMOOTH",
"120 231 OFFCURVE",
"165 280 OFFCURVE",
"225 280 CURVE SMOOTH",
"290 280 OFFCURVE",
"337 263 OFFCURVE",
"375 228 CURVE",
"375 110 LINE",
"355 92 OFFCURVE",
"298 45 OFFCURVE",
"225 45 CURVE SMOOTH"
);
}
);
visible = 1;
width = 495;
},
{
associatedMasterId = "6F4F10D2-8254-4335-A627-9F8D8891324D";
layerId = "43D7AD1E-C1D3-45E5-B050-3F0288014DFB";
name = path;
paths = (
{
closed = 0;
nodes = (
"360 86 LINE",
"360 86 OFFCURVE",
"280 0 OFFCURVE",
"170 0 CURVE SMOOTH",
"60 0 OFFCURVE",
"20 99 OFFCURVE",
"20 169 CURVE SMOOTH",
"20 239 OFFCURVE",
"60 325 OFFCURVE",
"170 325 CURVE SMOOTH",
"280 325 OFFCURVE",
"333 280 OFFCURVE",
"360 252 CURVE"
);
},
{
closed = 0;
nodes = (
"35 426 LINE",
"35 426 OFFCURVE",
"79 500 OFFCURVE",
"197 500 CURVE SMOOTH",
"273 500 OFFCURVE",
"365 479 OFFCURVE",
"365 341 CURVE SMOOTH",
"365 0 LINE"
);
}
);
visible = 1;
width = 385;
},
{
associatedMasterId = "6F4F10D2-8254-4335-A627-9F8D8891324D";
layerId = "4703775F-500B-4E68-97CE-1D4396889A79";
name = path;
paths = (
{
closed = 0;
nodes = (
"361 86 LINE",
"361 86 OFFCURVE",
"258 0 OFFCURVE",
"166 0 CURVE SMOOTH",
"71 0 OFFCURVE",
"20 83 OFFCURVE",
"20 169 CURVE SMOOTH",
"20 237 OFFCURVE",
"72 326 OFFCURVE",
"173 326 CURVE SMOOTH",
"315 326 OFFCURVE",
"336 280 OFFCURVE",
"363 252 CURVE"
);
},
{
closed = 0;
nodes = (
"35 426 LINE",
"35 426 OFFCURVE",
"85 500 OFFCURVE",
"177 500 CURVE SMOOTH",
"270 500 OFFCURVE",
"365 479 OFFCURVE",
"365 341 CURVE SMOOTH",
"365 0 LINE"
);
}
);
width = 385;
},
{
associatedMasterId = "6F4F10D2-8254-4335-A627-9F8D8891324D";
layerId = "66BBD968-24C5-4053-8690-69E8429243B3";
name = "Oct 5 18, 17:18";
paths = (
{
closed = 0;
nodes = (
"360 86 LINE",
"360 86 OFFCURVE",
"280 0 OFFCURVE",
"170 0 CURVE SMOOTH",
"70 0 OFFCURVE",
"20 100 OFFCURVE",
"20 169 CURVE SMOOTH",
"20 239 OFFCURVE",
"70 325 OFFCURVE",
"170 325 CURVE SMOOTH",
"280 325 OFFCURVE",
"333 280 OFFCURVE",
"360 252 CURVE"
);
},
{
closed = 0;
nodes = (
"35 426 LINE",
"35 426 OFFCURVE",
"77 500 OFFCURVE",
"197 500 CURVE SMOOTH",
"317 500 OFFCURVE",
"365 419 OFFCURVE",
"365 341 CURVE SMOOTH",
"365 0 LINE"
);
}
);
width = 385;
}
);
unicode = 0061;
},
{
glyphname = b;
lastChange = "2019-01-25 15:48:55 +0000";
layers = (
{
layerId = "6F4F10D2-8254-4335-A627-9F8D8891324D";
paths = (
{
closed = 1;
nodes = (
"94 -45 OFFCURVE",
"110 -34 OFFCURVE",
"116 -18 CURVE",
"146 -33 OFFCURVE",
"186 -45 OFFCURVE",
"235 -45 CURVE SMOOTH",
"370 -45 OFFCURVE",
"470 83 OFFCURVE",
"470 250 CURVE SMOOTH",
"470 417 OFFCURVE",
"370 545 OFFCURVE",
"235 545 CURVE SMOOTH",
"191 545 OFFCURVE",
"153 538 OFFCURVE",
"120 522 CURVE",
"120 700 LINE SMOOTH",
"120 725 OFFCURVE",
"100 745 OFFCURVE",
"75 745 CURVE SMOOTH",
"50 745 OFFCURVE",
"30 725 OFFCURVE",
"30 700 CURVE SMOOTH",
"30 0 LINE SMOOTH",
"30 -25 OFFCURVE",
"50 -45 OFFCURVE",
"75 -45 CURVE SMOOTH"
);
},
{
closed = 1;
nodes = (
"169 45 OFFCURVE",
"134 75 OFFCURVE",
"120 90 CURVE",
"120 411 LINE",
"144 441 OFFCURVE",
"180 455 OFFCURVE",
"235 455 CURVE SMOOTH",
"318 455 OFFCURVE",
"380 368 OFFCURVE",
"380 250 CURVE SMOOTH",
"380 132 OFFCURVE",
"318 45 OFFCURVE",
"235 45 CURVE SMOOTH"
);
}
);
width = 500;
},
{
associatedMasterId = "6F4F10D2-8254-4335-A627-9F8D8891324D";
layerId = "6580A50B-65CF-421A-8603-6C13D53647D6";
name = path;
paths = (
{
closed = 0;
nodes = (
"0 700 LINE",
"0 0 LINE"
);
},
{
closed = 0;
nodes = (
"0 425 LINE",
"10 441 OFFCURVE",
"45 500 OFFCURVE",
"160 500 CURVE SMOOTH",
"275 500 OFFCURVE",
"350 385 OFFCURVE",
"350 250 CURVE SMOOTH",
"350 115 OFFCURVE",
"275 0 OFFCURVE",
"160 0 CURVE SMOOTH",
"45 0 OFFCURVE",
"0 75 OFFCURVE",
"0 75 CURVE"
);
}
);
visible = 1;
width = 390;
},
{
associatedMasterId = "6F4F10D2-8254-4335-A627-9F8D8891324D";
layerId = "B0C38169-4A47-48D1-BCB7-D1D8A8532B1D";
name = path;
paths = (
{
closed = 0;
nodes = (
"20 700 LINE",
"20 0 LINE"
);
},
{
closed = 0;
nodes = (
"26 74 LINE",
"26 74 OFFCURVE",
"61 0 OFFCURVE",
"177 0 CURVE SMOOTH",
"295 0 OFFCURVE",
"370 84 OFFCURVE",
"370 251 CURVE SMOOTH",
"370 351 OFFCURVE",
"295 500 OFFCURVE",
"177 500 CURVE SMOOTH",
"61 500 OFFCURVE",
"26 426 OFFCURVE",
"26 426 CURVE"
);
}
);
width = 390;
},
{
associatedMasterId = "6F4F10D2-8254-4335-A627-9F8D8891324D";
layerId = "BC44C5E3-E52A-4D53-8C12-61F787413D29";
name = "Nov 5 18, 12:55";
paths = (
{
closed = 0;
nodes = (
"0 700 LINE",
"0 0 LINE"
);
},
{
closed = 0;
nodes = (
"0 425 LINE",
"-6 425 OFFCURVE",
"45 500 OFFCURVE",
"160 500 CURVE SMOOTH",
"275 500 OFFCURVE",
"350 385 OFFCURVE",
"350 250 CURVE SMOOTH",
"350 115 OFFCURVE",
"275 0 OFFCURVE",
"160 0 CURVE SMOOTH",
"45 0 OFFCURVE",
"0 75 OFFCURVE",
"0 75 CURVE"
);
}
);
width = 390;
}
);
unicode = 0062;
},
{
color = 1;
glyphname = c;
lastChange = "2019-01-25 15:48:55 +0000";
layers = (
{
layerId = "6F4F10D2-8254-4335-A627-9F8D8891324D";
paths = (
{
closed = 1;
nodes = (
"354 -45 OFFCURVE",
"419 -17 OFFCURVE",
"464 33 CURVE SMOOTH",
"471 41 OFFCURVE",
"475 52 OFFCURVE",
"475 63 CURVE SMOOTH",
"475 88 OFFCURVE",
"455 108 OFFCURVE",
"430 108 CURVE SMOOTH",
"417 108 OFFCURVE",
"405 102 OFFCURVE",
"396 93 CURVE SMOOTH",
"368 61 OFFCURVE",
"330 45 OFFCURVE",
"281 45 CURVE SMOOTH",
"179 45 OFFCURVE",
"120 118 OFFCURVE",
"120 250 CURVE SMOOTH",
"120 382 OFFCURVE",
"178 455 OFFCURVE",
"281 455 CURVE SMOOTH",
"330 455 OFFCURVE",
"368 439 OFFCURVE",
"396 407 CURVE SMOOTH",
"405 398 OFFCURVE",
"417 392 OFFCURVE",
"430 392 CURVE SMOOTH",
"455 392 OFFCURVE",
"475 412 OFFCURVE",
"475 437 CURVE SMOOTH",
"475 448 OFFCURVE",
"471 459 OFFCURVE",
"464 467 CURVE SMOOTH",
"419 517 OFFCURVE",
"354 545 OFFCURVE",
"281 545 CURVE SMOOTH",
"126 545 OFFCURVE",
"30 431 OFFCURVE",
"30 250 CURVE SMOOTH",
"30 69 OFFCURVE",
"127 -45 OFFCURVE",
"281 -45 CURVE SMOOTH"
);
}
);
width = 505;
},
{
associatedMasterId = "6F4F10D2-8254-4335-A627-9F8D8891324D";
layerId = "55BE9E8F-BB2C-4165-A12C-9EEFC24186A1";
name = path;
paths = (
{
closed = 0;
nodes = (
"376 426 LINE",
"376 426 OFFCURVE",
"351 500 OFFCURVE",
"214 500 CURVE SMOOTH",
"71 500 OFFCURVE",
"20 354 OFFCURVE",
"20 251 CURVE SMOOTH",
"20 136 OFFCURVE",
"71 0 OFFCURVE",
"214 0 CURVE SMOOTH",
"279 0 OFFCURVE",
"324 26 OFFCURVE",
"350 48 CURVE"
);
}
);
visible = 1;
width = 539;
},
{
associatedMasterId = "6F4F10D2-8254-4335-A627-9F8D8891324D";
layerId = "704B01B4-7E6C-4A1C-8B5B-CFE678337C9D";
name = path;
paths = (
{
closed = 0;
nodes = (
"356 384 LINE",
"376 426 LINE",
"376 426 OFFCURVE",
"351 500 OFFCURVE",
"214 500 CURVE SMOOTH",
"71 500 OFFCURVE",
"20 354 OFFCURVE",
"20 251 CURVE SMOOTH",
"20 136 OFFCURVE",
"71 0 OFFCURVE",
"214 0 CURVE SMOOTH",
"279 0 OFFCURVE",
"324 26 OFFCURVE",
"350 48 CURVE"
);
}
);
width = 539;
},
{
associatedMasterId = "6F4F10D2-8254-4335-A627-9F8D8891324D";
layerId = "9F12E5BB-ED97-4C17-B273-5B8D2CD19874";
name = "Oct 5 18, 17:32";
paths = (
{
closed = 0;
nodes = (
"375 437 LINE",
"337 480 OFFCURVE",
"284 500 OFFCURVE",
"226 500 CURVE SMOOTH",
"112 500 OFFCURVE",
"20 424 OFFCURVE",
"20 250 CURVE SMOOTH",
"20 77 OFFCURVE",
"112 0 OFFCURVE",
"226 0 CURVE SMOOTH",
"284 0 OFFCURVE",
"337 20 OFFCURVE",
"375 63 CURVE"
);
},
{
closed = 0;
nodes = (
"375 63 LINE"
);
}
);
width = 539;
}
);
unicode = 0063;
},
{
glyphname = d;
lastChange = "2019-01-25 15:48:55 +0000";
layers = (
{
layerId = "6F4F10D2-8254-4335-A627-9F8D8891324D";
paths = (
{
closed = 1;
nodes = (
"314 -45 OFFCURVE",
"354 -33 OFFCURVE",
"384 -18 CURVE",
"390 -34 OFFCURVE",
"406 -45 OFFCURVE",
"425 -45 CURVE SMOOTH",
"450 -45 OFFCURVE",
"470 -25 OFFCURVE",
"470 0 CURVE SMOOTH",
"470 700 LINE SMOOTH",
"470 725 OFFCURVE",
"450 745 OFFCURVE",
"425 745 CURVE SMOOTH",
"400 745 OFFCURVE",
"380 725 OFFCURVE",
"380 700 CURVE SMOOTH",
"380 522 LINE",
"347 537 OFFCURVE",
"308 545 OFFCURVE",
"265 545 CURVE SMOOTH",
"130 545 OFFCURVE",
"30 417 OFFCURVE",
"30 250 CURVE SMOOTH",
"30 83 OFFCURVE",
"130 -45 OFFCURVE",
"265 -45 CURVE SMOOTH"
);
},
{
closed = 1;
nodes = (
"182 45 OFFCURVE",
"120 132 OFFCURVE",
"120 250 CURVE SMOOTH",
"120 368 OFFCURVE",
"182 455 OFFCURVE",
"265 455 CURVE SMOOTH",
"317 455 OFFCURVE",
"360 439 OFFCURVE",
"380 412 CURVE",
"380 90 LINE",
"366 75 OFFCURVE",
"331 45 OFFCURVE",
"265 45 CURVE SMOOTH"
);
}
);
width = 500;
},
{
associatedMasterId = "6F4F10D2-8254-4335-A627-9F8D8891324D";
layerId = "2EFAD946-830C-44B4-9E38-D6E001DC48C5";
name = path;
paths = (
{
closed = 0;
nodes = (
"350 700 LINE",
"350 0 LINE"
);
},
{
closed = 0;
nodes = (
"350 75 LINE",
"350 75 OFFCURVE",
"305 0 OFFCURVE",
"190 0 CURVE SMOOTH",
"75 0 OFFCURVE",
"0 115 OFFCURVE",
"0 250 CURVE SMOOTH",
"0 385 OFFCURVE",
"75 500 OFFCURVE",
"190 500 CURVE SMOOTH",
"305 500 OFFCURVE",
"340 441 OFFCURVE",
"350 425 CURVE"
);
}
);
visible = 1;
width = 350;
}
);
unicode = 0064;
},
{
color = 1;
glyphname = e;
lastChange = "2019-01-25 15:48:54 +0000";
layers = (
{
layerId = "6F4F10D2-8254-4335-A627-9F8D8891324D";
paths = (
{
closed = 1;
nodes = (
"397 -45 OFFCURVE",
"485 22 OFFCURVE",
"518 136 CURVE SMOOTH",
"519 140 OFFCURVE",
"520 144 OFFCURVE",
"520 149 CURVE SMOOTH",
"520 174 OFFCURVE",
"500 194 OFFCURVE",
"475 194 CURVE SMOOTH",
"454 194 OFFCURVE",
"437 180 OFFCURVE",
"431 160 CURVE SMOOTH",
"410 85 OFFCURVE",
"357 45 OFFCURVE",
"281 45 CURVE SMOOTH",
"180 45 OFFCURVE",
"121 116 OFFCURVE",
"120 245 CURVE",
"453 245 LINE SMOOTH",
"476 245 OFFCURVE",
"493 252 OFFCURVE",
"508 269 CURVE SMOOTH",
"524 287 OFFCURVE",
"530 304 OFFCURVE",
"526 327 CURVE SMOOTH",
"524 339 OFFCURVE",
"522 351 OFFCURVE",
"519 364 CURVE SMOOTH",
"518 366 LINE SMOOTH",
"485 478 OFFCURVE",
"397 545 OFFCURVE",
"281 545 CURVE SMOOTH",
"126 545 OFFCURVE",
"30 431 OFFCURVE",
"30 250 CURVE SMOOTH",
"30 69 OFFCURVE",
"127 -45 OFFCURVE",
"281 -45 CURVE SMOOTH"
);
},
{
closed = 1;
nodes = (
"151 413 OFFCURVE",
"203 455 OFFCURVE",
"281 455 CURVE SMOOTH",
"357 455 OFFCURVE",
"409 415 OFFCURVE",
"432 341 CURVE",
"432 339 OFFCURVE",
"433 337 OFFCURVE",
"433 335 CURVE",
"130 335 LINE"
);
}
);
width = 557;
},
{
associatedMasterId = "6F4F10D2-8254-4335-A627-9F8D8891324D";
layerId = "FF7947BE-F7C1-4CFD-BDCB-A1964E48B8AF";
name = path;
paths = (
{
closed = 0;
nodes = (
"20 250 LINE",
"394 250 LINE",
"394 250 OFFCURVE",
"419 500 OFFCURVE",
"215 500 CURVE SMOOTH",
"72 500 OFFCURVE",
"20 354 OFFCURVE",
"20 250 CURVE SMOOTH",
"20 136 OFFCURVE",
"72 0 OFFCURVE",
"215 0 CURVE SMOOTH",
"279 0 OFFCURVE",
"324 27 OFFCURVE",
"350 48 CURVE"
);
}
);
width = 409;
},
{
associatedMasterId = "6F4F10D2-8254-4335-A627-9F8D8891324D";
layerId = "D4D4B3CF-4954-4027-A2B2-6D1686C3396A";
name = path;
paths = (
{
closed = 0;
nodes = (
"20 250 LINE",
"394 250 LINE",
"394 250 OFFCURVE",
"419 500 OFFCURVE",
"215 500 CURVE SMOOTH",
"72 500 OFFCURVE",
"20 354 OFFCURVE",
"20 250 CURVE SMOOTH",
"20 136 OFFCURVE",
"72 0 OFFCURVE",
"215 0 CURVE SMOOTH",
"279 0 OFFCURVE",
"324 27 OFFCURVE",
"350 48 CURVE"
);
}
);
width = 409;
},
{
associatedMasterId = "6F4F10D2-8254-4335-A627-9F8D8891324D";
guideLines = (
{
angle = 90;
position = "{420, 353}";
}
);
layerId = "6A9582F4-809D-4E33-9BD5-86EAA7BB2A53";
name = "Oct 5 18, 17:21";
paths = (
{
closed = 0;
nodes = (
"420 149 LINE",
"391 47 OFFCURVE",
"315 0 OFFCURVE",
"226 0 CURVE SMOOTH",
"112 0 OFFCURVE",
"20 77 OFFCURVE",
"20 250 CURVE SMOOTH",
"20 424 OFFCURVE",
"112 500 OFFCURVE",
"226 500 CURVE SMOOTH",
"314 500 OFFCURVE",
"390 454 OFFCURVE",
"420 353 CURVE SMOOTH",
"425 333 OFFCURVE",
"429 312 OFFCURVE",
"431 290 CURVE",
"30 290 LINE"
);
}
);
visible = 1;
width = 409;
}
);
unicode = 0065;
},
{
color = 1;
glyphname = f;
lastChange = "2019-01-25 15:48:55 +0000";
layers = (
{
layerId = "6F4F10D2-8254-4335-A627-9F8D8891324D";
paths = (
{
closed = 1;
nodes = (
"100 -45 OFFCURVE",
"120 -25 OFFCURVE",
"120 0 CURVE SMOOTH",
"120 373 LINE",
"257 373 LINE SMOOTH",
"282 373 OFFCURVE",
"302 393 OFFCURVE",
"302 418 CURVE SMOOTH",
"302 443 OFFCURVE",
"282 463 OFFCURVE",
"257 463 CURVE SMOOTH",
"120 463 LINE",
"120 524 LINE SMOOTH",
"120 630 OFFCURVE",
"130 655 OFFCURVE",
"181 655 CURVE SMOOTH",
"215 655 OFFCURVE",
"237 647 OFFCURVE",
"256 631 CURVE SMOOTH",
"264 623 OFFCURVE",
"274 619 OFFCURVE",
"286 619 CURVE SMOOTH",
"311 619 OFFCURVE",
"331 639 OFFCURVE",
"331 664 CURVE SMOOTH",
"331 677 OFFCURVE",
"325 689 OFFCURVE",
"316 697 CURVE SMOOTH",
"282 729 OFFCURVE",
"235 745 OFFCURVE",
"181 745 CURVE SMOOTH",
"26 745 OFFCURVE",
"30 596 OFFCURVE",
"30 524 CURVE SMOOTH",
"30 0 LINE SMOOTH",
"30 -25 OFFCURVE",
"50 -45 OFFCURVE",
"75 -45 CURVE SMOOTH"
);
}
);
width = 361;
},
{
associatedMasterId = "6F4F10D2-8254-4335-A627-9F8D8891324D";
layerId = "E1DFB8B1-65CC-4325-9AE0-F0FCE1FB997A";
name = path;
paths = (
{
closed = 0;
nodes = (
"202 418 LINE",
"27 418 LINE"
);
},
{
closed = 0;
nodes = (
"20 0 LINE",
"20 0 OFFCURVE",
"20 279 OFFCURVE",
"20 421 CURVE SMOOTH",
"20 524 LINE SMOOTH",
"20 597 OFFCURVE",
"17 700 OFFCURVE",
"126 700 CURVE SMOOTH",
"175 700 OFFCURVE",
"208 685 OFFCURVE",
"231 664 CURVE"
);
}
);
visible = 1;
width = 251;
},
{
associatedMasterId = "6F4F10D2-8254-4335-A627-9F8D8891324D";
layerId = "C318330C-ACE9-4D95-A5F6-9B2412CE266B";
name = path;
paths = (
{
closed = 0;
nodes = (
"202 418 LINE",
"27 418 LINE"
);
},
{
closed = 0;
nodes = (
"20 0 LINE",
"20 0 OFFCURVE",
"20 279 OFFCURVE",
"20 421 CURVE SMOOTH",
"20 524 LINE SMOOTH",
"20 597 OFFCURVE",
"17 700 OFFCURVE",
"126 700 CURVE SMOOTH",
"175 700 OFFCURVE",
"208 685 OFFCURVE",
"231 664 CURVE"
);
}
);
width = 251;
}
);
unicode = 0066;
},
{
glyphname = g;
lastChange = "2019-01-25 15:48:55 +0000";
layers = (
{
layerId = "6F4F10D2-8254-4335-A627-9F8D8891324D";
paths = (
{
closed = 1;
nodes = (
"381 -245 OFFCURVE",
"470 -157 OFFCURVE",
"470 -30 CURVE SMOOTH",
"470 500 LINE SMOOTH",
"470 525 OFFCURVE",
"450 545 OFFCURVE",
"425 545 CURVE SMOOTH",
"406 545 OFFCURVE",
"390 534 OFFCURVE",
"384 518 CURVE",
"354 533 OFFCURVE",
"314 545 OFFCURVE",
"265 545 CURVE SMOOTH",
"130 545 OFFCURVE",
"30 417 OFFCURVE",
"30 250 CURVE SMOOTH",
"30 83 OFFCURVE",
"130 -45 OFFCURVE",
"265 -45 CURVE SMOOTH",
"309 -45 OFFCURVE",
"347 -38 OFFCURVE",
"380 -22 CURVE",
"380 -30 LINE SMOOTH",
"380 -107 OFFCURVE",
"331 -155 OFFCURVE",
"253 -155 CURVE SMOOTH",
"172 -155 OFFCURVE",
"120 -105 OFFCURVE",
"120 -30 CURVE SMOOTH",
"120 -5 OFFCURVE",
"100 15 OFFCURVE",
"75 15 CURVE SMOOTH",
"50 15 OFFCURVE",
"30 -5 OFFCURVE",
"30 -30 CURVE SMOOTH",
"30 -155 OFFCURVE",
"123 -245 OFFCURVE",
"253 -245 CURVE SMOOTH"
);
},
{
closed = 1;
nodes = (
"182 45 OFFCURVE",
"120 132 OFFCURVE",
"120 250 CURVE SMOOTH",
"120 368 OFFCURVE",
"182 455 OFFCURVE",
"265 455 CURVE SMOOTH",
"331 455 OFFCURVE",
"366 425 OFFCURVE",
"380 410 CURVE",
"380 89 LINE",
"356 59 OFFCURVE",
"320 45 OFFCURVE",
"265 45 CURVE SMOOTH"
);
}
);
width = 500;
},
{
associatedMasterId = "6F4F10D2-8254-4335-A627-9F8D8891324D";
layerId = "9698DB69-C01F-41DE-8F34-79EB3B12F7C2";
name = path;
paths = (
{
closed = 0;
nodes = (
"370 500 LINE",
"370 -30 LINE",
"370 -120 OFFCURVE",
"313 -200 OFFCURVE",
"198 -200 CURVE SMOOTH",
"83 -200 OFFCURVE",
"20 -120 OFFCURVE",
"20 -30 CURVE SMOOTH"
);
},
{
closed = 0;
nodes = (
"370 75 LINE",
"360 59 OFFCURVE",
"325 0 OFFCURVE",
"210 0 CURVE SMOOTH",
"95 0 OFFCURVE",
"20 115 OFFCURVE",
"20 250 CURVE SMOOTH",
"20 385 OFFCURVE",
"95 500 OFFCURVE",
"210 500 CURVE SMOOTH",
"325 500 OFFCURVE",
"370 425 OFFCURVE",
"370 425 CURVE"
);
}
);
visible = 1;
width = 386;
}
);
unicode = 0067;
},
{
color = 1;
glyphname = h;
lastChange = "2019-01-25 15:48:54 +0000";
layers = (
{
associatedMasterId = "6F4F10D2-8254-4335-A627-9F8D8891324D";
layerId = "5131BE62-B943-4723-810F-DCD50F33B664";
name = path;
paths = (
{
closed = 0;
nodes = (
"0.354 0 LINE",
"0 700 LINE"
);
},
{
closed = 0;
nodes = (
"3 397 LINE",
"3 397 OFFCURVE",
"66 500 OFFCURVE",
"171 500 CURVE",
"294 500 OFFCURVE",
"336 458 OFFCURVE",
"336 400 CURVE",
"336 333 OFFCURVE",
"336 0 OFFCURVE",
"336 0 CURVE"
);
}
);
width = 600;
},
{
associatedMasterId = "6F4F10D2-8254-4335-A627-9F8D8891324D";
layerId = "5B91E27D-8A62-4757-90C0-9F6F30B0B6D8";
name = "Oct 5 18, 13:32";
paths = (
{
closed = 1;
nodes = (
"11.4 -20 OFFCURVE",
"20.354 -11.046 OFFCURVE",
"20.354 0 CURVE",
"20.158 386.718 LINE",
"24.181 393.093 OFFCURVE",
"80.653 480 OFFCURVE",
"171 480 CURVE SMOOTH",
"270.776 480 OFFCURVE",
"316 453.231 OFFCURVE",
"316 400 CURVE SMOOTH",
"316 0 LINE SMOOTH",
"316 -11.046 OFFCURVE",
"324.954 -20 OFFCURVE",
"336 -20 CURVE SMOOTH",
"347.046 -20 OFFCURVE",
"356 -11.046 OFFCURVE",
"356 0 CURVE SMOOTH",
"356 400 LINE SMOOTH",
"356 479.434 OFFCURVE",
"291.431 520 OFFCURVE",
"171 520 CURVE SMOOTH",
"103.065 520 OFFCURVE",
"51.361 481.608 OFFCURVE",
"20.127 449.709 CURVE",
"20 700.01 LINE SMOOTH",
"19.994 711.051 OFFCURVE",
"11.043 720 OFFCURVE",
"0 720 CURVE SMOOTH",
"-11.046 720 OFFCURVE",
"-20 711.046 OFFCURVE",
"-20 700 CURVE SMOOTH",
"-19.646 -0.01 LINE SMOOTH",
"-19.64 -11.051 OFFCURVE",
"-10.689 -20 OFFCURVE",
"0.354 -20 CURVE SMOOTH"
);
}
);
width = 600;
},
{
layerId = "6F4F10D2-8254-4335-A627-9F8D8891324D";
paths = (
{
closed = 1;
nodes = (
"430 -45 OFFCURVE",
"450 -25 OFFCURVE",
"450 0 CURVE SMOOTH",
"450 370 LINE SMOOTH",
"450 474 OFFCURVE",
"365 545 OFFCURVE",
"240 545 CURVE SMOOTH",
"194 545 OFFCURVE",
"153 535 OFFCURVE",
"120 518 CURVE",
"120 700 LINE SMOOTH",
"120 725 OFFCURVE",
"100 745 OFFCURVE",
"75 745 CURVE SMOOTH",
"50 745 OFFCURVE",
"30 725 OFFCURVE",
"30 700 CURVE SMOOTH",
"30 0 LINE SMOOTH",
"30 -29 OFFCURVE",
"46 -45 OFFCURVE",
"75 -45 CURVE SMOOTH",
"104 -45 OFFCURVE",
"120 -29 OFFCURVE",
"120 0 CURVE SMOOTH",
"120 370 LINE SMOOTH",
"120 422 OFFCURVE",
"165 455 OFFCURVE",
"240 455 CURVE SMOOTH",
"316 455 OFFCURVE",
"360 422 OFFCURVE",
"360 370 CURVE SMOOTH",
"360 0 LINE SMOOTH",
"360 -25 OFFCURVE",
"380 -45 OFFCURVE",
"405 -45 CURVE SMOOTH"
);
}
);
visible = 1;
width = 480;
},
{
associatedMasterId = "6F4F10D2-8254-4335-A627-9F8D8891324D";
layerId = "5094BE9F-D049-482C-A719-C94CCDA7C24D";
name = path;
paths = (
{
closed = 0;
nodes = (
"0.354 0 LINE",
"0 700 LINE"
);
},
{
closed = 0;
nodes = (
"3 397 LINE",
"3 397 OFFCURVE",
"66 500 OFFCURVE",
"171 500 CURVE",
"294 500 OFFCURVE",
"336 458 OFFCURVE",
"336 400 CURVE",
"336 333 OFFCURVE",
"336 0 OFFCURVE",
"336 0 CURVE"
);
}
);
width = 600;
},
{
associatedMasterId = "6F4F10D2-8254-4335-A627-9F8D8891324D";
layerId = "720342CA-F558-45B2-9D2C-62F418710A28";
name = "Oct 5 18, 13:32";
paths = (
{
closed = 1;
nodes = (
"11.4 -20 OFFCURVE",
"20.354 -11.046 OFFCURVE",
"20.354 0 CURVE",
"20.158 386.718 LINE",
"24.181 393.093 OFFCURVE",
"80.653 480 OFFCURVE",
"171 480 CURVE SMOOTH",
"270.776 480 OFFCURVE",
"316 453.231 OFFCURVE",
"316 400 CURVE SMOOTH",
"316 0 LINE SMOOTH",
"316 -11.046 OFFCURVE",
"324.954 -20 OFFCURVE",
"336 -20 CURVE SMOOTH",
"347.046 -20 OFFCURVE",
"356 -11.046 OFFCURVE",
"356 0 CURVE SMOOTH",
"356 400 LINE SMOOTH",
"356 479.434 OFFCURVE",
"291.431 520 OFFCURVE",
"171 520 CURVE SMOOTH",
"103.065 520 OFFCURVE",
"51.361 481.608 OFFCURVE",
"20.127 449.709 CURVE",
"20 700.01 LINE SMOOTH",
"19.994 711.051 OFFCURVE",
"11.043 720 OFFCURVE",
"0 720 CURVE SMOOTH",
"-11.046 720 OFFCURVE",
"-20 711.046 OFFCURVE",
"-20 700 CURVE SMOOTH",
"-19.646 -0.01 LINE SMOOTH",
"-19.64 -11.051 OFFCURVE",
"-10.689 -20 OFFCURVE",
"0.354 -20 CURVE SMOOTH"
);
}
);
width = 600;
}
);
unicode = 0068;
},
{
glyphname = i;
lastChange = "2019-01-25 15:48:55 +0000";
layers = (
{
layerId = "6F4F10D2-8254-4335-A627-9F8D8891324D";
paths = (
{
closed = 1;
nodes = (
"100 -45 OFFCURVE",
"120 -25 OFFCURVE",
"120 0 CURVE SMOOTH",
"120 500 LINE SMOOTH",
"120 525 OFFCURVE",
"100 545 OFFCURVE",
"75 545 CURVE SMOOTH",
"50 545 OFFCURVE",
"30 525 OFFCURVE",
"30 500 CURVE SMOOTH",
"30 0 LINE SMOOTH",
"30 -25 OFFCURVE",
"50 -45 OFFCURVE",
"75 -45 CURVE SMOOTH"
);
}
);
width = 150;
},
{
associatedMasterId = "6F4F10D2-8254-4335-A627-9F8D8891324D";
layerId = "3966C843-B7D4-4C34-B8AF-CEDBBC2568F4";
name = path;
paths = (
{
closed = 0;
nodes = (
"20 0 LINE",
"20 500 LINE"
);
},
{
closed = 0;
nodes = (
"20 667 LINE"
);
}
);
width = 40;
},
{
associatedMasterId = "6F4F10D2-8254-4335-A627-9F8D8891324D";
layerId = "2FD5FCC1-80F4-4036-BCC6-7242C1494DEC";
name = path;
paths = (
{
closed = 0;
nodes = (
"20 0 LINE",
"20 500 LINE"
);
},
{
closed = 0;
nodes = (
"20 667 LINE"
);
}
);
width = 40;
}
);
unicode = 0069;
},
{
glyphname = j;
lastChange = "2019-01-25 15:48:55 +0000";
layers = (
{
layerId = "6F4F10D2-8254-4335-A627-9F8D8891324D";
paths = (
{
closed = 1;
nodes = (
"329 -245 OFFCURVE",
"326 -99 OFFCURVE",
"326 -28 CURVE SMOOTH",
"326 500 LINE SMOOTH",
"326 525 OFFCURVE",
"306 545 OFFCURVE",
"281 545 CURVE SMOOTH",
"256 545 OFFCURVE",
"236 525 OFFCURVE",
"236 500 CURVE SMOOTH",
"236 -28 LINE SMOOTH",
"236 -130 OFFCURVE",
"226 -155 OFFCURVE",
"178 -155 CURVE SMOOTH",
"145 -155 OFFCURVE",
"123 -148 OFFCURVE",
"105 -132 CURVE SMOOTH",
"97 -125 OFFCURVE",
"86 -121 OFFCURVE",
"75 -121 CURVE SMOOTH",
"50 -121 OFFCURVE",
"30 -141 OFFCURVE",
"30 -166 CURVE SMOOTH",
"30 -180 OFFCURVE",
"36 -192 OFFCURVE",
"45 -200 CURVE SMOOTH",
"79 -230 OFFCURVE",
"125 -245 OFFCURVE",
"178 -245 CURVE SMOOTH"
);
}
);
width = 356;
},
{
associatedMasterId = "6F4F10D2-8254-4335-A627-9F8D8891324D";
layerId = "5A27AB66-550C-4BB1-B930-98BA9523F95F";
name = path;
paths = (
{
closed = 0;
nodes = (
"226 500 LINE",
"226 500 OFFCURVE",
"226 211 OFFCURVE",
"226 72 CURVE SMOOTH",
"226 -28 LINE SMOOTH",
"226 -99 OFFCURVE",
"228 -200 OFFCURVE",
"123 -200 CURVE SMOOTH",
"77 -200 OFFCURVE",
"44 -187 OFFCURVE",
"20 -166 CURVE"
);
}
);
visible = 1;
width = 284;
},
{
associatedMasterId = "6F4F10D2-8254-4335-A627-9F8D8891324D";
layerId = "66CE0DE5-A426-4255-80EC-D88941F9989B";
name = path;
paths = (
{
closed = 0;
nodes = (
"264 500 LINE",
"264 500 OFFCURVE",
"264 157 OFFCURVE",
"264 -8 CURVE SMOOTH",
"264 -126 LINE SMOOTH",
"264 -210 OFFCURVE",
"267 -330 OFFCURVE",
"142 -330 CURVE SMOOTH",
"87 -330 OFFCURVE",
"48 -314 OFFCURVE",
"20 -290 CURVE"
);
}
);
width = 284;
}
);
unicode = 006A;
},
{
color = 4;
glyphname = k;
lastChange = "2019-01-25 15:48:55 +0000";
layers = (
{
layerId = "6F4F10D2-8254-4335-A627-9F8D8891324D";
paths = (
{
closed = 1;
nodes = (
"100 -45 OFFCURVE",
"120 -25 OFFCURVE",
"120 0 CURVE SMOOTH",
"120 189 LINE",
"175 245 LINE",
"328 -22 LINE SMOOTH",
"335 -36 OFFCURVE",
"350 -45 OFFCURVE",
"367 -45 CURVE SMOOTH",
"392 -45 OFFCURVE",
"412 -25 OFFCURVE",
"412 0 CURVE SMOOTH",
"412 8 OFFCURVE",
"410 16 OFFCURVE",
"406 23 CURVE SMOOTH",
"241 311 LINE",
"399 468 LINE SMOOTH",
"407 476 OFFCURVE",
"412 488 OFFCURVE",
"412 500 CURVE SMOOTH",
"412 525 OFFCURVE",
"392 545 OFFCURVE",
"367 545 CURVE SMOOTH",
"355 545 OFFCURVE",
"343 540 OFFCURVE",
"335 532 CURVE SMOOTH",
"120 317 LINE",
"120 700 LINE SMOOTH",
"120 725 OFFCURVE",
"100 745 OFFCURVE",
"75 745 CURVE SMOOTH",
"50 745 OFFCURVE",
"30 725 OFFCURVE",
"30 700 CURVE SMOOTH",
"30 0 LINE SMOOTH",
"30 -25 OFFCURVE",
"50 -45 OFFCURVE",
"75 -45 CURVE SMOOTH"
);
}
);
width = 442;
},
{
associatedMasterId = "6F4F10D2-8254-4335-A627-9F8D8891324D";
layerId = "F26C5B55-654E-4D1D-AFC2-2BC73BDB521E";
name = path;
paths = (
{
closed = 0;
nodes = (
"20 0 LINE",
"20 700 LINE"
);
},
{
closed = 0;
nodes = (
"312 500 LINE",
"20 208 LINE"
);
},
{
closed = 0;
nodes = (
"312 0 LINE",
"145 292 LINE"
);
}
);
visible = 1;
width = 332;
},
{
associatedMasterId = "6F4F10D2-8254-4335-A627-9F8D8891324D";
layerId = "2C47E659-83F1-4B67-8DC4-2358B683AAD3";
name = path;
paths = (
{
closed = 0;
nodes = (
"20 0 LINE",
"20 700 LINE"
);
},
{
closed = 0;
nodes = (
"312 500 LINE",
"20 208 LINE"
);
},
{
closed = 0;
nodes = (
"312 0 LINE",
"145 292 LINE"
);
}
);
width = 332;
}
);
unicode = 006B;
},
{
glyphname = l;
lastChange = "2019-01-25 15:48:54 +0000";
layers = (
{
layerId = "6F4F10D2-8254-4335-A627-9F8D8891324D";
paths = (
{
closed = 1;
nodes = (
"100 -45 OFFCURVE",
"120 -25 OFFCURVE",
"120 0 CURVE SMOOTH",
"120 700 LINE SMOOTH",
"120 725 OFFCURVE",
"100 745 OFFCURVE",
"75 745 CURVE SMOOTH",
"50 745 OFFCURVE",
"30 725 OFFCURVE",
"30 700 CURVE SMOOTH",
"30 0 LINE SMOOTH",
"30 -25 OFFCURVE",
"50 -45 OFFCURVE",
"75 -45 CURVE SMOOTH"
);
}
);
width = 150;
},
{
associatedMasterId = "6F4F10D2-8254-4335-A627-9F8D8891324D";
layerId = "6468C33E-C6D4-42E5-8DE7-FA7B36001286";
name = path;
paths = (
{
closed = 0;
nodes = (
"20 700 LINE",
"20 0 LINE"
);
}
);
visible = 1;
width = 40;
},
{
associatedMasterId = "6F4F10D2-8254-4335-A627-9F8D8891324D";
layerId = "23BBF823-8CC9-4585-A41C-982356E2521F";
name = path;
paths = (
{
closed = 0;
nodes = (
"20 700 LINE",
"20 0 LINE"
);
}
);
width = 40;
}
);
unicode = 006C;
},
{
color = 1;
glyphname = m;
lastChange = "2019-01-25 15:48:54 +0000";
layers = (
{
associatedMasterId = "6F4F10D2-8254-4335-A627-9F8D8891324D";
layerId = "FBCD9E58-2354-48AA-A8CD-D7F607E73EF8";
name = path;
paths = (
{
closed = 0;
nodes = (
"20 0 LINE",
"20 499 LINE"
);
},
{
closed = 0;
nodes = (
"20 397 LINE",
"20 397 OFFCURVE",
"104 500 OFFCURVE",
"188 500 CURVE SMOOTH",
"312 500 OFFCURVE",
"353 458 OFFCURVE",
"353 400 CURVE SMOOTH",
"353 0 LINE"
);
},
{
closed = 0;
nodes = (
"353 397 LINE",
"353 397 OFFCURVE",
"436 500 OFFCURVE",
"521 500 CURVE SMOOTH",
"644 500 OFFCURVE",
"686 458 OFFCURVE",
"686 400 CURVE SMOOTH",
"686 0 LINE"
);
}
);
visible = 1;
width = 706;
},
{
associatedMasterId = "6F4F10D2-8254-4335-A627-9F8D8891324D";
layerId = "4C8419B5-8A07-4AAD-92CD-00A236D49F1D";
name = "Oct 5 18, 13:28";
paths = (
{
closed = 0;
nodes = (
"0 500 LINE",
"0 0 LINE",
"0 370 LINE SMOOTH",
"0 427 OFFCURVE",
"41 500 OFFCURVE",
"165 500 CURVE SMOOTH",
"289 500 OFFCURVE",
"330 428 OFFCURVE",
"330 370 CURVE SMOOTH",
"330 0 LINE",
"330 370 LINE SMOOTH",
"330 427 OFFCURVE",
"371 500 OFFCURVE",
"495 500 CURVE SMOOTH",
"619 500 OFFCURVE",
"660 428 OFFCURVE",
"660 370 CURVE SMOOTH",
"660 0 LINE"
);
}
);
visible = 1;
width = 706;
},
{
layerId = "6F4F10D2-8254-4335-A627-9F8D8891324D";
paths = (
{
closed = 1;
nodes = (
"760 -45 OFFCURVE",
"780 -25 OFFCURVE",
"780 0 CURVE SMOOTH",
"780 370 LINE SMOOTH",
"780 474 OFFCURVE",
"695 545 OFFCURVE",
"570 545 CURVE SMOOTH",
"500 545 OFFCURVE",
"442 523 OFFCURVE",
"405 484 CURVE",
"368 523 OFFCURVE",
"310 545 OFFCURVE",
"240 545 CURVE SMOOTH",
"193 545 OFFCURVE",
"151 535 OFFCURVE",
"117 516 CURVE",
"111 533 OFFCURVE",
"94 545 OFFCURVE",
"75 545 CURVE SMOOTH",
"50 545 OFFCURVE",
"30 525 OFFCURVE",
"30 500 CURVE SMOOTH",
"30 0 LINE SMOOTH",
"30 -29 OFFCURVE",
"46 -45 OFFCURVE",
"75 -45 CURVE SMOOTH",
"104 -45 OFFCURVE",
"120 -29 OFFCURVE",
"120 0 CURVE SMOOTH",
"120 370 LINE SMOOTH",
"120 422 OFFCURVE",
"165 455 OFFCURVE",
"240 455 CURVE SMOOTH",
"316 455 OFFCURVE",
"360 422 OFFCURVE",
"360 370 CURVE SMOOTH",
"360 0 LINE SMOOTH",
"360 -29 OFFCURVE",
"376 -45 OFFCURVE",
"405 -45 CURVE SMOOTH",
"434 -45 OFFCURVE",
"450 -29 OFFCURVE",
"450 0 CURVE SMOOTH",
"450 370 LINE SMOOTH",
"450 422 OFFCURVE",
"495 455 OFFCURVE",
"570 455 CURVE SMOOTH",
"646 455 OFFCURVE",
"690 422 OFFCURVE",
"690 370 CURVE SMOOTH",
"690 0 LINE SMOOTH",
"690 -25 OFFCURVE",
"710 -45 OFFCURVE",
"735 -45 CURVE SMOOTH"
);
}
);
width = 810;
},
{
associatedMasterId = "6F4F10D2-8254-4335-A627-9F8D8891324D";
layerId = "657E32C5-FD6B-42C8-9072-D9109477E7D2";
name = path;
paths = (
{
closed = 0;
nodes = (
"20 0 LINE",
"20 499 LINE"
);
},
{
closed = 0;
nodes = (
"20 397 LINE",
"20 397 OFFCURVE",
"104 500 OFFCURVE",
"188 500 CURVE SMOOTH",
"312 500 OFFCURVE",
"353 458 OFFCURVE",
"353 400 CURVE SMOOTH",
"353 0 LINE"
);
},
{
closed = 0;
nodes = (
"353 397 LINE",
"353 397 OFFCURVE",
"436 500 OFFCURVE",
"521 500 CURVE SMOOTH",
"644 500 OFFCURVE",
"686 458 OFFCURVE",
"686 400 CURVE SMOOTH",
"686 0 LINE"
);
}
);
width = 706;
},
{
associatedMasterId = "6F4F10D2-8254-4335-A627-9F8D8891324D";
layerId = "A8EC7EFF-FBDE-479C-8D49-DA634DCE7832";
name = "Oct 5 18, 13:28";
paths = (
{
closed = 0;
nodes = (
"0 500 LINE",
"0 0 LINE",
"0 370 LINE SMOOTH",
"0 427 OFFCURVE",
"41 500 OFFCURVE",
"165 500 CURVE SMOOTH",
"289 500 OFFCURVE",
"330 428 OFFCURVE",
"330 370 CURVE SMOOTH",
"330 0 LINE",
"330 370 LINE SMOOTH",
"330 427 OFFCURVE",
"371 500 OFFCURVE",
"495 500 CURVE SMOOTH",
"619 500 OFFCURVE",
"660 428 OFFCURVE",
"660 370 CURVE SMOOTH",
"660 0 LINE"
);
}
);
width = 706;
}
);
unicode = 006D;
},
{
color = 1;
glyphname = n;
lastChange = "2019-01-25 15:48:54 +0000";
layers = (
{
associatedMasterId = "6F4F10D2-8254-4335-A627-9F8D8891324D";
layerId = "A8D31436-2892-46E5-8A13-FCFFD2A97782";
name = path;
paths = (
{
closed = 0;
nodes = (
"0.354 0 LINE",
"0 500 LINE"
);
},
{
closed = 0;
nodes = (
"0 397 LINE",
"0 397 OFFCURVE",
"84 500 OFFCURVE",
"168 500 CURVE SMOOTH",
"292 500 OFFCURVE",
"333 458 OFFCURVE",
"333 400 CURVE SMOOTH",
"333 0 LINE"
);
}
);
visible = 1;
width = 600;
},
{
associatedMasterId = "6F4F10D2-8254-4335-A627-9F8D8891324D";
layerId = "7F76A847-1BCE-438E-B265-82904D811F39";
name = "Oct 5 18, 13:17";
paths = (
{
closed = 0;
nodes = (
"0 500 LINE",
"0 0 LINE",
"0 370 LINE SMOOTH",
"0 427 OFFCURVE",
"41 500 OFFCURVE",
"165 500 CURVE SMOOTH",
"289 500 OFFCURVE",
"330 428 OFFCURVE",
"330 370 CURVE SMOOTH",
"330 0 LINE"
);
}
);
width = 600;
},
{
layerId = "6F4F10D2-8254-4335-A627-9F8D8891324D";
paths = (
{
closed = 1;
nodes = (
"430 -45 OFFCURVE",
"450 -25 OFFCURVE",
"450 0 CURVE SMOOTH",
"450 370 LINE SMOOTH",
"450 474 OFFCURVE",
"365 545 OFFCURVE",
"240 545 CURVE SMOOTH",
"193 545 OFFCURVE",
"151 535 OFFCURVE",
"117 516 CURVE",
"111 533 OFFCURVE",
"94 545 OFFCURVE",
"75 545 CURVE SMOOTH",
"50 545 OFFCURVE",
"30 525 OFFCURVE",
"30 500 CURVE SMOOTH",
"30 0 LINE SMOOTH",
"30 -29 OFFCURVE",
"46 -45 OFFCURVE",
"75 -45 CURVE SMOOTH",
"104 -45 OFFCURVE",
"120 -29 OFFCURVE",
"120 0 CURVE SMOOTH",
"120 370 LINE SMOOTH",
"120 422 OFFCURVE",
"165 455 OFFCURVE",
"240 455 CURVE SMOOTH",
"316 455 OFFCURVE",
"360 422 OFFCURVE",
"360 370 CURVE SMOOTH",
"360 0 LINE SMOOTH",
"360 -25 OFFCURVE",
"380 -45 OFFCURVE",
"405 -45 CURVE SMOOTH"
);
}
);
width = 480;
},
{
associatedMasterId = "6F4F10D2-8254-4335-A627-9F8D8891324D";
layerId = "DF74B8AB-2905-49A8-9BEB-005D4F543BF7";
name = path;
paths = (
{
closed = 0;
nodes = (
"0.354 0 LINE",
"0 500 LINE"
);
},
{
closed = 0;
nodes = (
"0 397 LINE",
"0 397 OFFCURVE",
"84 500 OFFCURVE",
"168 500 CURVE SMOOTH",
"292 500 OFFCURVE",
"333 458 OFFCURVE",
"333 400 CURVE SMOOTH",
"333 0 LINE"
);
}
);
width = 600;
},
{
associatedMasterId = "6F4F10D2-8254-4335-A627-9F8D8891324D";
layerId = "9C08B25F-7C4A-4213-9257-946E10A84CE4";
name = "Oct 5 18, 13:17";
paths = (
{
closed = 0;
nodes = (
"0 500 LINE",
"0 0 LINE",
"0 370 LINE SMOOTH",
"0 427 OFFCURVE",
"41 500 OFFCURVE",
"165 500 CURVE SMOOTH",
"289 500 OFFCURVE",
"330 428 OFFCURVE",
"330 370 CURVE SMOOTH",
"330 0 LINE"
);
}
);
width = 600;
}
);
unicode = 006E;
},
{
color = 4;
glyphname = o;
lastChange = "2019-01-25 15:48:54 +0000";
layers = (
{
layerId = "6F4F10D2-8254-4335-A627-9F8D8891324D";
paths = (
{
closed = 1;
nodes = (
"436 -45 OFFCURVE",
"533 70 OFFCURVE",
"533 250 CURVE SMOOTH",
"533 431 OFFCURVE",
"436 545 OFFCURVE",
"281 545 CURVE SMOOTH",
"126 545 OFFCURVE",
"30 431 OFFCURVE",
"30 250 CURVE SMOOTH",
"30 69 OFFCURVE",
"127 -45 OFFCURVE",
"281 -45 CURVE SMOOTH"
);
},
{
closed = 1;
nodes = (
"179 45 OFFCURVE",
"120 118 OFFCURVE",
"120 250 CURVE SMOOTH",
"120 382 OFFCURVE",
"178 455 OFFCURVE",
"281 455 CURVE SMOOTH",
"384 455 OFFCURVE",
"443 382 OFFCURVE",
"443 250 CURVE SMOOTH",
"443 118 OFFCURVE",
"384 45 OFFCURVE",
"281 45 CURVE SMOOTH"
);
}
);
visible = 1;
width = 563;
},
{
associatedMasterId = "6F4F10D2-8254-4335-A627-9F8D8891324D";
layerId = "F383D2E4-DDD1-4E4B-87EA-08B9D9509250";
name = path;
paths = (
{
closed = 1;
nodes = (
"433 77 OFFCURVE",
"340 0 OFFCURVE",
"226 0 CURVE SMOOTH",
"112 0 OFFCURVE",
"20 77 OFFCURVE",
"20 250 CURVE SMOOTH",
"20 424 OFFCURVE",
"112 500 OFFCURVE",
"226 500 CURVE SMOOTH",
"340 500 OFFCURVE",
"433 424 OFFCURVE",
"433 250 CURVE SMOOTH"
);
}
);
visible = 1;
width = 453;
},
{
associatedMasterId = "6F4F10D2-8254-4335-A627-9F8D8891324D";
layerId = "46E65D88-4B11-49A3-970F-FCDB19C2E235";
name = path;
paths = (
{
closed = 1;
nodes = (
"433 77 OFFCURVE",
"340 0 OFFCURVE",
"226 0 CURVE SMOOTH",
"112 0 OFFCURVE",
"20 77 OFFCURVE",
"20 250 CURVE SMOOTH",
"20 424 OFFCURVE",
"112 500 OFFCURVE",
"226 500 CURVE SMOOTH",
"340 500 OFFCURVE",
"433 424 OFFCURVE",
"433 250 CURVE SMOOTH"
);
}
);
width = 453;
}
);
unicode = 006F;
},
{
glyphname = oe;
lastChange = "2019-01-25 15:48:55 +0000";
layers = (
{
layerId = "6F4F10D2-8254-4335-A627-9F8D8891324D";
paths = (
{
closed = 1;
nodes = (
"361 -45 OFFCURVE",
"427 -14 OFFCURVE",
"471 41 CURVE",
"513 -15 OFFCURVE",
"574 -45 OFFCURVE",
"648 -45 CURVE SMOOTH",
"707 -45 OFFCURVE",
"766 -24 OFFCURVE",
"812 13 CURVE SMOOTH",
"822 21 OFFCURVE",
"829 34 OFFCURVE",
"829 48 CURVE SMOOTH",
"829 73 OFFCURVE",
"809 93 OFFCURVE",
"784 93 CURVE SMOOTH",
"773 93 OFFCURVE",
"763 89 OFFCURVE",
"756 83 CURVE SMOOTH",
"724 58 OFFCURVE",
"688 45 OFFCURVE",
"648 45 CURVE SMOOTH",
"586 45 OFFCURVE",
"543 77 OFFCURVE",
"518 141 CURVE SMOOTH",
"518 142 LINE SMOOTH",
"510 161 OFFCURVE",
"505 182 OFFCURVE",
"502 206 CURVE",
"789 206 LINE SMOOTH",
"812 206 OFFCURVE",
"827 212 OFFCURVE",
"843 226 CURVE SMOOTH",
"859 240 OFFCURVE",
"867 251 OFFCURVE",
"867 266 CURVE SMOOTH",
"868 272 OFFCURVE",
"868 279 OFFCURVE",
"868 287 CURVE SMOOTH",
"868 447 OFFCURVE",
"786 545 OFFCURVE",
"648 545 CURVE SMOOTH",
"576 545 OFFCURVE",
"515 514 OFFCURVE",
"472 457 CURVE",
"428 513 OFFCURVE",
"362 544 OFFCURVE",
"282 544 CURVE SMOOTH",
"127 544 OFFCURVE",
"30 431 OFFCURVE",
"30 250 CURVE SMOOTH",
"30 70 OFFCURVE",
"128 -45 OFFCURVE",
"282 -45 CURVE SMOOTH"
);
},
{
closed = 1;
nodes = (
"179 45 OFFCURVE",
"120 118 OFFCURVE",
"120 250 CURVE SMOOTH",
"120 382 OFFCURVE",
"179 454 OFFCURVE",
"282 454 CURVE SMOOTH",
"352 454 OFFCURVE",
"400 421 OFFCURVE",
"424 359 CURVE",
"415 325 OFFCURVE",
"409 286 OFFCURVE",
"409 251 CURVE SMOOTH",
"409 211 OFFCURVE",
"414 172 OFFCURVE",
"424 138 CURVE",
"399 77 OFFCURVE",
"350 45 OFFCURVE",
"282 45 CURVE SMOOTH"
);
},
{
closed = 1;
nodes = (
"506 317 OFFCURVE",
"511 338 OFFCURVE",
"519 357 CURVE SMOOTH",
"545 422 OFFCURVE",
"589 455 OFFCURVE",
"648 455 CURVE SMOOTH",
"731 455 OFFCURVE",
"775 401 OFFCURVE",
"778 296 CURVE",
"502 296 LINE"
);
}
);
width = 898;
},
{
associatedMasterId = "6F4F10D2-8254-4335-A627-9F8D8891324D";
layerId = "984BED48-9BB9-4FC1-817B-F0643E821B9B";
name = path;
paths = (
{
closed = 0;
nodes = (
"399 251 LINE",
"766 251 LINE",
"766 251 OFFCURVE",
"798 500 OFFCURVE",
"593 500 CURVE SMOOTH",
"504 500 OFFCURVE",
"450 443 OFFCURVE",
"422 374 CURVE SMOOTH",
"406 334 OFFCURVE",
"399 289 OFFCURVE",
"399 251 CURVE SMOOTH",
"399 209 OFFCURVE",
"405 164 OFFCURVE",
"421 125 CURVE SMOOTH",
"448 55 OFFCURVE",
"502 0 OFFCURVE",
"593 0 CURVE SMOOTH",
"657 0 OFFCURVE",
"703 27 OFFCURVE",
"729 48 CURVE"
);
},
{
closed = 0;
nodes = (
"412 125 LINE",
"379 39 OFFCURVE",
"308 0 OFFCURVE",
"227 0 CURVE SMOOTH",
"113 0 OFFCURVE",
"20 77 OFFCURVE",
"20 250 CURVE SMOOTH",
"20 424 OFFCURVE",
"113 499 OFFCURVE",
"227 499 CURVE SMOOTH",
"308 499 OFFCURVE",
"379 461 OFFCURVE",
"412 374 CURVE"
);
}
);
visible = 1;
width = 788;
},
{
associatedMasterId = "6F4F10D2-8254-4335-A627-9F8D8891324D";
layerId = "CC17E45F-9DA9-4565-86F7-185DE52BDF2D";
name = path;
paths = (
{
closed = 0;
nodes = (
"399 251 LINE",
"766 251 LINE",
"766 251 OFFCURVE",
"798 500 OFFCURVE",
"593 500 CURVE SMOOTH",
"504 500 OFFCURVE",
"450 443 OFFCURVE",
"422 374 CURVE SMOOTH",
"406 334 OFFCURVE",
"399 289 OFFCURVE",
"399 251 CURVE SMOOTH",
"399 209 OFFCURVE",
"405 164 OFFCURVE",
"421 125 CURVE SMOOTH",
"448 55 OFFCURVE",
"502 0 OFFCURVE",
"593 0 CURVE SMOOTH",
"657 0 OFFCURVE",
"703 27 OFFCURVE",
"729 48 CURVE"
);
},
{
closed = 0;
nodes = (
"412 125 LINE",
"379 39 OFFCURVE",
"308 0 OFFCURVE",
"227 0 CURVE SMOOTH",
"113 0 OFFCURVE",
"20 77 OFFCURVE",
"20 250 CURVE SMOOTH",
"20 424 OFFCURVE",
"113 499 OFFCURVE",
"227 499 CURVE SMOOTH",
"308 499 OFFCURVE",
"379 461 OFFCURVE",
"412 374 CURVE"
);
}
);
width = 788;
}
);
unicode = 0153;
},
{
glyphname = p;
lastChange = "2019-01-25 15:48:55 +0000";
layers = (
{
layerId = "6F4F10D2-8254-4335-A627-9F8D8891324D";
paths = (
{
closed = 1;
nodes = (
"100 -245 OFFCURVE",
"120 -225 OFFCURVE",
"120 -200 CURVE SMOOTH",
"120 -22 LINE",
"153 -38 OFFCURVE",
"191 -45 OFFCURVE",
"235 -45 CURVE SMOOTH",
"370 -45 OFFCURVE",
"470 83 OFFCURVE",
"470 250 CURVE SMOOTH",
"470 417 OFFCURVE",
"370 545 OFFCURVE",
"235 545 CURVE SMOOTH",
"186 545 OFFCURVE",
"146 533 OFFCURVE",
"116 518 CURVE",
"110 534 OFFCURVE",
"94 545 OFFCURVE",
"75 545 CURVE SMOOTH",
"50 545 OFFCURVE",
"30 525 OFFCURVE",
"30 500 CURVE SMOOTH",
"30 -200 LINE SMOOTH",
"30 -225 OFFCURVE",
"50 -245 OFFCURVE",
"75 -245 CURVE SMOOTH"
);
},
{
closed = 1;
nodes = (
"180 45 OFFCURVE",
"144 59 OFFCURVE",
"120 89 CURVE",
"120 410 LINE",
"134 425 OFFCURVE",
"169 455 OFFCURVE",
"235 455 CURVE SMOOTH",
"318 455 OFFCURVE",
"380 368 OFFCURVE",
"380 250 CURVE SMOOTH",
"380 132 OFFCURVE",
"318 45 OFFCURVE",
"235 45 CURVE SMOOTH"
);
}
);
width = 500;
},
{
associatedMasterId = "6F4F10D2-8254-4335-A627-9F8D8891324D";
layerId = "F8386EB3-F5AD-4C55-98CD-26FC62B35DB5";
name = path;
paths = (
{
closed = 0;
nodes = (
"0 500 LINE",
"0 -200 LINE"
);
},
{
closed = 0;
nodes = (
"0 425 LINE",
"0 425 OFFCURVE",
"45 500 OFFCURVE",
"160 500 CURVE SMOOTH",
"275 500 OFFCURVE",
"350 385 OFFCURVE",
"350 250 CURVE SMOOTH",
"350 115 OFFCURVE",
"275 0 OFFCURVE",
"160 0 CURVE SMOOTH",
"45 0 OFFCURVE",
"10 59 OFFCURVE",
"0 75 CURVE"
);
}
);
visible = 1;
width = 391;
},
{
associatedMasterId = "6F4F10D2-8254-4335-A627-9F8D8891324D";
layerId = "872DB794-7979-4B48-9AC9-680FE0FF5E14";
name = path;
paths = (
{
closed = 0;
nodes = (
"21 -330 LINE",
"20 500 LINE"
);
},
{
closed = 0;
nodes = (
"27 425 LINE",
"27 425 OFFCURVE",
"62 500 OFFCURVE",
"178 500 CURVE SMOOTH",
"294 500 OFFCURVE",
"371 415 OFFCURVE",
"371 251 CURVE SMOOTH",
"371 149 OFFCURVE",
"294 0 OFFCURVE",
"178 0 CURVE SMOOTH",
"62 0 OFFCURVE",
"27 75 OFFCURVE",
"27 75 CURVE"
);
}
);
width = 391;
},
{
associatedMasterId = "6F4F10D2-8254-4335-A627-9F8D8891324D";
layerId = "3C9F89FD-7725-4E29-835A-FEC45E5EA00F";
name = "Nov 5 18, 12:57";
paths = (
{
closed = 0;
nodes = (
"21 -330 LINE",
"20 500 LINE"
);
},
{
closed = 0;
nodes = (
"27 425 LINE",
"27 425 OFFCURVE",
"62 500 OFFCURVE",
"178 500 CURVE SMOOTH",
"294 500 OFFCURVE",
"371 415 OFFCURVE",
"371 251 CURVE SMOOTH",
"371 149 OFFCURVE",
"294 0 OFFCURVE",
"178 0 CURVE SMOOTH",
"62 0 OFFCURVE",
"27 75 OFFCURVE",
"27 75 CURVE"
);
}
);
width = 391;
}
);
unicode = 0070;
},
{
glyphname = q;
lastChange = "2019-01-25 15:48:55 +0000";
layers = (
{
layerId = "6F4F10D2-8254-4335-A627-9F8D8891324D";
paths = (
{
closed = 1;
nodes = (
"450 -245 OFFCURVE",
"470 -225 OFFCURVE",
"470 -200 CURVE SMOOTH",
"470 500 LINE SMOOTH",
"470 525 OFFCURVE",
"450 545 OFFCURVE",
"425 545 CURVE SMOOTH",
"406 545 OFFCURVE",
"390 534 OFFCURVE",
"384 518 CURVE",
"354 533 OFFCURVE",
"314 545 OFFCURVE",
"265 545 CURVE SMOOTH",
"130 545 OFFCURVE",
"30 417 OFFCURVE",
"30 250 CURVE SMOOTH",
"30 83 OFFCURVE",
"130 -45 OFFCURVE",
"265 -45 CURVE SMOOTH",
"309 -45 OFFCURVE",
"347 -38 OFFCURVE",
"380 -22 CURVE",
"380 -200 LINE SMOOTH",
"380 -225 OFFCURVE",
"400 -245 OFFCURVE",
"425 -245 CURVE SMOOTH"
);
},
{
closed = 1;
nodes = (
"182 45 OFFCURVE",
"120 132 OFFCURVE",
"120 250 CURVE SMOOTH",
"120 368 OFFCURVE",
"182 455 OFFCURVE",
"265 455 CURVE SMOOTH",
"331 455 OFFCURVE",
"366 425 OFFCURVE",
"380 410 CURVE",
"380 89 LINE",
"356 59 OFFCURVE",
"320 45 OFFCURVE",
"265 45 CURVE SMOOTH"
);
}
);
width = 500;
},
{
associatedMasterId = "6F4F10D2-8254-4335-A627-9F8D8891324D";
layerId = "E98FCB14-0399-48A1-A1D4-B8EA37B4FC4B";
name = path;
paths = (
{
closed = 0;
nodes = (
"370 500 LINE",
"370 -200 LINE"
);
},
{
closed = 0;
nodes = (
"370 75 LINE",
"360 59 OFFCURVE",
"325 0 OFFCURVE",
"210 0 CURVE SMOOTH",
"95 0 OFFCURVE",
"20 115 OFFCURVE",
"20 250 CURVE SMOOTH",
"20 385 OFFCURVE",
"95 500 OFFCURVE",
"210 500 CURVE SMOOTH",
"325 500 OFFCURVE",
"370 425 OFFCURVE",
"370 425 CURVE"
);
}
);
visible = 1;
width = 390;
}
);
unicode = 0071;
},
{
glyphname = r;
lastChange = "2019-01-25 15:48:55 +0000";
layers = (
{
associatedMasterId = "6F4F10D2-8254-4335-A627-9F8D8891324D";
layerId = "922AF70B-B257-4448-A8DF-7AFB785F370A";
name = path;
paths = (
{
closed = 0;
nodes = (
"20 0 LINE",
"20 500 LINE"
);
},
{
closed = 0;
nodes = (
"20 423 LINE",
"20 423 OFFCURVE",
"84 500 OFFCURVE",
"188 500 CURVE SMOOTH",
"293 500 OFFCURVE",
"367 443 OFFCURVE",
"367 400 CURVE",
"353 336 LINE"
);
}
);
width = 387;
},
{
associatedMasterId = "6F4F10D2-8254-4335-A627-9F8D8891324D";
layerId = "54CA1C98-BF52-4571-9F13-C03AA42F8F1A";
name = "Oct 5 18, 14:13";
paths = (
{
closed = 1;
nodes = (
"31.046 -20 OFFCURVE",
"40 -11.046 OFFCURVE",
"40 0 CURVE SMOOTH",
"40 415.241 LINE",
"55.717 431.49 OFFCURVE",
"109.232 480 OFFCURVE",
"188 480 CURVE SMOOTH",
"265.798 480 OFFCURVE",
"344.34 438.516 OFFCURVE",
"346.933 401.857 CURVE",
"334 341 LINE SMOOTH",
"333 339 OFFCURVE",
"333 338 OFFCURVE",
"333 336 CURVE SMOOTH",
"333 325 OFFCURVE",
"342 316 OFFCURVE",
"353 316 CURVE SMOOTH",
"363 316 OFFCURVE",
"371 323 OFFCURVE",
"373 332 CURVE SMOOTH",
"384.014 384.187 LINE SMOOTH",
"386 393 OFFCURVE",
"386.657 396.824 OFFCURVE",
"387 400 CURVE",
"387 463.199 OFFCURVE",
"291.418 520 OFFCURVE",
"188 520 CURVE SMOOTH",
"122.378 520 OFFCURVE",
"71.348 491.861 OFFCURVE",
"40 468.154 CURVE",
"40 500 LINE SMOOTH",
"40 511.046 OFFCURVE",
"31.046 520 OFFCURVE",
"20 520 CURVE SMOOTH",
"8.954 520 OFFCURVE",
"0 511.046 OFFCURVE",
"0 500 CURVE SMOOTH",
"0 0 LINE SMOOTH",
"0 -11.046 OFFCURVE",
"8.954 -20 OFFCURVE",
"20 -20 CURVE SMOOTH"
);
}
);
visible = 1;
width = 387;
},
{
layerId = "6F4F10D2-8254-4335-A627-9F8D8891324D";
paths = (
{
closed = 1;
nodes = (
"104 -45 OFFCURVE",
"120 -29 OFFCURVE",
"120 0 CURVE SMOOTH",
"120 370 LINE SMOOTH",
"120 422 OFFCURVE",
"165 455 OFFCURVE",
"240 455 CURVE SMOOTH",
"316 455 OFFCURVE",
"360 422 OFFCURVE",
"360 370 CURVE SMOOTH",
"360 320 LINE SMOOTH",
"360 295 OFFCURVE",
"380 275 OFFCURVE",
"405 275 CURVE SMOOTH",
"430 275 OFFCURVE",
"450 295 OFFCURVE",
"450 320 CURVE SMOOTH",
"450 370 LINE SMOOTH",
"450 474 OFFCURVE",
"365 545 OFFCURVE",
"240 545 CURVE SMOOTH",
"193 545 OFFCURVE",
"151 535 OFFCURVE",
"117 516 CURVE",
"111 533 OFFCURVE",
"94 545 OFFCURVE",
"75 545 CURVE SMOOTH",
"50 545 OFFCURVE",
"30 525 OFFCURVE",
"30 500 CURVE SMOOTH",
"30 0 LINE SMOOTH",
"30 -29 OFFCURVE",
"46 -45 OFFCURVE",
"75 -45 CURVE SMOOTH"
);
}
);
visible = 1;
width = 480;
}
);
unicode = 0072;
},
{
glyphname = s;
lastChange = "2019-01-25 15:48:55 +0000";
layers = (
{
layerId = "6F4F10D2-8254-4335-A627-9F8D8891324D";
paths = (
{
closed = 1;
nodes = (
"381 -45 OFFCURVE",
"446 6 OFFCURVE",
"446 124 CURVE SMOOTH",
"446 221 OFFCURVE",
"385 270 OFFCURVE",
"245 294 CURVE SMOOTH",
"149 311 OFFCURVE",
"120 333 OFFCURVE",
"120 375 CURVE SMOOTH",
"120 437 OFFCURVE",
"142 455 OFFCURVE",
"237 455 CURVE SMOOTH",
"330 455 OFFCURVE",
"354 394 OFFCURVE",
"356 387 CURVE",
"362 368 OFFCURVE",
"379 355 OFFCURVE",
"399 355 CURVE SMOOTH",
"424 355 OFFCURVE",
"444 375 OFFCURVE",
"444 400 CURVE SMOOTH",
"444 405 OFFCURVE",
"443 410 OFFCURVE",
"442 415 CURVE SMOOTH",
"438 425 OFFCURVE",
"395 545 OFFCURVE",
"237 545 CURVE SMOOTH",
"95 545 OFFCURVE",
"30 493 OFFCURVE",
"30 375 CURVE SMOOTH",
"30 281 OFFCURVE",
"93 230 OFFCURVE",
"229 206 CURVE SMOOTH",
"330 188 OFFCURVE",
"356 168 OFFCURVE",
"356 124 CURVE SMOOTH",
"356 63 OFFCURVE",
"334 45 OFFCURVE",
"237 45 CURVE SMOOTH",
"145 45 OFFCURVE",
"121 106 OFFCURVE",
"119 113 CURVE",
"113 132 OFFCURVE",
"96 145 OFFCURVE",
"76 145 CURVE SMOOTH",
"51 145 OFFCURVE",
"31 125 OFFCURVE",
"31 100 CURVE SMOOTH",
"31 95 OFFCURVE",
"32 90 OFFCURVE",
"33 85 CURVE SMOOTH",
"37 74 OFFCURVE",
"80 -45 OFFCURVE",
"237 -45 CURVE SMOOTH"
);
}
);
width = 476;
},
{
associatedMasterId = "6F4F10D2-8254-4335-A627-9F8D8891324D";
layerId = "8687FAFC-7602-492D-AC7C-F011139AC09D";
name = path;
paths = (
{
closed = 0;
nodes = (
"354 417 LINE",
"354 417 OFFCURVE",
"312 500 OFFCURVE",
"196 500 CURVE SMOOTH",
"60 500 OFFCURVE",
"20 458 OFFCURVE",
"20 375 CURVE SMOOTH",
"20 292 OFFCURVE",
"86 268 OFFCURVE",
"187 250 CURVE SMOOTH",
"288 232 OFFCURVE",
"354 206 OFFCURVE",
"354 125 CURVE SMOOTH",
"354 48 OFFCURVE",
"312 0 OFFCURVE",
"196 0 CURVE SMOOTH",
"62 0 OFFCURVE",
"20 83 OFFCURVE",
"20 83 CURVE"
);
}
);
visible = 1;
width = 374;
},
{
associatedMasterId = "6F4F10D2-8254-4335-A627-9F8D8891324D";
layerId = "9F1BF450-2878-438B-A54F-61EC43D886A9";
name = path;
paths = (
{
closed = 0;
nodes = (
"354 417 LINE",
"354 417 OFFCURVE",
"312 500 OFFCURVE",
"196 500 CURVE SMOOTH",
"60 500 OFFCURVE",
"20 458 OFFCURVE",
"20 375 CURVE SMOOTH",
"20 292 OFFCURVE",
"86 268 OFFCURVE",
"187 250 CURVE SMOOTH",
"288 232 OFFCURVE",
"354 206 OFFCURVE",
"354 125 CURVE SMOOTH",
"354 48 OFFCURVE",
"312 0 OFFCURVE",
"196 0 CURVE SMOOTH",
"62 0 OFFCURVE",
"20 83 OFFCURVE",
"20 83 CURVE"
);
}
);
width = 374;
},
{
associatedMasterId = "6F4F10D2-8254-4335-A627-9F8D8891324D";
layerId = "71112D7D-255D-4B9F-AAC1-C868436A0EE0";
name = "Nov 5 18, 13:17";
paths = (
{
closed = 0;
nodes = (
"344 400 LINE",
"344 400 OFFCURVE",
"314 500 OFFCURVE",
"182 500 CURVE SMOOTH",
"47 500 OFFCURVE",
"20 451 OFFCURVE",
"20 375 CURVE SMOOTH",
"20 298 OFFCURVE",
"81 268 OFFCURVE",
"182 250 CURVE SMOOTH",
"284 232 OFFCURVE",
"346 205 OFFCURVE",
"346 124 CURVE SMOOTH",
"346 47 OFFCURVE",
"318 0 OFFCURVE",
"182 0 CURVE SMOOTH",
"51 0 OFFCURVE",
"21 100 OFFCURVE",
"21 100 CURVE"
);
}
);
width = 374;
}
);
unicode = 0073;
},
{
glyphname = t;
lastChange = "2019-01-25 15:48:55 +0000";
layers = (
{
layerId = "6F4F10D2-8254-4335-A627-9F8D8891324D";
paths = (
{
closed = 1;
nodes = (
"237 -45 OFFCURVE",
"284 -29 OFFCURVE",
"317 3 CURVE SMOOTH",
"326 12 OFFCURVE",
"331 23 OFFCURVE",
"331 36 CURVE SMOOTH",
"331 61 OFFCURVE",
"311 81 OFFCURVE",
"286 81 CURVE SMOOTH",
"274 81 OFFCURVE",
"263 76 OFFCURVE",
"255 69 CURVE SMOOTH",
"238 52 OFFCURVE",
"216 45 OFFCURVE",
"181 45 CURVE SMOOTH",
"130 45 OFFCURVE",
"120 70 OFFCURVE",
"120 176 CURVE SMOOTH",
"120 373 LINE",
"258 375 LINE SMOOTH",
"282 375 OFFCURVE",
"302 395 OFFCURVE",
"302 420 CURVE SMOOTH",
"302 445 OFFCURVE",
"282 465 OFFCURVE",
"257 465 CURVE SMOOTH",
"120 463 LINE",
"120 700 LINE SMOOTH",
"120 725 OFFCURVE",
"100 745 OFFCURVE",
"75 745 CURVE SMOOTH",
"50 745 OFFCURVE",
"30 725 OFFCURVE",
"30 700 CURVE SMOOTH",
"30 176 LINE SMOOTH",
"30 104 OFFCURVE",
"26 -45 OFFCURVE",
"181 -45 CURVE SMOOTH"
);
}
);
width = 361;
},
{
associatedMasterId = "6F4F10D2-8254-4335-A627-9F8D8891324D";
layerId = "D86B9D2A-8C4C-4D6E-9CC4-293CA834A508";
name = path;
paths = (
{
closed = 0;
nodes = (
"202 420 LINE",
"27 418 LINE"
);
},
{
closed = 0;
nodes = (
"20 700 LINE",
"20 700 OFFCURVE",
"20 421 OFFCURVE",
"20 279 CURVE SMOOTH",
"20 176 LINE SMOOTH",
"20 103 OFFCURVE",
"17 0 OFFCURVE",
"126 0 CURVE SMOOTH",
"175 0 OFFCURVE",
"208 14 OFFCURVE",
"231 36 CURVE"
);
}
);
visible = 1;
width = 261;
},
{
associatedMasterId = "6F4F10D2-8254-4335-A627-9F8D8891324D";
layerId = "54FE75FC-9CFB-415F-998D-D9B023D9BCA9";
name = path;
paths = (
{
closed = 0;
nodes = (
"202 420 LINE",
"27 418 LINE"
);
},
{
closed = 0;
nodes = (
"20 700 LINE",
"20 700 OFFCURVE",
"20 421 OFFCURVE",
"20 279 CURVE SMOOTH",
"20 176 LINE SMOOTH",
"20 103 OFFCURVE",
"17 0 OFFCURVE",
"126 0 CURVE SMOOTH",
"175 0 OFFCURVE",
"208 14 OFFCURVE",
"231 36 CURVE"
);
}
);
width = 261;
}
);
unicode = 0074;
},
{
color = 1;
glyphname = u;
lastChange = "2019-01-25 15:48:55 +0000";
layers = (
{
associatedMasterId = "6F4F10D2-8254-4335-A627-9F8D8891324D";
layerId = "22F47F4A-C2C3-4C1C-B4A4-27AC02646416";
name = path;
paths = (
{
closed = 0;
nodes = (
"333 500 LINE",
"333 1 LINE"
);
},
{
closed = 0;
nodes = (
"333 103 LINE",
"333 103 OFFCURVE",
"250 0 OFFCURVE",
"165 0 CURVE SMOOTH",
"42 0 OFFCURVE",
"0 42 OFFCURVE",
"0 100 CURVE SMOOTH",
"0 500 LINE"
);
}
);
width = 600;
},
{
associatedMasterId = "6F4F10D2-8254-4335-A627-9F8D8891324D";
layerId = "D8B06E53-A7DA-455A-8EF2-331562CB8E5E";
name = path;
paths = (
{
closed = 0;
nodes = (
"333 500 LINE",
"333 1 LINE"
);
},
{
closed = 0;
nodes = (
"333 103 LINE",
"333 103 OFFCURVE",
"250 0 OFFCURVE",
"165 0 CURVE SMOOTH",
"42 0 OFFCURVE",
"0 42 OFFCURVE",
"0 100 CURVE SMOOTH",
"0 500 LINE"
);
}
);
width = 600;
},
{
associatedMasterId = "6F4F10D2-8254-4335-A627-9F8D8891324D";
layerId = "DC1719DC-FC90-467F-B4B6-3501856C20E7";
name = "Oct 5 18, 14:15";
paths = (
{
closed = 1;
nodes = (
"212 -21 OFFCURVE",
"267 20 OFFCURVE",
"302 52 CURVE",
"302 0 LINE SMOOTH",
"302 -11 OFFCURVE",
"311 -20 OFFCURVE",
"322 -20 CURVE SMOOTH",
"333 -20 OFFCURVE",
"342 -11 OFFCURVE",
"342 0 CURVE SMOOTH",
"342 499 LINE SMOOTH",
"342 510 OFFCURVE",
"333 519 OFFCURVE",
"322 519 CURVE SMOOTH",
"311 519 OFFCURVE",
"302 510 OFFCURVE",
"302 499 CURVE SMOOTH",
"302 109 LINE",
"284 89 OFFCURVE",
"219 19 OFFCURVE",
"165 20 CURVE SMOOTH",
"65 22 OFFCURVE",
"20 46.769 OFFCURVE",
"20 100 CURVE SMOOTH",
"20 500 LINE SMOOTH",
"20 511.046 OFFCURVE",
"11.046 520 OFFCURVE",
"0 520 CURVE SMOOTH",
"-11.046 520 OFFCURVE",
"-20 511.046 OFFCURVE",
"-20 500 CURVE SMOOTH",
"-20 100 LINE SMOOTH",
"-20 20.566 OFFCURVE",
"44 -17 OFFCURVE",
"165 -20 CURVE SMOOTH"
);
}
);
visible = 1;
width = 353;
},
{
layerId = "6F4F10D2-8254-4335-A627-9F8D8891324D";
paths = (
{
closed = 1;
nodes = (
"288 -45 OFFCURVE",
"329 -35 OFFCURVE",
"363 -16 CURVE",
"369 -33 OFFCURVE",
"386 -45 OFFCURVE",
"405 -45 CURVE SMOOTH",
"430 -45 OFFCURVE",
"450 -25 OFFCURVE",
"450 0 CURVE SMOOTH",
"450 500 LINE SMOOTH",
"450 529 OFFCURVE",
"434 545 OFFCURVE",
"405 545 CURVE SMOOTH",
"376 545 OFFCURVE",
"360 529 OFFCURVE",
"360 500 CURVE SMOOTH",
"360 130 LINE SMOOTH",
"360 78 OFFCURVE",
"315 45 OFFCURVE",
"240 45 CURVE SMOOTH",
"164 45 OFFCURVE",
"120 78 OFFCURVE",
"120 130 CURVE SMOOTH",
"120 500 LINE SMOOTH",
"120 525 OFFCURVE",
"100 545 OFFCURVE",
"75 545 CURVE SMOOTH",
"50 545 OFFCURVE",
"30 525 OFFCURVE",
"30 500 CURVE SMOOTH",
"30 130 LINE SMOOTH",
"30 26 OFFCURVE",
"115 -45 OFFCURVE",
"240 -45 CURVE SMOOTH"
);
}
);
width = 480;
}
);
unicode = 0075;
},
{
glyphname = v;
lastChange = "2019-01-25 15:48:55 +0000";
layers = (
{
layerId = "6F4F10D2-8254-4335-A627-9F8D8891324D";
paths = (
{
closed = 1;
nodes = (
"288 -17 LINE SMOOTH",
"314 -17 OFFCURVE",
"330 -6 OFFCURVE",
"340 17 CURVE SMOOTH",
"533 482 LINE SMOOTH",
"536 487 OFFCURVE",
"537 494 OFFCURVE",
"537 500 CURVE SMOOTH",
"537 525 OFFCURVE",
"517 545 OFFCURVE",
"492 545 CURVE SMOOTH",
"473 545 OFFCURVE",
"457 533 OFFCURVE",
"450 516 CURVE SMOOTH",
"284 117 LINE",
"117 516 LINE SMOOTH",
"110 533 OFFCURVE",
"94 545 OFFCURVE",
"75 545 CURVE SMOOTH",
"50 545 OFFCURVE",
"30 525 OFFCURVE",
"30 500 CURVE SMOOTH",
"30 494 OFFCURVE",
"31 487 OFFCURVE",
"34 482 CURVE SMOOTH",
"228 17 LINE SMOOTH",
"238 -6 OFFCURVE",
"254 -17 OFFCURVE",
"280 -17 CURVE SMOOTH"
);
}
);
width = 567;
},
{
associatedMasterId = "6F4F10D2-8254-4335-A627-9F8D8891324D";
layerId = "18248BD3-2444-4CD5-A09C-77F15A5330B9";
name = path;
paths = (
{
closed = 0;
nodes = (
"20 500 LINE",
"229 0 LINE",
"437 500 LINE"
);
}
);
visible = 1;
width = 457;
},
{
associatedMasterId = "6F4F10D2-8254-4335-A627-9F8D8891324D";
layerId = "A442FFA3-AC1C-4C33-86C2-C698C9D6B65E";
name = path;
paths = (
{
closed = 0;
nodes = (
"20 500 LINE",
"229 0 LINE",
"437 500 LINE"
);
}
);
width = 457;
}
);
unicode = 0076;
},
{
glyphname = w;
lastChange = "2019-01-25 15:48:55 +0000";
layers = (
{
layerId = "6F4F10D2-8254-4335-A627-9F8D8891324D";
paths = (
{
closed = 1;
nodes = (
"246 -14 LINE SMOOTH",
"272 -14 OFFCURVE",
"289 -2 OFFCURVE",
"297 23 CURVE SMOOTH",
"409 358 LINE",
"520 23 LINE SMOOTH",
"528 -2 OFFCURVE",
"545 -14 OFFCURVE",
"571 -14 CURVE SMOOTH",
"579 -14 LINE SMOOTH",
"605 -14 OFFCURVE",
"622 -2 OFFCURVE",
"630 23 CURVE SMOOTH",
"784 485 LINE SMOOTH",
"786 490 OFFCURVE",
"787 495 OFFCURVE",
"787 500 CURVE SMOOTH",
"787 525 OFFCURVE",
"767 545 OFFCURVE",
"742 545 CURVE SMOOTH",
"722 545 OFFCURVE",
"705 532 OFFCURVE",
"699 513 CURVE SMOOTH",
"575 142 LINE",
"464 477 LINE SMOOTH",
"456 502 OFFCURVE",
"439 514 OFFCURVE",
"413 514 CURVE SMOOTH",
"405 514 LINE SMOOTH",
"379 514 OFFCURVE",
"362 502 OFFCURVE",
"354 477 CURVE SMOOTH",
"242 142 LINE",
"118 513 LINE SMOOTH",
"112 532 OFFCURVE",
"95 545 OFFCURVE",
"75 545 CURVE SMOOTH",
"50 545 OFFCURVE",
"30 525 OFFCURVE",
"30 500 CURVE SMOOTH",
"30 495 OFFCURVE",
"31 490 OFFCURVE",
"33 485 CURVE SMOOTH",
"187 23 LINE SMOOTH",
"195 -2 OFFCURVE",
"212 -14 OFFCURVE",
"238 -14 CURVE SMOOTH"
);
}
);
width = 817;
},
{
associatedMasterId = "6F4F10D2-8254-4335-A627-9F8D8891324D";
layerId = "633B0165-595A-45A6-B2C9-4EB267821027";
name = path;
paths = (
{
closed = 0;
nodes = (
"20 500 LINE",
"187 0 LINE",
"354 500 LINE",
"520 0 LINE",
"687 500 LINE"
);
}
);
visible = 1;
width = 707;
},
{
associatedMasterId = "6F4F10D2-8254-4335-A627-9F8D8891324D";
layerId = "9C93018F-8DE5-4115-89E1-F090CBBCC711";
name = path;
paths = (
{
closed = 0;
nodes = (
"20 500 LINE",
"187 0 LINE",
"354 500 LINE",
"520 0 LINE",
"687 500 LINE"
);
}
);
width = 707;
}
);
unicode = 0077;
},
{
glyphname = x;
lastChange = "2019-01-25 15:48:55 +0000";
layers = (
{
layerId = "6F4F10D2-8254-4335-A627-9F8D8891324D";
paths = (
{
closed = 1;
nodes = (
"90 -45 OFFCURVE",
"103 -38 OFFCURVE",
"111 -27 CURVE SMOOTH",
"263 175 LINE",
"414 -27 LINE SMOOTH",
"422 -38 OFFCURVE",
"435 -45 OFFCURVE",
"450 -45 CURVE SMOOTH",
"475 -45 OFFCURVE",
"495 -25 OFFCURVE",
"495 0 CURVE SMOOTH",
"495 10 OFFCURVE",
"492 20 OFFCURVE",
"486 27 CURVE SMOOTH",
"319 250 LINE",
"486 473 LINE SMOOTH",
"492 480 OFFCURVE",
"495 490 OFFCURVE",
"495 500 CURVE SMOOTH",
"495 525 OFFCURVE",
"475 545 OFFCURVE",
"450 545 CURVE SMOOTH",
"435 545 OFFCURVE",
"422 538 OFFCURVE",
"414 527 CURVE SMOOTH",
"263 325 LINE",
"111 527 LINE SMOOTH",
"103 538 OFFCURVE",
"90 545 OFFCURVE",
"75 545 CURVE SMOOTH",
"50 545 OFFCURVE",
"30 525 OFFCURVE",
"30 500 CURVE SMOOTH",
"30 490 OFFCURVE",
"33 480 OFFCURVE",
"39 473 CURVE SMOOTH",
"206 250 LINE",
"39 27 LINE SMOOTH",
"33 20 OFFCURVE",
"30 10 OFFCURVE",
"30 0 CURVE SMOOTH",
"30 -25 OFFCURVE",
"50 -45 OFFCURVE",
"75 -45 CURVE SMOOTH"
);
}
);
width = 525;
},
{
associatedMasterId = "6F4F10D2-8254-4335-A627-9F8D8891324D";
layerId = "8EC35D25-D3F1-4856-955B-AADA21ACE33F";
name = path;
paths = (
{
closed = 0;
nodes = (
"20 500 LINE",
"395 0 LINE"
);
},
{
closed = 0;
nodes = (
"20 0 LINE",
"395 500 LINE"
);
}
);
visible = 1;
width = 415;
},
{
associatedMasterId = "6F4F10D2-8254-4335-A627-9F8D8891324D";
layerId = "AFDA5FAF-146F-4A3F-915E-679865CE77E1";
name = path;
paths = (
{
closed = 0;
nodes = (
"20 500 LINE",
"395 0 LINE"
);
},
{
closed = 0;
nodes = (
"20 0 LINE",
"395 500 LINE"
);
}
);
width = 415;
}
);
unicode = 0078;
},
{
glyphname = y;
lastChange = "2019-01-25 15:48:55 +0000";
layers = (
{
layerId = "6F4F10D2-8254-4335-A627-9F8D8891324D";
paths = (
{
closed = 1;
nodes = (
"135 -375 OFFCURVE",
"150 -364 OFFCURVE",
"158 -349 CURVE SMOOTH",
"572 479 LINE SMOOTH",
"575 485 OFFCURVE",
"577 492 OFFCURVE",
"577 500 CURVE SMOOTH",
"577 525 OFFCURVE",
"557 545 OFFCURVE",
"532 545 CURVE SMOOTH",
"514 545 OFFCURVE",
"499 534 OFFCURVE",
"491 519 CURVE SMOOTH",
"295 126 LINE",
"116 518 LINE SMOOTH",
"109 534 OFFCURVE",
"94 545 OFFCURVE",
"75 545 CURVE SMOOTH",
"50 545 OFFCURVE",
"30 525 OFFCURVE",
"30 500 CURVE SMOOTH",
"30 493 OFFCURVE",
"32 486 OFFCURVE",
"34 480 CURVE SMOOTH",
"242 25 LINE",
"245 27 LINE",
"77 -309 LINE SMOOTH",
"74 -315 OFFCURVE",
"72 -322 OFFCURVE",
"72 -330 CURVE SMOOTH",
"72 -355 OFFCURVE",
"92 -375 OFFCURVE",
"117 -375 CURVE SMOOTH"
);
}
);
width = 607;
},
{
associatedMasterId = "6F4F10D2-8254-4335-A627-9F8D8891324D";
layerId = "366E8C8C-77B3-499D-AC43-B4DB1AD04A06";
name = path;
paths = (
{
closed = 0;
nodes = (
"20 500 LINE",
"228 44 LINE"
);
},
{
closed = 0;
nodes = (
"477 500 LINE",
"62 -330 LINE"
);
}
);
visible = 1;
width = 497;
},
{
associatedMasterId = "6F4F10D2-8254-4335-A627-9F8D8891324D";
layerId = "0EBC7390-6F93-40C9-8293-372D7D32C7C5";
name = path;
paths = (
{
closed = 0;
nodes = (
"20 500 LINE",
"228 44 LINE"
);
},
{
closed = 0;
nodes = (
"477 500 LINE",
"62 -330 LINE"
);
}
);
width = 497;
}
);
unicode = 0079;
},
{
glyphname = z;
lastChange = "2019-01-25 15:48:55 +0000";
layers = (
{
layerId = "6F4F10D2-8254-4335-A627-9F8D8891324D";
paths = (
{
closed = 1;
nodes = (
"450 -45 LINE SMOOTH",
"475 -45 OFFCURVE",
"495 -25 OFFCURVE",
"495 0 CURVE SMOOTH",
"495 25 OFFCURVE",
"475 45 OFFCURVE",
"450 45 CURVE SMOOTH",
"165 45 LINE",
"464 444 LINE SMOOTH",
"479 464 OFFCURVE",
"481 483 OFFCURVE",
"470 506 CURVE SMOOTH",
"466 512 LINE SMOOTH",
"455 535 OFFCURVE",
"439 545 OFFCURVE",
"413 545 CURVE SMOOTH",
"75 545 LINE SMOOTH",
"50 545 OFFCURVE",
"30 525 OFFCURVE",
"30 500 CURVE SMOOTH",
"30 475 OFFCURVE",
"50 455 OFFCURVE",
"75 455 CURVE SMOOTH",
"360 455 LINE",
"61 56 LINE SMOOTH",
"46 36 OFFCURVE",
"44 17 OFFCURVE",
"55 -6 CURVE SMOOTH",
"59 -12 LINE SMOOTH",
"70 -35 OFFCURVE",
"86 -45 OFFCURVE",
"112 -45 CURVE SMOOTH"
);
}
);
width = 525;
},
{
associatedMasterId = "6F4F10D2-8254-4335-A627-9F8D8891324D";
layerId = "EED7CEEA-7F20-468D-84C6-EDD1EB205F09";
name = path;
paths = (
{
closed = 0;
nodes = (
"20 500 LINE",
"395 500 LINE",
"20 0 LINE",
"395 0 LINE"
);
}
);
visible = 1;
width = 415;
},
{
associatedMasterId = "6F4F10D2-8254-4335-A627-9F8D8891324D";
layerId = "70F01FC7-57B2-4E48-A126-22CD543A93D5";
name = path;
paths = (
{
closed = 0;
nodes = (
"20 500 LINE",
"395 500 LINE",
"20 0 LINE",
"395 0 LINE"
);
}
);
width = 415;
}
);
unicode = 007A;
},
{
color = 1;
glyphname = f_f;
lastChange = "2019-01-25 15:48:55 +0000";
layers = (
{
layerId = "6F4F10D2-8254-4335-A627-9F8D8891324D";
paths = (
{
closed = 1;
nodes = (
"61 -20 OFFCURVE",
"70 -11 OFFCURVE",
"70 0 CURVE SMOOTH",
"70 401 LINE",
"241 401 LINE",
"241 0 LINE SMOOTH",
"241 -11 OFFCURVE",
"250 -20 OFFCURVE",
"261 -20 CURVE SMOOTH",
"272 -20 OFFCURVE",
"281 -11 OFFCURVE",
"281 0 CURVE SMOOTH",
"281 400 LINE",
"443 400 LINE SMOOTH",
"454 400 OFFCURVE",
"463 409 OFFCURVE",
"463 420 CURVE SMOOTH",
"463 431 OFFCURVE",
"454 440 OFFCURVE",
"443 440 CURVE SMOOTH",
"281 440 LINE",
"281 524 LINE SMOOTH",
"281 597 OFFCURVE",
"279 680 OFFCURVE",
"366 680 CURVE SMOOTH",
"407 680 OFFCURVE",
"437 670 OFFCURVE",
"458 650 CURVE SMOOTH",
"462 646 OFFCURVE",
"467 644 OFFCURVE",
"472 644 CURVE SMOOTH",
"483 644 OFFCURVE",
"492 653 OFFCURVE",
"492 664 CURVE SMOOTH",
"492 670 OFFCURVE",
"490 675 OFFCURVE",
"486 679 CURVE SMOOTH",
"457 706 OFFCURVE",
"416 720 OFFCURVE",
"366 720 CURVE SMOOTH",
"320 720 OFFCURVE",
"291 704 OFFCURVE",
"273 681 CURVE",
"244 706 OFFCURVE",
"203 720 OFFCURVE",
"155 720 CURVE SMOOTH",
"26 720 OFFCURVE",
"30 597 OFFCURVE",
"30 524 CURVE SMOOTH",
"30 0 LINE SMOOTH",
"30 -11 OFFCURVE",
"39 -20 OFFCURVE",
"50 -20 CURVE SMOOTH"
);
},
{
closed = 1;
nodes = (
"70 441 LINE",
"70 524 LINE SMOOTH",
"70 597 OFFCURVE",
"68 680 OFFCURVE",
"155 680 CURVE SMOOTH",
"196 680 OFFCURVE",
"226 670 OFFCURVE",
"247 650 CURVE SMOOTH",
"249 648 OFFCURVE",
"251 646 OFFCURVE",
"254 645 CURVE",
"240 606 OFFCURVE",
"241 559 OFFCURVE",
"241 524 CURVE SMOOTH",
"241 441 LINE"
);
}
);
width = 522;
},
{
associatedMasterId = "6F4F10D2-8254-4335-A627-9F8D8891324D";
layerId = "1D421E11-ADC2-499B-9EE7-6383B58B7CCE";
name = path;
paths = (
{
closed = 0;
nodes = (
"20 0 LINE",
"20 0 OFFCURVE",
"20 279 OFFCURVE",
"20 421 CURVE SMOOTH",
"20 524 LINE SMOOTH",
"20 597 OFFCURVE",
"17 700 OFFCURVE",
"125 700 CURVE SMOOTH",
"174 700 OFFCURVE",
"208 686 OFFCURVE",
"231 664 CURVE"
);
},
{
closed = 0;
nodes = (
"413 420 LINE",
"20 421 LINE"
);
},
{
closed = 0;
nodes = (
"231 0 LINE",
"231 0 OFFCURVE",
"231 279 OFFCURVE",
"231 421 CURVE SMOOTH",
"231 524 LINE SMOOTH",
"231 597 OFFCURVE",
"228 700 OFFCURVE",
"336 700 CURVE SMOOTH",
"385 700 OFFCURVE",
"419 686 OFFCURVE",
"442 664 CURVE"
);
}
);
visible = 1;
width = 462;
},
{
associatedMasterId = "6F4F10D2-8254-4335-A627-9F8D8891324D";
layerId = "1839084A-8630-410E-9EA2-8B6FB11D56A3";
name = path;
paths = (
{
closed = 0;
nodes = (
"20 0 LINE",
"20 0 OFFCURVE",
"20 279 OFFCURVE",
"20 421 CURVE SMOOTH",
"20 524 LINE SMOOTH",
"20 597 OFFCURVE",
"17 700 OFFCURVE",
"125 700 CURVE SMOOTH",
"174 700 OFFCURVE",
"208 686 OFFCURVE",
"231 664 CURVE"
);
},
{
closed = 0;
nodes = (
"413 420 LINE",
"20 421 LINE"
);
},
{
closed = 0;
nodes = (
"231 0 LINE",
"231 0 OFFCURVE",
"231 279 OFFCURVE",
"231 421 CURVE SMOOTH",
"231 524 LINE SMOOTH",
"231 597 OFFCURVE",
"228 700 OFFCURVE",
"336 700 CURVE SMOOTH",
"385 700 OFFCURVE",
"419 686 OFFCURVE",
"442 664 CURVE"
);
}
);
width = 462;
}
);
},
{
color = 1;
glyphname = f_f_l;
lastChange = "2019-01-25 15:48:55 +0000";
layers = (
{
layerId = "6F4F10D2-8254-4335-A627-9F8D8891324D";
paths = (
{
closed = 1;
nodes = (
"61 -20 OFFCURVE",
"70 -11 OFFCURVE",
"70 0 CURVE SMOOTH",
"70 401 LINE",
"241 400 LINE",
"241 0 LINE SMOOTH",
"241 -11 OFFCURVE",
"250 -20 OFFCURVE",
"261 -20 CURVE SMOOTH",
"272 -20 OFFCURVE",
"281 -11 OFFCURVE",
"281 0 CURVE SMOOTH",
"281 400 LINE",
"366 400 LINE SMOOTH",
"377 400 OFFCURVE",
"386 409 OFFCURVE",
"386 420 CURVE SMOOTH",
"386 431 OFFCURVE",
"377 440 OFFCURVE",
"366 440 CURVE SMOOTH",
"281 440 LINE",
"281 524 LINE SMOOTH",
"281 597 OFFCURVE",
"279 680 OFFCURVE",
"366 680 CURVE SMOOTH",
"403 680 OFFCURVE",
"431 672 OFFCURVE",
"452 655 CURVE",
"452 0 LINE SMOOTH",
"452 -11 OFFCURVE",
"461 -20 OFFCURVE",
"472 -20 CURVE SMOOTH",
"483 -20 OFFCURVE",
"492 -11 OFFCURVE",
"492 0 CURVE SMOOTH",
"492 651 LINE SMOOTH",
"492 661 OFFCURVE",
"491 666 OFFCURVE",
"489 671 CURVE SMOOTH",
"487 677 OFFCURVE",
"484 681 OFFCURVE",
"476 687 CURVE SMOOTH",
"448 709 OFFCURVE",
"410 720 OFFCURVE",
"366 720 CURVE SMOOTH",
"320 720 OFFCURVE",
"291 704 OFFCURVE",
"273 681 CURVE",
"244 706 OFFCURVE",
"203 720 OFFCURVE",
"155 720 CURVE SMOOTH",
"26 720 OFFCURVE",
"30 597 OFFCURVE",
"30 524 CURVE SMOOTH",
"30 0 LINE SMOOTH",
"30 -11 OFFCURVE",
"39 -20 OFFCURVE",
"50 -20 CURVE SMOOTH"
);
},
{
closed = 1;
nodes = (
"70 441 LINE",
"70 524 LINE SMOOTH",
"70 597 OFFCURVE",
"68 680 OFFCURVE",
"155 680 CURVE SMOOTH",
"196 680 OFFCURVE",
"226 670 OFFCURVE",
"247 650 CURVE SMOOTH",
"249 648 OFFCURVE",
"251 646 OFFCURVE",
"254 645 CURVE",
"240 606 OFFCURVE",
"241 559 OFFCURVE",
"241 524 CURVE SMOOTH",
"241 440 LINE"
);
}
);
width = 522;
},
{
associatedMasterId = "6F4F10D2-8254-4335-A627-9F8D8891324D";
layerId = "80B668BE-1256-4BD9-9C1E-482ADA27B112";
name = path;
paths = (
{
closed = 0;
nodes = (
"20 0 LINE",
"20 0 OFFCURVE",
"20 279 OFFCURVE",
"20 421 CURVE SMOOTH",
"20 524 LINE SMOOTH",
"20 597 OFFCURVE",
"17 700 OFFCURVE",
"125 700 CURVE SMOOTH",
"174 700 OFFCURVE",
"208 686 OFFCURVE",
"231 664 CURVE"
);
},
{
closed = 0;
nodes = (
"336 420 LINE",
"20 421 LINE"
);
},
{
closed = 0;
nodes = (
"231 0 LINE",
"231 0 OFFCURVE",
"231 279 OFFCURVE",
"231 421 CURVE SMOOTH",
"231 524 LINE SMOOTH",
"231 597 OFFCURVE",
"228 700 OFFCURVE",
"336 700 CURVE SMOOTH",
"385 700 OFFCURVE",
"419 686 OFFCURVE",
"442 664 CURVE",
"442 0 LINE"
);
}
);
visible = 1;
width = 462;
},
{
associatedMasterId = "6F4F10D2-8254-4335-A627-9F8D8891324D";
layerId = "33A62B0A-9A05-407E-8CAC-2D9F60691953";
name = path;
paths = (
{
closed = 0;
nodes = (
"20 0 LINE",
"20 0 OFFCURVE",
"20 279 OFFCURVE",
"20 421 CURVE SMOOTH",
"20 524 LINE SMOOTH",
"20 597 OFFCURVE",
"17 700 OFFCURVE",
"125 700 CURVE SMOOTH",
"174 700 OFFCURVE",
"208 686 OFFCURVE",
"231 664 CURVE"
);
},
{
closed = 0;
nodes = (
"336 420 LINE",
"20 421 LINE"
);
},
{
closed = 0;
nodes = (
"231 0 LINE",
"231 0 OFFCURVE",
"231 279 OFFCURVE",
"231 421 CURVE SMOOTH",
"231 524 LINE SMOOTH",
"231 597 OFFCURVE",
"228 700 OFFCURVE",
"336 700 CURVE SMOOTH",
"385 700 OFFCURVE",
"419 686 OFFCURVE",
"442 664 CURVE",
"442 0 LINE"
);
}
);
width = 462;
}
);
},
{
color = 1;
glyphname = f_t;
lastChange = "2019-01-25 15:48:55 +0000";
layers = (
{
layerId = "6F4F10D2-8254-4335-A627-9F8D8891324D";
paths = (
{
closed = 1;
nodes = (
"61 -20 OFFCURVE",
"70 -11 OFFCURVE",
"70 0 CURVE SMOOTH",
"70 401 LINE",
"241 401 LINE",
"241 176 LINE SMOOTH",
"241 103 OFFCURVE",
"236 -20 OFFCURVE",
"366 -20 CURVE SMOOTH",
"416 -20 OFFCURVE",
"457 -6 OFFCURVE",
"486 21 CURVE SMOOTH",
"490 25 OFFCURVE",
"492 30 OFFCURVE",
"492 36 CURVE SMOOTH",
"492 47 OFFCURVE",
"483 56 OFFCURVE",
"472 56 CURVE SMOOTH",
"467 56 OFFCURVE",
"462 54 OFFCURVE",
"458 50 CURVE SMOOTH",
"437 30 OFFCURVE",
"407 20 OFFCURVE",
"366 20 CURVE SMOOTH",
"278 20 OFFCURVE",
"281 103 OFFCURVE",
"281 176 CURVE SMOOTH",
"281 402 LINE",
"436 402 LINE SMOOTH",
"447 402 OFFCURVE",
"456 411 OFFCURVE",
"456 422 CURVE SMOOTH",
"456 433 OFFCURVE",
"447 442 OFFCURVE",
"436 442 CURVE SMOOTH",
"281 442 LINE",
"281 651 LINE SMOOTH",
"281 661 OFFCURVE",
"280 666 OFFCURVE",
"278 671 CURVE SMOOTH",
"276 677 OFFCURVE",
"273 681 OFFCURVE",
"265 687 CURVE SMOOTH",
"237 709 OFFCURVE",
"199 720 OFFCURVE",
"155 720 CURVE SMOOTH",
"26 720 OFFCURVE",
"30 597 OFFCURVE",
"30 524 CURVE SMOOTH",
"30 0 LINE SMOOTH",
"30 -11 OFFCURVE",
"39 -20 OFFCURVE",
"50 -20 CURVE SMOOTH"
);
},
{
closed = 1;
nodes = (
"70 524 LINE SMOOTH",
"70 597 OFFCURVE",
"68 680 OFFCURVE",
"155 680 CURVE SMOOTH",
"192 680 OFFCURVE",
"220 672 OFFCURVE",
"241 655 CURVE",
"241 441 LINE",
"70 441 LINE"
);
}
);
width = 522;
},
{
associatedMasterId = "6F4F10D2-8254-4335-A627-9F8D8891324D";
layerId = "B6EC5363-0CFD-4271-ACC8-B967402AD500";
name = path;
paths = (
{
closed = 0;
nodes = (
"406 422 LINE",
"20 421 LINE"
);
},
{
closed = 0;
nodes = (
"20 0 LINE",
"20 0 OFFCURVE",
"20 279 OFFCURVE",
"20 421 CURVE",
"20 524 LINE",
"20 597 OFFCURVE",
"17 700 OFFCURVE",
"125 700 CURVE",
"174 700 OFFCURVE",
"208 686 OFFCURVE",
"231 664 CURVE SMOOTH",
"231 664 OFFCURVE",
"231 421 OFFCURVE",
"231 279 CURVE",
"231 176 LINE",
"231 103 OFFCURVE",
"227 0 OFFCURVE",
"336 0 CURVE",
"385 0 OFFCURVE",
"419 14 OFFCURVE",
"442 36 CURVE SMOOTH"
);
}
);
visible = 1;
width = 462;
},
{
associatedMasterId = "6F4F10D2-8254-4335-A627-9F8D8891324D";
layerId = "39D39D04-D8A2-40EE-8035-B997357FB18B";
name = path;
paths = (
{
closed = 0;
nodes = (
"406 422 LINE",
"20 421 LINE"
);
},
{
closed = 0;
nodes = (
"20 0 LINE",
"20 0 OFFCURVE",
"20 279 OFFCURVE",
"20 421 CURVE",
"20 524 LINE",
"20 597 OFFCURVE",
"17 700 OFFCURVE",
"125 700 CURVE",
"174 700 OFFCURVE",
"208 686 OFFCURVE",
"231 664 CURVE SMOOTH",
"231 664 OFFCURVE",
"231 421 OFFCURVE",
"231 279 CURVE",
"231 176 LINE",
"231 103 OFFCURVE",
"227 0 OFFCURVE",
"336 0 CURVE",
"385 0 OFFCURVE",
"419 14 OFFCURVE",
"442 36 CURVE SMOOTH"
);
}
);
width = 462;
}
);
},
{
glyphname = zero;
lastChange = "2019-01-25 15:48:55 +0000";
layers = (
{
layerId = "6F4F10D2-8254-4335-A627-9F8D8891324D";
paths = (
{
closed = 1;
nodes = (
"504 -45 OFFCURVE",
"614 110 OFFCURVE",
"614 350 CURVE SMOOTH",
"614 602 OFFCURVE",
"510 745 OFFCURVE",
"322 745 CURVE SMOOTH",
"53 745 OFFCURVE",
"30 502 OFFCURVE",
"30 350 CURVE SMOOTH",
"30 94 OFFCURVE",
"131 -45 OFFCURVE",
"322 -45 CURVE SMOOTH"
);
},
{
closed = 1;
nodes = (
"184 45 OFFCURVE",
"120 145 OFFCURVE",
"120 350 CURVE SMOOTH",
"120 568 OFFCURVE",
"176 655 OFFCURVE",
"322 655 CURVE SMOOTH",
"456 655 OFFCURVE",
"524 552 OFFCURVE",
"524 350 CURVE SMOOTH",
"524 160 OFFCURVE",
"450 45 OFFCURVE",
"322 45 CURVE SMOOTH"
);
}
);
width = 644;
},
{
associatedMasterId = "6F4F10D2-8254-4335-A627-9F8D8891324D";
layerId = "6A46793A-FE78-43D2-906B-0BD7B2A4E6D8";
name = path;
paths = (
{
closed = 1;
nodes = (
"514 231 OFFCURVE",
"477 0 OFFCURVE",
"267 0 CURVE SMOOTH",
"39 0 OFFCURVE",
"20 231 OFFCURVE",
"20 350 CURVE SMOOTH",
"20 500 OFFCURVE",
"39 700 OFFCURVE",
"267 700 CURVE SMOOTH",
"477 700 OFFCURVE",
"514 496 OFFCURVE",
"514 350 CURVE SMOOTH"
);
}
);
visible = 1;
width = 534;
},
{
associatedMasterId = "6F4F10D2-8254-4335-A627-9F8D8891324D";
layerId = "64CD8116-8D36-4116-859A-ABD728A6F318";
name = path;
paths = (
{
closed = 1;
nodes = (
"514 231 OFFCURVE",
"477 0 OFFCURVE",
"267 0 CURVE SMOOTH",
"39 0 OFFCURVE",
"20 231 OFFCURVE",
"20 350 CURVE SMOOTH",
"20 500 OFFCURVE",
"39 700 OFFCURVE",
"267 700 CURVE SMOOTH",
"477 700 OFFCURVE",
"514 496 OFFCURVE",
"514 350 CURVE SMOOTH"
);
}
);
width = 534;
}
);
unicode = 0030;
},
{
glyphname = one;
lastChange = "2019-01-25 15:48:55 +0000";
layers = (
{
layerId = "6F4F10D2-8254-4335-A627-9F8D8891324D";
paths = (
{
closed = 1;
nodes = (
"241 -45 OFFCURVE",
"261 -25 OFFCURVE",
"261 0 CURVE SMOOTH",
"261 664 LINE SMOOTH",
"261 689 OFFCURVE",
"251 705 OFFCURVE",
"229 717 CURVE SMOOTH",
"222 720 LINE SMOOTH",
"200 731 OFFCURVE",
"181 730 OFFCURVE",
"160 715 CURVE SMOOTH",
"49 636 LINE SMOOTH",
"38 628 OFFCURVE",
"30 614 OFFCURVE",
"30 599 CURVE SMOOTH",
"30 574 OFFCURVE",
"50 554 OFFCURVE",
"75 554 CURVE SMOOTH",
"85 554 OFFCURVE",
"94 557 OFFCURVE",
"102 563 CURVE SMOOTH",
"171 612 LINE",
"171 0 LINE SMOOTH",
"171 -25 OFFCURVE",
"191 -45 OFFCURVE",
"216 -45 CURVE SMOOTH"
);
}
);
width = 291;
},
{
associatedMasterId = "6F4F10D2-8254-4335-A627-9F8D8891324D";
layerId = "42DAE4EA-5DB5-4E18-AB0D-086BC37373E3";
name = path;
paths = (
{
closed = 0;
nodes = (
"161 0 LINE",
"161 700 LINE",
"20 599 LINE"
);
}
);
visible = 1;
width = 181;
},
{
associatedMasterId = "6F4F10D2-8254-4335-A627-9F8D8891324D";
layerId = "D236E5AC-D308-468D-8FA7-A3AE03602A50";
name = path;
paths = (
{
closed = 0;
nodes = (
"161 0 LINE",
"161 700 LINE",
"20 599 LINE"
);
}
);
width = 181;
}
);
unicode = 0031;
},
{
glyphname = two;
lastChange = "2019-01-25 15:48:55 +0000";
layers = (
{
layerId = "6F4F10D2-8254-4335-A627-9F8D8891324D";
paths = (
{
closed = 1;
nodes = (
"429 -45 LINE SMOOTH",
"454 -45 OFFCURVE",
"474 -25 OFFCURVE",
"474 0 CURVE SMOOTH",
"474 25 OFFCURVE",
"454 45 OFFCURVE",
"429 45 CURVE SMOOTH",
"169 45 LINE",
"210 102 OFFCURVE",
"268 181 OFFCURVE",
"314 240 CURVE SMOOTH",
"320 247 OFFCURVE",
"325 254 OFFCURVE",
"331 261 CURVE SMOOTH",
"389 333 OFFCURVE",
"450 409 OFFCURVE",
"450 524 CURVE SMOOTH",
"450 648 OFFCURVE",
"364 745 OFFCURVE",
"251 745 CURVE SMOOTH",
"81 745 OFFCURVE",
"48 649 OFFCURVE",
"33 603 CURVE SMOOTH",
"31 598 OFFCURVE",
"30 593 OFFCURVE",
"30 588 CURVE SMOOTH",
"30 563 OFFCURVE",
"50 543 OFFCURVE",
"75 543 CURVE SMOOTH",
"95 543 OFFCURVE",
"113 556 OFFCURVE",
"118 575 CURVE SMOOTH",
"133 620 OFFCURVE",
"145 655 OFFCURVE",
"251 655 CURVE SMOOTH",
"313 655 OFFCURVE",
"360 599 OFFCURVE",
"360 524 CURVE SMOOTH",
"360 441 OFFCURVE",
"319 390 OFFCURVE",
"260 317 CURVE SMOOTH",
"255 310 OFFCURVE",
"249 303 OFFCURVE",
"244 296 CURVE SMOOTH",
"183 219 OFFCURVE",
"103 108 OFFCURVE",
"65 56 CURVE SMOOTH",
"51 35 OFFCURVE",
"49 16 OFFCURVE",
"61 -6 CURVE SMOOTH",
"64 -13 LINE SMOOTH",
"76 -35 OFFCURVE",
"92 -45 OFFCURVE",
"117 -45 CURVE SMOOTH"
);
}
);
width = 504;
},
{
associatedMasterId = "6F4F10D2-8254-4335-A627-9F8D8891324D";
layerId = "A705154E-8D13-463A-B8D5-E5B9DE301722";
name = path;
paths = (
{
closed = 0;
nodes = (
"374 0 LINE",
"26 0 LINE SMOOTH",
"26 0 OFFCURVE",
"143 165 OFFCURVE",
"224 268 CURVE SMOOTH",
"289 350 OFFCURVE",
"350 416 OFFCURVE",
"350 524 CURVE SMOOTH",
"350 602 OFFCURVE",
"301 700 OFFCURVE",
"196 700 CURVE SMOOTH",
"57 700 OFFCURVE",
"35 634 OFFCURVE",
"20 588 CURVE"
);
}
);
visible = 1;
width = 394;
},
{
associatedMasterId = "6F4F10D2-8254-4335-A627-9F8D8891324D";
layerId = "AB58D87B-65E5-4C5D-8F1D-A7B8F02971F5";
name = path;
paths = (
{
closed = 0;
nodes = (
"374 0 LINE",
"26 0 LINE SMOOTH",
"26 0 OFFCURVE",
"143 165 OFFCURVE",
"224 268 CURVE SMOOTH",
"289 350 OFFCURVE",
"350 416 OFFCURVE",
"350 524 CURVE SMOOTH",
"350 602 OFFCURVE",
"301 700 OFFCURVE",
"196 700 CURVE SMOOTH",
"57 700 OFFCURVE",
"35 634 OFFCURVE",
"20 588 CURVE"
);
}
);
width = 394;
}
);
unicode = 0032;
},
{
glyphname = three;
lastChange = "2019-01-25 15:48:55 +0000";
layers = (
{
layerId = "6F4F10D2-8254-4335-A627-9F8D8891324D";
paths = (
{
closed = 1;
nodes = (
"420 -45 OFFCURVE",
"537 52 OFFCURVE",
"537 169 CURVE SMOOTH",
"537 246 OFFCURVE",
"501 312 OFFCURVE",
"442 352 CURVE",
"501 391 OFFCURVE",
"537 454 OFFCURVE",
"537 531 CURVE SMOOTH",
"537 648 OFFCURVE",
"420 745 OFFCURVE",
"284 745 CURVE SMOOTH",
"46 745 OFFCURVE",
"31 605 OFFCURVE",
"30 600 CURVE SMOOTH",
"30 599 OFFCURVE",
"30 597 OFFCURVE",
"30 595 CURVE SMOOTH",
"30 570 OFFCURVE",
"50 550 OFFCURVE",
"75 550 CURVE SMOOTH",
"98 550 OFFCURVE",
"117 567 OFFCURVE",
"120 590 CURVE SMOOTH",
"120 594 OFFCURVE",
"131 655 OFFCURVE",
"284 655 CURVE SMOOTH",
"370 655 OFFCURVE",
"447 597 OFFCURVE",
"447 531 CURVE SMOOTH",
"447 464 OFFCURVE",
"401 416 OFFCURVE",
"326 403 CURVE SMOOTH",
"297 398 OFFCURVE",
"282 384 OFFCURVE",
"282 356 CURVE SMOOTH",
"282 352 LINE SMOOTH",
"282 324 OFFCURVE",
"297 310 OFFCURVE",
"325 305 CURVE SMOOTH",
"399 291 OFFCURVE",
"447 239 OFFCURVE",
"447 169 CURVE SMOOTH",
"447 103 OFFCURVE",
"370 45 OFFCURVE",
"284 45 CURVE SMOOTH",
"131 45 OFFCURVE",
"120 106 OFFCURVE",
"120 110 CURVE SMOOTH",
"117 133 OFFCURVE",
"98 150 OFFCURVE",
"75 150 CURVE SMOOTH",
"50 150 OFFCURVE",
"30 130 OFFCURVE",
"30 105 CURVE SMOOTH",
"30 103 OFFCURVE",
"30 101 OFFCURVE",
"30 100 CURVE SMOOTH",
"31 95 OFFCURVE",
"46 -45 OFFCURVE",
"284 -45 CURVE SMOOTH"
);
},
{
closed = 1;
nodes = (
"312 308 OFFCURVE",
"332 328 OFFCURVE",
"332 353 CURVE SMOOTH",
"332 378 OFFCURVE",
"312 398 OFFCURVE",
"287 398 CURVE SMOOTH",
"262 398 OFFCURVE",
"242 378 OFFCURVE",
"242 353 CURVE SMOOTH",
"242 328 OFFCURVE",
"262 308 OFFCURVE",
"287 308 CURVE SMOOTH"
);
}
);
width = 567;
},
{
associatedMasterId = "6F4F10D2-8254-4335-A627-9F8D8891324D";
layerId = "CA756AD3-CEBD-4446-A96C-CAF0C8355ADC";
name = path;
paths = (
{
closed = 0;
nodes = (
"20 105 LINE",
"20 105 OFFCURVE",
"29 0 OFFCURVE",
"229 0 CURVE SMOOTH",
"329 0 OFFCURVE",
"437 69 OFFCURVE",
"437 169 CURVE SMOOTH",
"437 269 OFFCURVE",
"359 354 OFFCURVE",
"227 354 CURVE",
"359 354 OFFCURVE",
"437 431 OFFCURVE",
"437 531 CURVE SMOOTH",
"437 631 OFFCURVE",
"329 700 OFFCURVE",
"229 700 CURVE SMOOTH",
"29 700 OFFCURVE",
"20 595 OFFCURVE",
"20 595 CURVE"
);
}
);
visible = 1;
width = 457;
}
);
unicode = 0033;
},
{
glyphname = four;
lastChange = "2019-01-25 15:48:55 +0000";
layers = (
{
layerId = "6F4F10D2-8254-4335-A627-9F8D8891324D";
paths = (
{
closed = 1;
nodes = (
"416 -45 OFFCURVE",
"436 -25 OFFCURVE",
"436 0 CURVE SMOOTH",
"436 141 LINE",
"553 141 LINE SMOOTH",
"578 141 OFFCURVE",
"598 161 OFFCURVE",
"598 186 CURVE SMOOTH",
"598 211 OFFCURVE",
"578 231 OFFCURVE",
"553 231 CURVE SMOOTH",
"436 231 LINE",
"436 661 LINE SMOOTH",
"436 687 OFFCURVE",
"424 704 OFFCURVE",
"398 711 CURVE SMOOTH",
"391 713 LINE SMOOTH",
"365 721 OFFCURVE",
"346 714 OFFCURVE",
"332 691 CURVE SMOOTH",
"41 241 LINE SMOOTH",
"27 220 OFFCURVE",
"27 201 OFFCURVE",
"38 179 CURVE SMOOTH",
"42 173 LINE SMOOTH",
"54 151 OFFCURVE",
"70 141 OFFCURVE",
"95 141 CURVE SMOOTH",
"346 141 LINE",
"346 0 LINE SMOOTH",
"346 -25 OFFCURVE",
"366 -45 OFFCURVE",
"391 -45 CURVE SMOOTH"
);
},
{
closed = 1;
nodes = (
"346 547 LINE",
"346 231 LINE",
"142 231 LINE"
);
}
);
width = 628;
},
{
associatedMasterId = "6F4F10D2-8254-4335-A627-9F8D8891324D";
layerId = "60AB2E47-AD76-40EA-89C8-CE537952BB31";
name = path;
paths = (
{
closed = 0;
nodes = (
"352 0 LINE",
"352 700 LINE",
"20 186 LINE",
"514 186 LINE"
);
}
);
visible = 1;
width = 534;
},
{
associatedMasterId = "6F4F10D2-8254-4335-A627-9F8D8891324D";
layerId = "6930ACB8-9F39-4DDC-8FD8-D9E40C382EA3";
name = path;
paths = (
{
closed = 0;
nodes = (
"352 0 LINE",
"352 700 LINE",
"20 186 LINE",
"514 186 LINE"
);
}
);
width = 534;
}
);
unicode = 0034;
},
{
glyphname = five;
lastChange = "2019-01-25 15:48:55 +0000";
layers = (
{
layerId = "6F4F10D2-8254-4335-A627-9F8D8891324D";
paths = (
{
closed = 1;
nodes = (
"422 -45 OFFCURVE",
"540 81 OFFCURVE",
"540 245 CURVE SMOOTH",
"540 415 OFFCURVE",
"442 545 OFFCURVE",
"307 545 CURVE SMOOTH",
"230 545 OFFCURVE",
"165 523 OFFCURVE",
"120 501 CURVE",
"120 655 LINE",
"495 655 LINE SMOOTH",
"520 655 OFFCURVE",
"540 675 OFFCURVE",
"540 700 CURVE SMOOTH",
"540 725 OFFCURVE",
"520 745 OFFCURVE",
"495 745 CURVE SMOOTH",
"108 745 LINE SMOOTH",
"84 745 OFFCURVE",
"68 738 OFFCURVE",
"53 723 CURVE SMOOTH",
"37 707 OFFCURVE",
"30 691 OFFCURVE",
"30 667 CURVE SMOOTH",
"30 457 LINE SMOOTH",
"30 432 OFFCURVE",
"41 415 OFFCURVE",
"64 405 CURVE SMOOTH",
"72 401 LINE SMOOTH",
"94 390 OFFCURVE",
"112 393 OFFCURVE",
"134 406 CURVE SMOOTH",
"167 427 OFFCURVE",
"228 455 OFFCURVE",
"307 455 CURVE SMOOTH",
"389 455 OFFCURVE",
"450 366 OFFCURVE",
"450 245 CURVE SMOOTH",
"450 130 OFFCURVE",
"372 45 OFFCURVE",
"264 45 CURVE SMOOTH",
"148 45 OFFCURVE",
"121 111 OFFCURVE",
"118 119 CURVE",
"112 137 OFFCURVE",
"95 150 OFFCURVE",
"75 150 CURVE SMOOTH",
"50 150 OFFCURVE",
"30 130 OFFCURVE",
"30 105 CURVE SMOOTH",
"30 100 OFFCURVE",
"31 95 OFFCURVE",
"33 90 CURVE SMOOTH",
"36 79 OFFCURVE",
"83 -45 OFFCURVE",
"264 -45 CURVE SMOOTH"
);
}
);
width = 570;
},
{
associatedMasterId = "6F4F10D2-8254-4335-A627-9F8D8891324D";
layerId = "36A1AC3C-1441-4F10-9469-8B15D0AED522";
name = path;
paths = (
{
closed = 0;
nodes = (
"440 700 LINE",
"20 700 LINE",
"20 420 LINE",
"20 420 OFFCURVE",
"111 500 OFFCURVE",
"252 500 CURVE SMOOTH",
"378 500 OFFCURVE",
"440 365 OFFCURVE",
"440 245 CURVE SMOOTH",
"440 140 OFFCURVE",
"371 0 OFFCURVE",
"209 0 CURVE SMOOTH",
"53 0 OFFCURVE",
"20 105 OFFCURVE",
"20 105 CURVE"
);
}
);
visible = 1;
width = 460;
},
{
associatedMasterId = "6F4F10D2-8254-4335-A627-9F8D8891324D";
layerId = "35FA3CD5-C826-4CFE-95B7-28F78EBD4D94";
name = path;
paths = (
{
closed = 0;
nodes = (
"440 700 LINE",
"20 700 LINE",
"20 420 LINE",
"20 420 OFFCURVE",
"111 500 OFFCURVE",
"252 500 CURVE SMOOTH",
"378 500 OFFCURVE",
"440 365 OFFCURVE",
"440 245 CURVE SMOOTH",
"440 140 OFFCURVE",
"371 0 OFFCURVE",
"209 0 CURVE SMOOTH",
"53 0 OFFCURVE",
"20 105 OFFCURVE",
"20 105 CURVE"
);
}
);
width = 460;
}
);
unicode = 0035;
},
{
glyphname = six;
lastChange = "2019-01-25 15:48:55 +0000";
layers = (
{
layerId = "6F4F10D2-8254-4335-A627-9F8D8891324D";
paths = (
{
closed = 1;
nodes = (
"476 -45 OFFCURVE",
"575 69 OFFCURVE",
"575 245 CURVE SMOOTH",
"575 410 OFFCURVE",
"485 500 OFFCURVE",
"320 500 CURVE SMOOTH",
"242 500 OFFCURVE",
"174 471 OFFCURVE",
"124 442 CURVE",
"140 592 OFFCURVE",
"200 655 OFFCURVE",
"320 655 CURVE SMOOTH",
"390 655 OFFCURVE",
"434 640 OFFCURVE",
"468 606 CURVE SMOOTH",
"476 597 OFFCURVE",
"487 592 OFFCURVE",
"500 592 CURVE SMOOTH",
"525 592 OFFCURVE",
"545 612 OFFCURVE",
"545 637 CURVE SMOOTH",
"545 649 OFFCURVE",
"540 660 OFFCURVE",
"532 669 CURVE SMOOTH",
"482 720 OFFCURVE",
"412 745 OFFCURVE",
"320 745 CURVE SMOOTH",
"123 745 OFFCURVE",
"30 615 OFFCURVE",
"30 350 CURVE SMOOTH",
"30 85 OFFCURVE",
"123 -45 OFFCURVE",
"320 -45 CURVE SMOOTH"
);
},
{
closed = 1;
nodes = (
"183 45 OFFCURVE",
"124 128 OFFCURVE",
"120 330 CURVE",
"150 355 OFFCURVE",
"226 410 OFFCURVE",
"320 410 CURVE SMOOTH",
"435 410 OFFCURVE",
"485 360 OFFCURVE",
"485 245 CURVE SMOOTH",
"485 118 OFFCURVE",
"425 45 OFFCURVE",
"320 45 CURVE SMOOTH"
);
}
);
width = 605;
},
{
associatedMasterId = "6F4F10D2-8254-4335-A627-9F8D8891324D";
layerId = "BFCD62CE-79C5-4DC1-AC45-D7953E121F4B";
name = path;
paths = (
{
closed = 0;
nodes = (
"20 350 LINE",
"20 350 OFFCURVE",
"125 455 OFFCURVE",
"265 455 CURVE SMOOTH",
"405 455 OFFCURVE",
"475 385 OFFCURVE",
"475 245 CURVE SMOOTH",
"475 105 OFFCURVE",
"405 0 OFFCURVE",
"265 0 CURVE SMOOTH",
"55 0 OFFCURVE",
"20 175 OFFCURVE",
"20 350 CURVE SMOOTH",
"20 525 OFFCURVE",
"55 700 OFFCURVE",
"265 700 CURVE SMOOTH",
"342 700 OFFCURVE",
"401 682 OFFCURVE",
"445 637 CURVE"
);
}
);
visible = 1;
width = 495;
},
{
associatedMasterId = "6F4F10D2-8254-4335-A627-9F8D8891324D";
layerId = "43CDC584-D1BA-45C5-823B-C9FAE10A5958";
name = path;
paths = (
{
closed = 0;
nodes = (
"20 350 LINE",
"20 350 OFFCURVE",
"125 455 OFFCURVE",
"265 455 CURVE SMOOTH",
"405 455 OFFCURVE",
"475 385 OFFCURVE",
"475 245 CURVE SMOOTH",
"475 105 OFFCURVE",
"405 0 OFFCURVE",
"265 0 CURVE SMOOTH",
"55 0 OFFCURVE",
"20 175 OFFCURVE",
"20 350 CURVE SMOOTH",
"20 525 OFFCURVE",
"55 700 OFFCURVE",
"265 700 CURVE SMOOTH",
"342 700 OFFCURVE",
"401 682 OFFCURVE",
"445 637 CURVE"
);
}
);
width = 495;
}
);
unicode = 0036;
},
{
glyphname = seven;
lastChange = "2019-01-25 15:48:55 +0000";
layers = (
{
layerId = "6F4F10D2-8254-4335-A627-9F8D8891324D";
paths = (
{
closed = 1;
nodes = (
"205 -45 OFFCURVE",
"222 -32 OFFCURVE",
"228 -14 CURVE SMOOTH",
"336 295 OFFCURVE",
"517 558 OFFCURVE",
"579 643 CURVE SMOOTH",
"594 664 OFFCURVE",
"596 683 OFFCURVE",
"585 705 CURVE SMOOTH",
"581 712 LINE SMOOTH",
"570 735 OFFCURVE",
"554 745 OFFCURVE",
"528 745 CURVE SMOOTH",
"108 745 LINE SMOOTH",
"84 745 OFFCURVE",
"68 738 OFFCURVE",
"53 723 CURVE SMOOTH",
"37 707 OFFCURVE",
"30 691 OFFCURVE",
"30 667 CURVE SMOOTH",
"30 595 LINE SMOOTH",
"30 570 OFFCURVE",
"50 550 OFFCURVE",
"75 550 CURVE SMOOTH",
"100 550 OFFCURVE",
"120 570 OFFCURVE",
"120 595 CURVE SMOOTH",
"120 655 LINE",
"477 655 LINE",
"396 539 OFFCURVE",
"241 296 OFFCURVE",
"143 16 CURVE SMOOTH",
"141 11 OFFCURVE",
"140 6 OFFCURVE",
"140 0 CURVE SMOOTH",
"140 -25 OFFCURVE",
"160 -45 OFFCURVE",
"185 -45 CURVE SMOOTH"
);
}
);
width = 622;
},
{
associatedMasterId = "6F4F10D2-8254-4335-A627-9F8D8891324D";
layerId = "36EC9443-C3AC-4AB5-85DA-AEAD23DCF694";
name = path;
paths = (
{
closed = 0;
nodes = (
"110 0 LINE",
"245 385 OFFCURVE",
"490 700 OFFCURVE",
"490 700 CURVE SMOOTH",
"0 700 LINE",
"0 595 LINE"
);
}
);
visible = 1;
width = 600;
},
{
associatedMasterId = "6F4F10D2-8254-4335-A627-9F8D8891324D";
layerId = "40AE1D4A-71CD-4E6C-A499-3A38645BC263";
name = path;
paths = (
{
closed = 0;
nodes = (
"110 0 LINE",
"245 385 OFFCURVE",
"490 700 OFFCURVE",
"490 700 CURVE SMOOTH",
"0 700 LINE",
"0 595 LINE"
);
}
);
width = 600;
}
);
unicode = 0037;
},
{
glyphname = eight;
lastChange = "2019-01-25 15:48:55 +0000";
layers = (
{
layerId = "6F4F10D2-8254-4335-A627-9F8D8891324D";
paths = (
{
closed = 1;
nodes = (
"432 -45 OFFCURVE",
"549 53 OFFCURVE",
"549 177 CURVE SMOOTH",
"549 253 OFFCURVE",
"504 320 OFFCURVE",
"436 360 CURVE",
"492 399 OFFCURVE",
"528 461 OFFCURVE",
"528 530 CURVE SMOOTH",
"528 649 OFFCURVE",
"421 745 OFFCURVE",
"289 745 CURVE SMOOTH",
"158 745 OFFCURVE",
"51 649 OFFCURVE",
"51 530 CURVE SMOOTH",
"51 461 OFFCURVE",
"87 399 OFFCURVE",
"142 360 CURVE",
"75 320 OFFCURVE",
"30 253 OFFCURVE",
"30 177 CURVE SMOOTH",
"30 53 OFFCURVE",
"147 -45 OFFCURVE",
"289 -45 CURVE SMOOTH"
);
},
{
closed = 1;
nodes = (
"195 45 OFFCURVE",
"120 105 OFFCURVE",
"120 177 CURVE SMOOTH",
"120 248 OFFCURVE",
"196 309 OFFCURVE",
"289 309 CURVE SMOOTH",
"383 309 OFFCURVE",
"459 248 OFFCURVE",
"459 177 CURVE SMOOTH",
"459 105 OFFCURVE",
"383 45 OFFCURVE",
"289 45 CURVE SMOOTH"
);
},
{
closed = 1;
nodes = (
"206 404 OFFCURVE",
"141 460 OFFCURVE",
"141 530 CURVE SMOOTH",
"141 599 OFFCURVE",
"207 655 OFFCURVE",
"289 655 CURVE SMOOTH",
"372 655 OFFCURVE",
"438 598 OFFCURVE",
"438 530 CURVE SMOOTH",
"438 461 OFFCURVE",
"372 404 OFFCURVE",
"289 404 CURVE SMOOTH"
);
}
);
width = 579;
},
{
associatedMasterId = "6F4F10D2-8254-4335-A627-9F8D8891324D";
layerId = "51EDDB0D-3AB3-4321-856C-8B1279AC6FAF";
name = path;
paths = (
{
closed = 1;
nodes = (
"471 79 OFFCURVE",
"375 0 OFFCURVE",
"256 0 CURVE SMOOTH",
"138 0 OFFCURVE",
"42 79 OFFCURVE",
"42 177 CURVE SMOOTH",
"42 274 OFFCURVE",
"138 354 OFFCURVE",
"256 354 CURVE SMOOTH",
"375 354 OFFCURVE",
"471 274 OFFCURVE",
"471 177 CURVE SMOOTH"
);
},
{
closed = 1;
nodes = (
"450 435 OFFCURVE",
"363 359 OFFCURVE",
"256 359 CURVE SMOOTH",
"149 359 OFFCURVE",
"63 435 OFFCURVE",
"63 530 CURVE SMOOTH",
"63 624 OFFCURVE",
"149 700 OFFCURVE",
"256 700 CURVE SMOOTH",
"363 700 OFFCURVE",
"450 624 OFFCURVE",
"450 530 CURVE SMOOTH"
);
}
);
visible = 1;
width = 513;
},
{
associatedMasterId = "6F4F10D2-8254-4335-A627-9F8D8891324D";
layerId = "0BEE930C-6F0E-4CB4-815C-1E5045B308B5";
name = path;
paths = (
{
closed = 1;
nodes = (
"493 79 OFFCURVE",
"387 0 OFFCURVE",
"256 0 CURVE SMOOTH",
"126 0 OFFCURVE",
"20 79 OFFCURVE",
"20 177 CURVE SMOOTH",
"20 274 OFFCURVE",
"126 354 OFFCURVE",
"256 354 CURVE SMOOTH",
"387 354 OFFCURVE",
"493 274 OFFCURVE",
"493 177 CURVE SMOOTH"
);
},
{
closed = 1;
nodes = (
"450 435 OFFCURVE",
"363 359 OFFCURVE",
"256 359 CURVE SMOOTH",
"149 359 OFFCURVE",
"63 435 OFFCURVE",
"63 530 CURVE SMOOTH",
"63 624 OFFCURVE",
"149 700 OFFCURVE",
"256 700 CURVE SMOOTH",
"363 700 OFFCURVE",
"450 624 OFFCURVE",
"450 530 CURVE SMOOTH"
);
}
);
width = 513;
}
);
unicode = 0038;
},
{
glyphname = nine;
lastChange = "2019-01-25 15:48:55 +0000";
layers = (
{
layerId = "6F4F10D2-8254-4335-A627-9F8D8891324D";
paths = (
{
closed = 1;
nodes = (
"482 -45 OFFCURVE",
"575 85 OFFCURVE",
"575 350 CURVE SMOOTH",
"575 615 OFFCURVE",
"482 745 OFFCURVE",
"285 745 CURVE SMOOTH",
"129 745 OFFCURVE",
"30 631 OFFCURVE",
"30 455 CURVE SMOOTH",
"30 290 OFFCURVE",
"120 200 OFFCURVE",
"285 200 CURVE SMOOTH",
"363 200 OFFCURVE",
"431 229 OFFCURVE",
"481 258 CURVE",
"465 108 OFFCURVE",
"405 45 OFFCURVE",
"285 45 CURVE SMOOTH",
"215 45 OFFCURVE",
"171 60 OFFCURVE",
"137 94 CURVE SMOOTH",
"129 103 OFFCURVE",
"118 108 OFFCURVE",
"105 108 CURVE SMOOTH",
"80 108 OFFCURVE",
"60 88 OFFCURVE",
"60 63 CURVE SMOOTH",
"60 51 OFFCURVE",
"65 40 OFFCURVE",
"73 31 CURVE SMOOTH",
"123 -20 OFFCURVE",
"193 -45 OFFCURVE",
"285 -45 CURVE SMOOTH"
);
},
{
closed = 1;
nodes = (
"170 290 OFFCURVE",
"120 340 OFFCURVE",
"120 455 CURVE SMOOTH",
"120 582 OFFCURVE",
"180 655 OFFCURVE",
"285 655 CURVE SMOOTH",
"422 655 OFFCURVE",
"481 572 OFFCURVE",
"485 370 CURVE",
"455 345 OFFCURVE",
"379 290 OFFCURVE",
"285 290 CURVE SMOOTH"
);
}
);
width = 605;
},
{
associatedMasterId = "6F4F10D2-8254-4335-A627-9F8D8891324D";
layerId = "913C2D21-3218-4497-9E69-3A3992186E88";
name = path;
paths = (
{
closed = 0;
nodes = (
"475 350 LINE",
"475 350 OFFCURVE",
"370 245 OFFCURVE",
"230 245 CURVE SMOOTH",
"90 245 OFFCURVE",
"20 315 OFFCURVE",
"20 455 CURVE SMOOTH",
"20 595 OFFCURVE",
"90 700 OFFCURVE",
"230 700 CURVE SMOOTH",
"440 700 OFFCURVE",
"475 525 OFFCURVE",
"475 350 CURVE SMOOTH",
"475 175 OFFCURVE",
"440 0 OFFCURVE",
"230 0 CURVE SMOOTH",
"153 0 OFFCURVE",
"94 18 OFFCURVE",
"50 63 CURVE"
);
}
);
visible = 1;
width = 495;
},
{
associatedMasterId = "6F4F10D2-8254-4335-A627-9F8D8891324D";
layerId = "A786FC34-CFD0-4A65-8B2D-6CD5302883FB";
name = path;
paths = (
{
closed = 0;
nodes = (
"475 350 LINE",
"475 350 OFFCURVE",
"370 245 OFFCURVE",
"230 245 CURVE SMOOTH",
"90 245 OFFCURVE",
"20 315 OFFCURVE",
"20 455 CURVE SMOOTH",
"20 595 OFFCURVE",
"90 700 OFFCURVE",
"230 700 CURVE SMOOTH",
"440 700 OFFCURVE",
"475 525 OFFCURVE",
"475 350 CURVE SMOOTH",
"475 175 OFFCURVE",
"440 0 OFFCURVE",
"230 0 CURVE SMOOTH",
"153 0 OFFCURVE",
"94 18 OFFCURVE",
"50 63 CURVE"
);
}
);
width = 495;
}
);
unicode = 0039;
},
{
glyphname = zero.osf;
lastChange = "2019-01-25 15:48:55 +0000";
layers = (
{
layerId = "6F4F10D2-8254-4335-A627-9F8D8891324D";
paths = (
{
closed = 1;
nodes = (
"351 -20 OFFCURVE",
"415 76 OFFCURVE",
"415 250 CURVE SMOOTH",
"415 357 OFFCURVE",
"398 520 OFFCURVE",
"228 520 CURVE SMOOTH",
"45 520 OFFCURVE",
"30 362 OFFCURVE",
"30 253 CURVE SMOOTH",
"30 166 OFFCURVE",
"44 -20 OFFCURVE",
"228 -20 CURVE SMOOTH"
);
},
{
closed = 1;
nodes = (
"121 20 OFFCURVE",
"70 97 OFFCURVE",
"70 253 CURVE SMOOTH",
"70 360 OFFCURVE",
"81 480 OFFCURVE",
"228 480 CURVE SMOOTH",
"332 480 OFFCURVE",
"375 410 OFFCURVE",
"375 250 CURVE SMOOTH",
"375 98 OFFCURVE",
"326 20 OFFCURVE",
"228 20 CURVE SMOOTH"
);
}
);
width = 445;
},
{
associatedMasterId = "6F4F10D2-8254-4335-A627-9F8D8891324D";
layerId = "B52FE905-2062-4DB5-8B17-ADC815157488";
name = path;
paths = (
{
closed = 1;
nodes = (
"365 164 OFFCURVE",
"350 0 OFFCURVE",
"198 0 CURVE SMOOTH",
"33 0 OFFCURVE",
"20 167 OFFCURVE",
"20 253 CURVE SMOOTH",
"20 361 OFFCURVE",
"33 500 OFFCURVE",
"198 500 CURVE SMOOTH",
"350 500 OFFCURVE",
"365 356 OFFCURVE",
"365 250 CURVE SMOOTH"
);
}
);
visible = 1;
width = 385;
},
{
associatedMasterId = "6F4F10D2-8254-4335-A627-9F8D8891324D";
layerId = "D6DE1795-FC81-47AF-9842-6FE21F363EC0";
name = path;
paths = (
{
closed = 1;
nodes = (
"365 164 OFFCURVE",
"350 0 OFFCURVE",
"198 0 CURVE SMOOTH",
"33 0 OFFCURVE",
"20 167 OFFCURVE",
"20 253 CURVE SMOOTH",
"20 361 OFFCURVE",
"33 500 OFFCURVE",
"198 500 CURVE SMOOTH",
"350 500 OFFCURVE",
"365 356 OFFCURVE",
"365 250 CURVE SMOOTH"
);
}
);
width = 385;
}
);
},
{
glyphname = one.osf;
lastChange = "2019-01-25 15:48:55 +0000";
layers = (
{
layerId = "6F4F10D2-8254-4335-A627-9F8D8891324D";
paths = (
{
closed = 1;
nodes = (
"169 -20 OFFCURVE",
"178 -11 OFFCURVE",
"178 0 CURVE SMOOTH",
"178 484 LINE SMOOTH",
"178 495 OFFCURVE",
"174 502 OFFCURVE",
"164 508 CURVE SMOOTH",
"161 509 LINE SMOOTH",
"151 514 OFFCURVE",
"143 514 OFFCURVE",
"134 508 CURVE SMOOTH",
"39 447 LINE SMOOTH",
"34 443 OFFCURVE",
"30 437 OFFCURVE",
"30 430 CURVE SMOOTH",
"30 419 OFFCURVE",
"39 410 OFFCURVE",
"50 410 CURVE SMOOTH",
"54 410 OFFCURVE",
"58 411 OFFCURVE",
"61 413 CURVE SMOOTH",
"138 463 LINE",
"138 0 LINE SMOOTH",
"138 -11 OFFCURVE",
"147 -20 OFFCURVE",
"158 -20 CURVE SMOOTH"
);
}
);
width = 208;
},
{
associatedMasterId = "6F4F10D2-8254-4335-A627-9F8D8891324D";
layerId = "4D7BF973-80E5-49F1-A9E5-B15D8332A0C6";
name = path;
paths = (
{
closed = 0;
nodes = (
"128 0 LINE",
"128 500 LINE",
"20 430 LINE"
);
}
);
visible = 1;
width = 148;
},
{
associatedMasterId = "6F4F10D2-8254-4335-A627-9F8D8891324D";
layerId = "722B6929-3A7C-4CA6-A5E3-27E46F5185BF";
name = path;
paths = (
{
closed = 0;
nodes = (
"128 0 LINE",
"128 500 LINE",
"20 430 LINE"
);
}
);
width = 148;
}
);
},
{
glyphname = two.osf;
lastChange = "2019-01-25 15:48:55 +0000";
layers = (
{
layerId = "6F4F10D2-8254-4335-A627-9F8D8891324D";
paths = (
{
closed = 1;
nodes = (
"302 -20 LINE SMOOTH",
"313 -20 OFFCURVE",
"322 -11 OFFCURVE",
"322 0 CURVE SMOOTH",
"322 11 OFFCURVE",
"313 20 OFFCURVE",
"302 20 CURVE SMOOTH",
"93 20 LINE",
"122 60 OFFCURVE",
"172 129 OFFCURVE",
"211 178 CURVE SMOOTH",
"216 184 OFFCURVE",
"221 191 OFFCURVE",
"227 198 CURVE SMOOTH",
"267 247 OFFCURVE",
"307 296 OFFCURVE",
"307 371 CURVE SMOOTH",
"307 457 OFFCURVE",
"259 512 OFFCURVE",
"183 512 CURVE SMOOTH",
"43 512 OFFCURVE",
"31 424 OFFCURVE",
"30 421 CURVE SMOOTH",
"30 420 OFFCURVE",
"30 419 OFFCURVE",
"30 418 CURVE SMOOTH",
"30 407 OFFCURVE",
"39 398 OFFCURVE",
"50 398 CURVE SMOOTH",
"60 398 OFFCURVE",
"69 406 OFFCURVE",
"70 416 CURVE SMOOTH",
"70 420 OFFCURVE",
"80 472 OFFCURVE",
"183 472 CURVE SMOOTH",
"236 472 OFFCURVE",
"267 435 OFFCURVE",
"267 371 CURVE SMOOTH",
"267 310 OFFCURVE",
"236 273 OFFCURVE",
"196 223 CURVE SMOOTH",
"190 216 OFFCURVE",
"185 209 OFFCURVE",
"179 202 CURVE SMOOTH",
"133 144 OFFCURVE",
"71 57 OFFCURVE",
"47 25 CURVE SMOOTH",
"41 16 OFFCURVE",
"40 7 OFFCURVE",
"45 -3 CURVE SMOOTH",
"47 -6 LINE SMOOTH",
"52 -16 OFFCURVE",
"59 -20 OFFCURVE",
"70 -20 CURVE SMOOTH"
);
}
);
width = 352;
},
{
associatedMasterId = "6F4F10D2-8254-4335-A627-9F8D8891324D";
layerId = "ECCBC7E0-87AA-4906-ABBC-C63ECD43AEA0";
name = path;
paths = (
{
closed = 0;
nodes = (
"272 0 LINE",
"24 0 LINE SMOOTH",
"24 0 OFFCURVE",
"107 117 OFFCURVE",
"165 190 CURVE SMOOTH",
"212 249 OFFCURVE",
"257 294 OFFCURVE",
"257 371 CURVE SMOOTH",
"257 426 OFFCURVE",
"233 492 OFFCURVE",
"153 492 CURVE SMOOTH",
"28 492 OFFCURVE",
"20 418 OFFCURVE",
"20 418 CURVE"
);
}
);
visible = 1;
width = 292;
},
{
associatedMasterId = "6F4F10D2-8254-4335-A627-9F8D8891324D";
layerId = "D34CD833-5856-485D-9AC6-5C172CAB8D78";
name = path;
paths = (
{
closed = 0;
nodes = (
"272 0 LINE",
"24 0 LINE SMOOTH",
"24 0 OFFCURVE",
"107 117 OFFCURVE",
"165 190 CURVE SMOOTH",
"212 249 OFFCURVE",
"257 294 OFFCURVE",
"257 371 CURVE SMOOTH",
"257 426 OFFCURVE",
"233 492 OFFCURVE",
"153 492 CURVE SMOOTH",
"28 492 OFFCURVE",
"20 418 OFFCURVE",
"20 418 CURVE"
);
}
);
width = 292;
}
);
},
{
glyphname = three.osf;
lastChange = "2019-01-25 15:48:55 +0000";
layers = (
{
layerId = "6F4F10D2-8254-4335-A627-9F8D8891324D";
paths = (
{
closed = 1;
nodes = (
"291 -20 OFFCURVE",
"368 43 OFFCURVE",
"368 121 CURVE SMOOTH",
"368 179 OFFCURVE",
"338 227 OFFCURVE",
"289 252 CURVE",
"338 276 OFFCURVE",
"368 321 OFFCURVE",
"368 379 CURVE SMOOTH",
"368 457 OFFCURVE",
"291 520 OFFCURVE",
"199 520 CURVE SMOOTH",
"43 520 OFFCURVE",
"31 431 OFFCURVE",
"30 428 CURVE SMOOTH",
"30 427 OFFCURVE",
"30 426 OFFCURVE",
"30 425 CURVE SMOOTH",
"30 414 OFFCURVE",
"39 405 OFFCURVE",
"50 405 CURVE SMOOTH",
"60 405 OFFCURVE",
"69 413 OFFCURVE",
"70 422 CURVE SMOOTH",
"70 427 OFFCURVE",
"81 480 OFFCURVE",
"199 480 CURVE SMOOTH",
"269 480 OFFCURVE",
"328 434 OFFCURVE",
"328 379 CURVE SMOOTH",
"328 320 OFFCURVE",
"286 280 OFFCURVE",
"218 274 CURVE SMOOTH",
"205 273 OFFCURVE",
"198 266 OFFCURVE",
"198 253 CURVE SMOOTH",
"198 252 LINE SMOOTH",
"198 240 OFFCURVE",
"205 233 OFFCURVE",
"218 232 CURVE SMOOTH",
"284 225 OFFCURVE",
"328 182 OFFCURVE",
"328 121 CURVE SMOOTH",
"328 66 OFFCURVE",
"269 20 OFFCURVE",
"199 20 CURVE SMOOTH",
"81 20 OFFCURVE",
"70 73 OFFCURVE",
"70 78 CURVE SMOOTH",
"69 87 OFFCURVE",
"60 95 OFFCURVE",
"50 95 CURVE SMOOTH",
"39 95 OFFCURVE",
"30 86 OFFCURVE",
"30 75 CURVE SMOOTH",
"30 74 OFFCURVE",
"30 73 OFFCURVE",
"30 72 CURVE SMOOTH",
"31 69 OFFCURVE",
"43 -20 OFFCURVE",
"199 -20 CURVE SMOOTH"
);
}
);
width = 398;
},
{
associatedMasterId = "6F4F10D2-8254-4335-A627-9F8D8891324D";
layerId = "AAED9F9F-510F-4FCC-B8EB-E705F0F78D03";
name = path;
paths = (
{
closed = 0;
nodes = (
"20 75 LINE",
"20 75 OFFCURVE",
"28 0 OFFCURVE",
"169 0 CURVE SMOOTH",
"243 0 OFFCURVE",
"318 49 OFFCURVE",
"318 121 CURVE SMOOTH",
"318 194 OFFCURVE",
"262 253 OFFCURVE",
"168 253 CURVE",
"262 253 OFFCURVE",
"318 306 OFFCURVE",
"318 379 CURVE SMOOTH",
"318 451 OFFCURVE",
"243 500 OFFCURVE",
"169 500 CURVE SMOOTH",
"28 500 OFFCURVE",
"20 425 OFFCURVE",
"20 425 CURVE"
);
}
);
visible = 1;
width = 338;
},
{
associatedMasterId = "6F4F10D2-8254-4335-A627-9F8D8891324D";
layerId = "6F61E037-BC12-4D67-B0A7-0C09D63913D2";
name = path;
paths = (
{
closed = 0;
nodes = (
"20 75 LINE",
"20 75 OFFCURVE",
"28 0 OFFCURVE",
"169 0 CURVE SMOOTH",
"243 0 OFFCURVE",
"318 49 OFFCURVE",
"318 121 CURVE SMOOTH",
"318 194 OFFCURVE",
"262 253 OFFCURVE",
"168 253 CURVE",
"262 253 OFFCURVE",
"318 306 OFFCURVE",
"318 379 CURVE SMOOTH",
"318 451 OFFCURVE",
"243 500 OFFCURVE",
"169 500 CURVE SMOOTH",
"28 500 OFFCURVE",
"20 425 OFFCURVE",
"20 425 CURVE"
);
}
);
width = 338;
}
);
},
{
glyphname = four.osf;
lastChange = "2019-01-25 15:48:55 +0000";
layers = (
{
layerId = "6F4F10D2-8254-4335-A627-9F8D8891324D";
paths = (
{
closed = 1;
nodes = (
"291 -20 OFFCURVE",
"300 -11 OFFCURVE",
"300 0 CURVE SMOOTH",
"300 113 LINE",
"396 113 LINE SMOOTH",
"407 113 OFFCURVE",
"416 122 OFFCURVE",
"416 133 CURVE SMOOTH",
"416 144 OFFCURVE",
"407 153 OFFCURVE",
"396 153 CURVE SMOOTH",
"300 153 LINE",
"300 483 LINE SMOOTH",
"300 494 OFFCURVE",
"295 502 OFFCURVE",
"283 505 CURVE SMOOTH",
"280 506 LINE SMOOTH",
"269 509 OFFCURVE",
"260 506 OFFCURVE",
"254 496 CURVE SMOOTH",
"35 157 LINE SMOOTH",
"29 148 OFFCURVE",
"29 140 OFFCURVE",
"34 130 CURVE SMOOTH",
"35 127 LINE SMOOTH",
"41 117 OFFCURVE",
"48 113 OFFCURVE",
"59 113 CURVE SMOOTH",
"260 113 LINE",
"260 0 LINE SMOOTH",
"260 -11 OFFCURVE",
"269 -20 OFFCURVE",
"280 -20 CURVE SMOOTH"
);
},
{
closed = 1;
nodes = (
"260 432 LINE",
"260 153 LINE",
"80 153 LINE"
);
}
);
width = 446;
},
{
associatedMasterId = "6F4F10D2-8254-4335-A627-9F8D8891324D";
layerId = "C5A874EB-2FAC-48DC-AE52-585EC5616194";
name = path;
paths = (
{
closed = 0;
nodes = (
"257 0 LINE",
"257 500 LINE",
"20 133 LINE",
"373 133 LINE"
);
}
);
visible = 1;
width = 393;
},
{
associatedMasterId = "6F4F10D2-8254-4335-A627-9F8D8891324D";
layerId = "086F1A2A-3F1D-4E4C-85A6-AD31BE471B69";
name = path;
paths = (
{
closed = 0;
nodes = (
"257 0 LINE",
"257 500 LINE",
"20 133 LINE",
"373 133 LINE"
);
}
);
width = 393;
}
);
},
{
glyphname = five.osf;
lastChange = "2019-01-25 15:48:55 +0000";
layers = (
{
layerId = "6F4F10D2-8254-4335-A627-9F8D8891324D";
paths = (
{
closed = 1;
nodes = (
"291 -20 OFFCURVE",
"370 64 OFFCURVE",
"370 175 CURVE SMOOTH",
"370 290 OFFCURVE",
"306 377 OFFCURVE",
"216 377 CURVE SMOOTH",
"152 377 OFFCURVE",
"101 355 OFFCURVE",
"70 338 CURVE",
"70 480 LINE",
"350 480 LINE SMOOTH",
"361 480 OFFCURVE",
"370 489 OFFCURVE",
"370 500 CURVE SMOOTH",
"370 511 OFFCURVE",
"361 520 OFFCURVE",
"350 520 CURVE SMOOTH",
"64 520 LINE SMOOTH",
"54 520 OFFCURVE",
"47 517 OFFCURVE",
"40 510 CURVE SMOOTH",
"33 503 OFFCURVE",
"30 496 OFFCURVE",
"30 486 CURVE SMOOTH",
"30 316 LINE SMOOTH",
"30 305 OFFCURVE",
"35 298 OFFCURVE",
"45 293 CURVE SMOOTH",
"48 292 LINE SMOOTH",
"58 287 OFFCURVE",
"67 288 OFFCURVE",
"76 294 CURVE SMOOTH",
"98 310 OFFCURVE",
"148 337 OFFCURVE",
"216 337 CURVE SMOOTH",
"282 337 OFFCURVE",
"330 268 OFFCURVE",
"330 175 CURVE SMOOTH",
"330 86 OFFCURVE",
"269 20 OFFCURVE",
"185 20 CURVE SMOOTH",
"93 20 OFFCURVE",
"71 76 OFFCURVE",
"69 81 CURVE",
"66 89 OFFCURVE",
"59 95 OFFCURVE",
"50 95 CURVE SMOOTH",
"39 95 OFFCURVE",
"30 86 OFFCURVE",
"30 75 CURVE SMOOTH",
"30 73 OFFCURVE",
"30 70 OFFCURVE",
"31 68 CURVE SMOOTH",
"33 62 OFFCURVE",
"64 -20 OFFCURVE",
"185 -20 CURVE SMOOTH"
);
}
);
width = 400;
},
{
associatedMasterId = "6F4F10D2-8254-4335-A627-9F8D8891324D";
layerId = "A162A6A9-E2D8-4B17-A14E-49A386F3BE57";
name = path;
paths = (
{
closed = 0;
nodes = (
"320 500 LINE",
"20 500 LINE",
"20 300 LINE",
"20 300 OFFCURVE",
"85 357 OFFCURVE",
"186 357 CURVE SMOOTH",
"276 357 OFFCURVE",
"320 261 OFFCURVE",
"320 175 CURVE SMOOTH",
"320 100 OFFCURVE",
"271 0 OFFCURVE",
"155 0 CURVE SMOOTH",
"44 0 OFFCURVE",
"20 75 OFFCURVE",
"20 75 CURVE"
);
}
);
visible = 1;
width = 340;
},
{
associatedMasterId = "6F4F10D2-8254-4335-A627-9F8D8891324D";
layerId = "2CDF6D20-3E55-4073-AB0E-09F17CA04FD2";
name = path;
paths = (
{
closed = 0;
nodes = (
"320 500 LINE",
"20 500 LINE",
"20 300 LINE",
"20 300 OFFCURVE",
"85 357 OFFCURVE",
"186 357 CURVE SMOOTH",
"276 357 OFFCURVE",
"320 261 OFFCURVE",
"320 175 CURVE SMOOTH",
"320 100 OFFCURVE",
"271 0 OFFCURVE",
"155 0 CURVE SMOOTH",
"44 0 OFFCURVE",
"20 75 OFFCURVE",
"20 75 CURVE"
);
}
);
width = 340;
}
);
},
{
glyphname = six.osf;
lastChange = "2019-01-25 15:48:55 +0000";
layers = (
{
layerId = "6F4F10D2-8254-4335-A627-9F8D8891324D";
paths = (
{
closed = 1;
nodes = (
"330 -20 OFFCURVE",
"395 56 OFFCURVE",
"395 175 CURVE SMOOTH",
"395 286 OFFCURVE",
"336 345 OFFCURVE",
"225 345 CURVE SMOOTH",
"160 345 OFFCURVE",
"105 316 OFFCURVE",
"71 293 CURVE",
"79 423 OFFCURVE",
"126 480 OFFCURVE",
"225 480 CURVE SMOOTH",
"278 480 OFFCURVE",
"313 468 OFFCURVE",
"340 441 CURVE SMOOTH",
"343 437 OFFCURVE",
"348 435 OFFCURVE",
"354 435 CURVE SMOOTH",
"365 435 OFFCURVE",
"374 444 OFFCURVE",
"374 455 CURVE SMOOTH",
"374 461 OFFCURVE",
"372 466 OFFCURVE",
"368 469 CURVE SMOOTH",
"334 503 OFFCURVE",
"287 520 OFFCURVE",
"225 520 CURVE SMOOTH",
"91 520 OFFCURVE",
"30 432 OFFCURVE",
"30 250 CURVE SMOOTH",
"30 68 OFFCURVE",
"91 -20 OFFCURVE",
"225 -20 CURVE SMOOTH"
);
},
{
closed = 1;
nodes = (
"118 20 OFFCURVE",
"72 86 OFFCURVE",
"70 241 CURVE",
"89 258 OFFCURVE",
"149 305 OFFCURVE",
"225 305 CURVE SMOOTH",
"314 305 OFFCURVE",
"355 264 OFFCURVE",
"355 175 CURVE SMOOTH",
"355 77 OFFCURVE",
"306 20 OFFCURVE",
"225 20 CURVE SMOOTH"
);
}
);
width = 425;
},
{
associatedMasterId = "6F4F10D2-8254-4335-A627-9F8D8891324D";
layerId = "8C9F4F30-5604-499D-B498-EBE9AFB0FB0A";
name = path;
paths = (
{
closed = 0;
nodes = (
"20 250 LINE",
"20 250 OFFCURVE",
"95 325 OFFCURVE",
"195 325 CURVE SMOOTH",
"295 325 OFFCURVE",
"345 275 OFFCURVE",
"345 175 CURVE SMOOTH",
"345 75 OFFCURVE",
"295 0 OFFCURVE",
"195 0 CURVE SMOOTH",
"45 0 OFFCURVE",
"20 125 OFFCURVE",
"20 250 CURVE SMOOTH",
"20 375 OFFCURVE",
"45 500 OFFCURVE",
"195 500 CURVE SMOOTH",
"250 500 OFFCURVE",
"292 487 OFFCURVE",
"324 455 CURVE"
);
}
);
visible = 1;
width = 365;
},
{
associatedMasterId = "6F4F10D2-8254-4335-A627-9F8D8891324D";
layerId = "56D0A64E-8EA6-4CF3-B1AA-18218DC002F0";
name = path;
paths = (
{
closed = 0;
nodes = (
"20 250 LINE",
"20 250 OFFCURVE",
"95 325 OFFCURVE",
"195 325 CURVE SMOOTH",
"295 325 OFFCURVE",
"345 275 OFFCURVE",
"345 175 CURVE SMOOTH",
"345 75 OFFCURVE",
"295 0 OFFCURVE",
"195 0 CURVE SMOOTH",
"45 0 OFFCURVE",
"20 125 OFFCURVE",
"20 250 CURVE SMOOTH",
"20 375 OFFCURVE",
"45 500 OFFCURVE",
"195 500 CURVE SMOOTH",
"250 500 OFFCURVE",
"292 487 OFFCURVE",
"324 455 CURVE"
);
}
);
width = 365;
}
);
},
{
glyphname = seven.osf;
lastChange = "2019-01-25 15:48:55 +0000";
layers = (
{
layerId = "6F4F10D2-8254-4335-A627-9F8D8891324D";
paths = (
{
closed = 1;
nodes = (
"138 -20 OFFCURVE",
"145 -14 OFFCURVE",
"148 -6 CURVE SMOOTH",
"229 227 OFFCURVE",
"368 423 OFFCURVE",
"406 475 CURVE SMOOTH",
"413 484 OFFCURVE",
"414 492 OFFCURVE",
"409 502 CURVE SMOOTH",
"407 505 LINE SMOOTH",
"402 515 OFFCURVE",
"395 520 OFFCURVE",
"384 520 CURVE SMOOTH",
"64 520 LINE SMOOTH",
"54 520 OFFCURVE",
"47 517 OFFCURVE",
"40 510 CURVE SMOOTH",
"33 503 OFFCURVE",
"30 496 OFFCURVE",
"30 486 CURVE SMOOTH",
"30 425 LINE SMOOTH",
"30 414 OFFCURVE",
"39 405 OFFCURVE",
"50 405 CURVE SMOOTH",
"61 405 OFFCURVE",
"70 414 OFFCURVE",
"70 425 CURVE SMOOTH",
"70 480 LINE",
"360 480 LINE",
"309 408 OFFCURVE",
"186 223 OFFCURVE",
"110 7 CURVE SMOOTH",
"109 5 OFFCURVE",
"109 2 OFFCURVE",
"109 0 CURVE SMOOTH",
"109 -11 OFFCURVE",
"118 -20 OFFCURVE",
"129 -20 CURVE SMOOTH"
);
}
);
width = 442;
},
{
associatedMasterId = "6F4F10D2-8254-4335-A627-9F8D8891324D";
layerId = "18734339-9EF7-4292-9199-72CA63F9EE62";
name = path;
paths = (
{
closed = 0;
nodes = (
"99 0 LINE",
"195 275 OFFCURVE",
"370 500 OFFCURVE",
"370 500 CURVE SMOOTH",
"20 500 LINE",
"20 425 LINE"
);
}
);
visible = 1;
width = 390;
},
{
associatedMasterId = "6F4F10D2-8254-4335-A627-9F8D8891324D";
layerId = "0EFEDF0B-4F0F-46D7-9E9D-F395F6FEF782";
name = path;
paths = (
{
closed = 0;
nodes = (
"99 0 LINE",
"195 275 OFFCURVE",
"370 500 OFFCURVE",
"370 500 CURVE SMOOTH",
"20 500 LINE",
"20 425 LINE"
);
}
);
width = 390;
}
);
},
{
glyphname = eight.osf;
lastChange = "2019-01-25 15:48:55 +0000";
layers = (
{
layerId = "6F4F10D2-8254-4335-A627-9F8D8891324D";
paths = (
{
closed = 1;
nodes = (
"323 -20 OFFCURVE",
"408 44 OFFCURVE",
"408 126 CURVE SMOOTH",
"408 184 OFFCURVE",
"365 234 OFFCURVE",
"303 258 CURVE",
"347 283 OFFCURVE",
"377 328 OFFCURVE",
"377 379 CURVE SMOOTH",
"377 457 OFFCURVE",
"306 520 OFFCURVE",
"219 520 CURVE SMOOTH",
"131 520 OFFCURVE",
"61 457 OFFCURVE",
"61 379 CURVE SMOOTH",
"61 328 OFFCURVE",
"90 283 OFFCURVE",
"135 258 CURVE",
"73 234 OFFCURVE",
"30 184 OFFCURVE",
"30 126 CURVE SMOOTH",
"30 44 OFFCURVE",
"115 -20 OFFCURVE",
"219 -20 CURVE SMOOTH"
);
},
{
closed = 1;
nodes = (
"137 20 OFFCURVE",
"70 68 OFFCURVE",
"70 126 CURVE SMOOTH",
"70 184 OFFCURVE",
"137 233 OFFCURVE",
"219 233 CURVE SMOOTH",
"301 233 OFFCURVE",
"368 184 OFFCURVE",
"368 126 CURVE SMOOTH",
"368 68 OFFCURVE",
"301 20 OFFCURVE",
"219 20 CURVE SMOOTH"
);
},
{
closed = 1;
nodes = (
"153 276 OFFCURVE",
"101 322 OFFCURVE",
"101 379 CURVE SMOOTH",
"101 435 OFFCURVE",
"153 480 OFFCURVE",
"219 480 CURVE SMOOTH",
"285 480 OFFCURVE",
"337 434 OFFCURVE",
"337 379 CURVE SMOOTH",
"337 323 OFFCURVE",
"285 276 OFFCURVE",
"219 276 CURVE SMOOTH"
);
}
);
width = 438;
},
{
associatedMasterId = "6F4F10D2-8254-4335-A627-9F8D8891324D";
layerId = "3173FF65-EF06-4DC7-9E85-EC23D72F8298";
name = path;
paths = (
{
closed = 1;
nodes = (
"358 56 OFFCURVE",
"282 0 OFFCURVE",
"189 0 CURVE SMOOTH",
"96 0 OFFCURVE",
"20 56 OFFCURVE",
"20 126 CURVE SMOOTH",
"20 196 OFFCURVE",
"96 253 OFFCURVE",
"189 253 CURVE SMOOTH",
"282 253 OFFCURVE",
"358 196 OFFCURVE",
"358 126 CURVE SMOOTH"
);
},
{
closed = 1;
nodes = (
"327 311 OFFCURVE",
"265 256 OFFCURVE",
"189 256 CURVE SMOOTH",
"112 256 OFFCURVE",
"51 311 OFFCURVE",
"51 379 CURVE SMOOTH",
"51 446 OFFCURVE",
"112 500 OFFCURVE",
"189 500 CURVE SMOOTH",
"265 500 OFFCURVE",
"327 446 OFFCURVE",
"327 379 CURVE SMOOTH"
);
}
);
visible = 1;
width = 378;
},
{
associatedMasterId = "6F4F10D2-8254-4335-A627-9F8D8891324D";
layerId = "AD06E3D9-A7D8-436C-9676-F15DB724B281";
name = path;
paths = (
{
closed = 1;
nodes = (
"358 56 OFFCURVE",
"282 0 OFFCURVE",
"189 0 CURVE SMOOTH",
"96 0 OFFCURVE",
"20 56 OFFCURVE",
"20 126 CURVE SMOOTH",
"20 196 OFFCURVE",
"96 253 OFFCURVE",
"189 253 CURVE SMOOTH",
"282 253 OFFCURVE",
"358 196 OFFCURVE",
"358 126 CURVE SMOOTH"
);
},
{
closed = 1;
nodes = (
"327 311 OFFCURVE",
"265 256 OFFCURVE",
"189 256 CURVE SMOOTH",
"112 256 OFFCURVE",
"51 311 OFFCURVE",
"51 379 CURVE SMOOTH",
"51 446 OFFCURVE",
"112 500 OFFCURVE",
"189 500 CURVE SMOOTH",
"265 500 OFFCURVE",
"327 446 OFFCURVE",
"327 379 CURVE SMOOTH"
);
}
);
width = 378;
}
);
},
{
glyphname = nine.osf;
lastChange = "2019-01-25 15:48:55 +0000";
layers = (
{
layerId = "6F4F10D2-8254-4335-A627-9F8D8891324D";
paths = (
{
closed = 1;
nodes = (
"334 -20 OFFCURVE",
"395 68 OFFCURVE",
"395 250 CURVE SMOOTH",
"395 432 OFFCURVE",
"334 520 OFFCURVE",
"200 520 CURVE SMOOTH",
"95 520 OFFCURVE",
"30 444 OFFCURVE",
"30 325 CURVE SMOOTH",
"30 214 OFFCURVE",
"89 155 OFFCURVE",
"200 155 CURVE SMOOTH",
"265 155 OFFCURVE",
"320 184 OFFCURVE",
"354 207 CURVE",
"346 77 OFFCURVE",
"299 20 OFFCURVE",
"200 20 CURVE SMOOTH",
"147 20 OFFCURVE",
"112 32 OFFCURVE",
"85 59 CURVE SMOOTH",
"82 63 OFFCURVE",
"77 65 OFFCURVE",
"71 65 CURVE SMOOTH",
"60 65 OFFCURVE",
"51 56 OFFCURVE",
"51 45 CURVE SMOOTH",
"51 39 OFFCURVE",
"53 34 OFFCURVE",
"57 31 CURVE SMOOTH",
"91 -3 OFFCURVE",
"138 -20 OFFCURVE",
"200 -20 CURVE SMOOTH"
);
},
{
closed = 1;
nodes = (
"111 195 OFFCURVE",
"70 236 OFFCURVE",
"70 325 CURVE SMOOTH",
"70 423 OFFCURVE",
"119 480 OFFCURVE",
"200 480 CURVE SMOOTH",
"307 480 OFFCURVE",
"353 414 OFFCURVE",
"355 259 CURVE",
"336 242 OFFCURVE",
"276 195 OFFCURVE",
"200 195 CURVE SMOOTH"
);
}
);
width = 425;
},
{
associatedMasterId = "6F4F10D2-8254-4335-A627-9F8D8891324D";
layerId = "46D5F6A4-4375-46A0-941F-12182109702B";
name = path;
paths = (
{
closed = 0;
nodes = (
"345 250 LINE",
"345 250 OFFCURVE",
"270 175 OFFCURVE",
"170 175 CURVE SMOOTH",
"70 175 OFFCURVE",
"20 225 OFFCURVE",
"20 325 CURVE SMOOTH",
"20 425 OFFCURVE",
"70 500 OFFCURVE",
"170 500 CURVE SMOOTH",
"320 500 OFFCURVE",
"345 375 OFFCURVE",
"345 250 CURVE SMOOTH",
"345 125 OFFCURVE",
"320 0 OFFCURVE",
"170 0 CURVE SMOOTH",
"115 0 OFFCURVE",
"73 13 OFFCURVE",
"41 45 CURVE"
);
}
);
visible = 1;
width = 365;
},
{
associatedMasterId = "6F4F10D2-8254-4335-A627-9F8D8891324D";
layerId = "67572D43-E5C9-4E37-B262-85D3D08BD4EE";
name = path;
paths = (
{
closed = 0;
nodes = (
"345 250 LINE",
"345 250 OFFCURVE",
"270 175 OFFCURVE",
"170 175 CURVE SMOOTH",
"70 175 OFFCURVE",
"20 225 OFFCURVE",
"20 325 CURVE SMOOTH",
"20 425 OFFCURVE",
"70 500 OFFCURVE",
"170 500 CURVE SMOOTH",
"320 500 OFFCURVE",
"345 375 OFFCURVE",
"345 250 CURVE SMOOTH",
"345 125 OFFCURVE",
"320 0 OFFCURVE",
"170 0 CURVE SMOOTH",
"115 0 OFFCURVE",
"73 13 OFFCURVE",
"41 45 CURVE"
);
}
);
width = 365;
}
);
},
{
glyphname = bullet;
lastChange = "2019-01-25 15:49:03 +0000";
layers = (
{
associatedMasterId = "6F4F10D2-8254-4335-A627-9F8D8891324D";
layerId = "14315D80-9F75-407D-8E90-42DB7DB39A0B";
name = "Oct 5 18, 13:36";
paths = (
{
closed = 1;
nodes = (
"39 250 OFFCURVE",
"50 261 OFFCURVE",
"50 275 CURVE SMOOTH",
"50 289 OFFCURVE",
"39 300 OFFCURVE",
"25 300 CURVE SMOOTH",
"11 300 OFFCURVE",
"0 289 OFFCURVE",
"0 275 CURVE SMOOTH",
"0 261 OFFCURVE",
"11 250 OFFCURVE",
"25 250 CURVE SMOOTH"
);
}
);
width = 600;
},
{
associatedMasterId = "6F4F10D2-8254-4335-A627-9F8D8891324D";
layerId = "2F63064D-2686-4DCA-A4F6-A19851DBFC87";
name = "Color 0";
paths = (
{
closed = 1;
nodes = (
"188 135 OFFCURVE",
"238 186 OFFCURVE",
"238 248 CURVE SMOOTH",
"238 311 OFFCURVE",
"188 363 OFFCURVE",
"126 363 CURVE SMOOTH",
"63 363 OFFCURVE",
"10 311 OFFCURVE",
"10 248 CURVE SMOOTH",
"10 186 OFFCURVE",
"63 135 OFFCURVE",
"126 135 CURVE SMOOTH"
);
}
);
visible = 1;
width = 288;
},
{
associatedMasterId = "6F4F10D2-8254-4335-A627-9F8D8891324D";
layerId = "54E7F583-7E46-4E83-B10F-44FA65C1429A";
name = path;
paths = (
{
closed = 1;
nodes = (
"188 136 OFFCURVE",
"238 187 OFFCURVE",
"238 249 CURVE SMOOTH",
"238 312 OFFCURVE",
"188 364 OFFCURVE",
"126 364 CURVE SMOOTH",
"63 364 OFFCURVE",
"10 312 OFFCURVE",
"10 249 CURVE SMOOTH",
"10 187 OFFCURVE",
"63 136 OFFCURVE",
"126 136 CURVE SMOOTH"
);
}
);
visible = 1;
width = 248;
},
{
layerId = "6F4F10D2-8254-4335-A627-9F8D8891324D";
paths = (
{
closed = 1;
nodes = (
"208 136 OFFCURVE",
"258 187 OFFCURVE",
"258 249 CURVE SMOOTH",
"258 312 OFFCURVE",
"208 364 OFFCURVE",
"146 364 CURVE SMOOTH",
"83 364 OFFCURVE",
"30 312 OFFCURVE",
"30 249 CURVE SMOOTH",
"30 187 OFFCURVE",
"83 136 OFFCURVE",
"146 136 CURVE SMOOTH"
);
}
);
visible = 1;
width = 288;
}
);
unicode = 2022;
},
{
glyphname = exclam;
lastChange = "2019-01-25 15:49:03 +0000";
layers = (
{
layerId = "6F4F10D2-8254-4335-A627-9F8D8891324D";
paths = (
{
closed = 1;
nodes = (
"100 105 OFFCURVE",
"120 125 OFFCURVE",
"120 150 CURVE SMOOTH",
"120 700 LINE SMOOTH",
"120 725 OFFCURVE",
"100 745 OFFCURVE",
"75 745 CURVE SMOOTH",
"50 745 OFFCURVE",
"30 725 OFFCURVE",
"30 700 CURVE SMOOTH",
"30 150 LINE SMOOTH",
"30 125 OFFCURVE",
"50 105 OFFCURVE",
"75 105 CURVE SMOOTH"
);
},
{
closed = 1;
nodes = (
"120 25 OFFCURVE",
"100 45 OFFCURVE",
"75 45 CURVE SMOOTH",
"50 45 OFFCURVE",
"30 25 OFFCURVE",
"30 0 CURVE SMOOTH",
"30 -25 OFFCURVE",
"50 -45 OFFCURVE",
"75 -45 CURVE SMOOTH",
"100 -45 OFFCURVE",
"120 -25 OFFCURVE",
"120 0 CURVE SMOOTH"
);
}
);
width = 150;
},
{
associatedMasterId = "6F4F10D2-8254-4335-A627-9F8D8891324D";
layerId = "6CF4DB0A-9293-4ACF-8B47-700377A49FDE";
name = "Nov 14 18, 14:16";
paths = (
{
closed = 0;
nodes = (
"300 700 LINE",
"300 150 LINE"
);
}
);
width = 600;
}
);
unicode = 0021;
},
{
glyphname = period;
lastChange = "2019-01-25 15:49:03 +0000";
layers = (
{
layerId = "6F4F10D2-8254-4335-A627-9F8D8891324D";
paths = (
{
closed = 1;
nodes = (
"145 -45 OFFCURVE",
"178 -11 OFFCURVE",
"178 29 CURVE SMOOTH",
"178 70 OFFCURVE",
"144 103 OFFCURVE",
"104 103 CURVE SMOOTH",
"63 103 OFFCURVE",
"30 69 OFFCURVE",
"30 29 CURVE SMOOTH",
"30 -12 OFFCURVE",
"64 -45 OFFCURVE",
"104 -45 CURVE SMOOTH"
);
}
);
width = 208;
},
{
associatedMasterId = "6F4F10D2-8254-4335-A627-9F8D8891324D";
layerId = "A21D0ECA-8551-420A-B330-2C7BC3325049";
name = "Nov 14 18, 15:01";
paths = (
{
closed = 0;
nodes = (
"294 58 LINE",
"278 58 OFFCURVE",
"265 45 OFFCURVE",
"265 29 CURVE SMOOTH",
"265 13 OFFCURVE",
"278 0 OFFCURVE",
"294 0 CURVE SMOOTH",
"310 0 OFFCURVE",
"323 13 OFFCURVE",
"323 29 CURVE SMOOTH",
"323 45 OFFCURVE",
"310 58 OFFCURVE",
"294 58 CURVE",
"294 29 LINE"
);
}
);
visible = 1;
width = 600;
}
);
unicode = 002E;
},
{
color = 0;
glyphname = question;
lastChange = "2019-01-25 15:49:03 +0000";
layers = (
{
layerId = "6F4F10D2-8254-4335-A627-9F8D8891324D";
paths = (
{
closed = 1;
nodes = (
"252 92 OFFCURVE",
"272 112 OFFCURVE",
"272 137 CURVE SMOOTH",
"272 213 OFFCURVE",
"315 252 OFFCURVE",
"378 310 CURVE SMOOTH",
"410 339 OFFCURVE",
"447 373 OFFCURVE",
"478 415 CURVE SMOOTH",
"502 447 OFFCURVE",
"516 494 OFFCURVE",
"516 538 CURVE SMOOTH",
"516 664 OFFCURVE",
"420 745 OFFCURVE",
"270 745 CURVE SMOOTH",
"136 745 OFFCURVE",
"54 688 OFFCURVE",
"31 577 CURVE SMOOTH",
"30 574 OFFCURVE",
"30 570 OFFCURVE",
"30 567 CURVE SMOOTH",
"30 542 OFFCURVE",
"50 522 OFFCURVE",
"75 522 CURVE SMOOTH",
"97 522 OFFCURVE",
"115 538 OFFCURVE",
"119 559 CURVE SMOOTH",
"133 625 OFFCURVE",
"178 655 OFFCURVE",
"270 655 CURVE SMOOTH",
"371 655 OFFCURVE",
"426 612 OFFCURVE",
"426 538 CURVE SMOOTH",
"426 511 OFFCURVE",
"419 486 OFFCURVE",
"406 469 CURVE SMOOTH",
"380 434 OFFCURVE",
"349 406 OFFCURVE",
"317 376 CURVE SMOOTH",
"254 319 OFFCURVE",
"182 253 OFFCURVE",
"182 137 CURVE SMOOTH",
"182 112 OFFCURVE",
"202 92 OFFCURVE",
"227 92 CURVE SMOOTH"
);
},
{
closed = 1;
nodes = (
"272 25 OFFCURVE",
"252 45 OFFCURVE",
"227 45 CURVE SMOOTH",
"202 45 OFFCURVE",
"182 25 OFFCURVE",
"182 0 CURVE SMOOTH",
"182 -25 OFFCURVE",
"202 -45 OFFCURVE",
"227 -45 CURVE SMOOTH",
"252 -45 OFFCURVE",
"272 -25 OFFCURVE",
"272 0 CURVE SMOOTH"
);
}
);
width = 546;
},
{
associatedMasterId = "6F4F10D2-8254-4335-A627-9F8D8891324D";
layerId = "D2DF5D22-6B10-4F77-9052-54BD0EF34799";
name = "Nov 14 18, 14:13";
paths = (
{
closed = 0;
nodes = (
"101 567 LINE",
"118 650 OFFCURVE",
"175 700 OFFCURVE",
"296 700 CURVE SMOOTH",
"519 700 OFFCURVE",
"522 515 OFFCURVE",
"468 442 CURVE SMOOTH",
"383 327 OFFCURVE",
"253 282 OFFCURVE",
"253 137 CURVE SMOOTH"
);
}
);
width = 600;
}
);
unicode = 003F;
},
{
glyphname = braceleft;
lastChange = "2019-01-25 15:49:03 +0000";
layers = (
{
guideLines = (
{
position = "{-125, 350}";
},
{
angle = 90;
position = "{75, 0}";
},
{
angle = 90;
position = "{195, 0}";
},
{
angle = 90;
position = "{315, 0}";
}
);
layerId = "6F4F10D2-8254-4335-A627-9F8D8891324D";
paths = (
{
closed = 1;
nodes = (
"30 325 OFFCURVE",
"50 305 OFFCURVE",
"75 305 CURVE SMOOTH",
"124 305 OFFCURVE",
"150 269 OFFCURVE",
"150 200 CURVE SMOOTH",
"150 100 OFFCURVE",
"150 -45 OFFCURVE",
"315 -45 CURVE SMOOTH",
"340 -45 OFFCURVE",
"360 -25 OFFCURVE",
"360 0 CURVE SMOOTH",
"360 25 OFFCURVE",
"340 45 OFFCURVE",
"315 45 CURVE SMOOTH",
"252 45 OFFCURVE",
"240 72 OFFCURVE",
"240 200 CURVE SMOOTH",
"240 264 OFFCURVE",
"221 316 OFFCURVE",
"187 350 CURVE",
"221 384 OFFCURVE",
"240 436 OFFCURVE",
"240 500 CURVE SMOOTH",
"240 628 OFFCURVE",
"252 655 OFFCURVE",
"315 655 CURVE SMOOTH",
"340 655 OFFCURVE",
"360 675 OFFCURVE",
"360 700 CURVE SMOOTH",
"360 725 OFFCURVE",
"340 745 OFFCURVE",
"315 745 CURVE SMOOTH",
"150 745 OFFCURVE",
"150 600 OFFCURVE",
"150 500 CURVE SMOOTH",
"150 431 OFFCURVE",
"124 395 OFFCURVE",
"75 395 CURVE SMOOTH",
"50 395 OFFCURVE",
"30 375 OFFCURVE",
"30 350 CURVE SMOOTH"
);
}
);
width = 390;
},
{
associatedMasterId = "6F4F10D2-8254-4335-A627-9F8D8891324D";
guideLines = (
{
position = "{-100, 350}";
},
{
angle = 90;
position = "{100, 0}";
},
{
angle = 90;
position = "{220, 0}";
},
{
angle = 90;
position = "{340, 0}";
}
);
layerId = "089D6617-F3CD-487E-AB19-16AF1435F30C";
name = "Nov 14 18, 14:24";
paths = (
{
closed = 0;
nodes = (
"340 0 LINE SMOOTH",
"220 0 OFFCURVE",
"220 100 OFFCURVE",
"220 200 CURVE SMOOTH",
"220 330 OFFCURVE",
"140 350 OFFCURVE",
"100 350 CURVE",
"140 350 OFFCURVE",
"220 370 OFFCURVE",
"220 500 CURVE SMOOTH",
"220 600 OFFCURVE",
"220 700 OFFCURVE",
"340 700 CURVE SMOOTH"
);
}
);
width = 600;
}
);
unicode = 007B;
},
{
glyphname = bracketleft;
lastChange = "2019-01-25 15:49:03 +0000";
layers = (
{
layerId = "6F4F10D2-8254-4335-A627-9F8D8891324D";
paths = (
{
closed = 1;
nodes = (
"215 -45 LINE SMOOTH",
"240 -45 OFFCURVE",
"260 -25 OFFCURVE",
"260 0 CURVE SMOOTH",
"260 25 OFFCURVE",
"240 45 OFFCURVE",
"215 45 CURVE SMOOTH",
"120 45 LINE",
"120 655 LINE",
"215 655 LINE SMOOTH",
"240 655 OFFCURVE",
"260 675 OFFCURVE",
"260 700 CURVE SMOOTH",
"260 725 OFFCURVE",
"240 745 OFFCURVE",
"215 745 CURVE SMOOTH",
"108 745 LINE SMOOTH",
"84 745 OFFCURVE",
"68 738 OFFCURVE",
"53 723 CURVE SMOOTH",
"37 707 OFFCURVE",
"30 691 OFFCURVE",
"30 667 CURVE SMOOTH",
"30 33 LINE SMOOTH",
"30 9 OFFCURVE",
"37 -7 OFFCURVE",
"53 -23 CURVE SMOOTH",
"68 -38 OFFCURVE",
"84 -45 OFFCURVE",
"108 -45 CURVE SMOOTH"
);
}
);
width = 290;
},
{
associatedMasterId = "6F4F10D2-8254-4335-A627-9F8D8891324D";
layerId = "260375C1-61DC-4FA8-8753-286FCEEDA14A";
name = "Nov 14 18, 14:26";
paths = (
{
closed = 0;
nodes = (
"400 0 LINE",
"260 0 LINE",
"260 700 LINE",
"400 700 LINE"
);
}
);
visible = 1;
width = 600;
}
);
unicode = 005B;
},
{
glyphname = parenleft;
lastChange = "2019-01-25 15:49:03 +0000";
layers = (
{
guideLines = (
{
position = "{-74, 350}";
}
);
layerId = "6F4F10D2-8254-4335-A627-9F8D8891324D";
paths = (
{
closed = 1;
nodes = (
"210 -45 OFFCURVE",
"230 -25 OFFCURVE",
"230 0 CURVE SMOOTH",
"230 12 OFFCURVE",
"225 23 OFFCURVE",
"218 31 CURVE SMOOTH",
"158 94 OFFCURVE",
"120 215 OFFCURVE",
"120 350 CURVE SMOOTH",
"120 485 OFFCURVE",
"158 606 OFFCURVE",
"218 669 CURVE SMOOTH",
"226 677 OFFCURVE",
"231 688 OFFCURVE",
"231 700 CURVE SMOOTH",
"231 725 OFFCURVE",
"211 745 OFFCURVE",
"186 745 CURVE SMOOTH",
"173 745 OFFCURVE",
"162 740 OFFCURVE",
"154 731 CURVE SMOOTH",
"77 652 OFFCURVE",
"30 507 OFFCURVE",
"30 350 CURVE SMOOTH",
"30 194 OFFCURVE",
"76 49 OFFCURVE",
"152 -31 CURVE SMOOTH",
"161 -40 OFFCURVE",
"172 -45 OFFCURVE",
"185 -45 CURVE SMOOTH"
);
}
);
width = 261;
},
{
associatedMasterId = "6F4F10D2-8254-4335-A627-9F8D8891324D";
guideLines = (
{
position = "{-94, 350}";
}
);
layerId = "F6D0B015-287E-482A-AE12-3143449A637F";
name = "Nov 14 18, 14:28";
paths = (
{
closed = 0;
nodes = (
"166 700 LINE",
"99 631 OFFCURVE",
"55 500 OFFCURVE",
"55 350 CURVE SMOOTH",
"55 200 OFFCURVE",
"99 69 OFFCURVE",
"165 0 CURVE SMOOTH"
);
}
);
width = 600;
}
);
unicode = 0028;
},
{
glyphname = emdash;
lastChange = "2019-01-25 15:49:03 +0000";
layers = (
{
layerId = "6F4F10D2-8254-4335-A627-9F8D8891324D";
paths = (
{
closed = 1;
nodes = (
"815 205 LINE SMOOTH",
"840 205 OFFCURVE",
"860 225 OFFCURVE",
"860 250 CURVE SMOOTH",
"860 275 OFFCURVE",
"840 295 OFFCURVE",
"815 295 CURVE SMOOTH",
"75 295 LINE SMOOTH",
"50 295 OFFCURVE",
"30 275 OFFCURVE",
"30 250 CURVE SMOOTH",
"30 225 OFFCURVE",
"50 205 OFFCURVE",
"75 205 CURVE SMOOTH"
);
}
);
width = 890;
},
{
associatedMasterId = "6F4F10D2-8254-4335-A627-9F8D8891324D";
layerId = "83CF204F-C107-40BA-A15D-DC75B85D4265";
name = "Nov 14 18, 14:29";
paths = (
{
closed = 0;
nodes = (
"0 250 LINE",
"740 250 LINE"
);
}
);
width = 740;
}
);
unicode = 2014;
},
{
glyphname = endash;
lastChange = "2019-01-25 15:49:03 +0000";
layers = (
{
layerId = "6F4F10D2-8254-4335-A627-9F8D8891324D";
paths = (
{
closed = 1;
nodes = (
"615 205 LINE SMOOTH",
"640 205 OFFCURVE",
"660 225 OFFCURVE",
"660 250 CURVE SMOOTH",
"660 275 OFFCURVE",
"640 295 OFFCURVE",
"615 295 CURVE SMOOTH",
"75 295 LINE SMOOTH",
"50 295 OFFCURVE",
"30 275 OFFCURVE",
"30 250 CURVE SMOOTH",
"30 225 OFFCURVE",
"50 205 OFFCURVE",
"75 205 CURVE SMOOTH"
);
}
);
width = 690;
},
{
associatedMasterId = "6F4F10D2-8254-4335-A627-9F8D8891324D";
layerId = "D596D616-1EB4-43E1-9780-C66FB13506B7";
name = "Nov 14 18, 14:30";
paths = (
{
closed = 0;
nodes = (
"0 250 LINE",
"540 250 LINE"
);
}
);
width = 540;
}
);
unicode = 2013;
},
{
glyphname = hyphen;
lastChange = "2019-01-25 15:49:03 +0000";
layers = (
{
layerId = "6F4F10D2-8254-4335-A627-9F8D8891324D";
paths = (
{
closed = 1;
nodes = (
"305 205 LINE SMOOTH",
"330 205 OFFCURVE",
"350 225 OFFCURVE",
"350 250 CURVE SMOOTH",
"350 275 OFFCURVE",
"330 295 OFFCURVE",
"305 295 CURVE SMOOTH",
"75 295 LINE SMOOTH",
"50 295 OFFCURVE",
"30 275 OFFCURVE",
"30 250 CURVE SMOOTH",
"30 225 OFFCURVE",
"50 205 OFFCURVE",
"75 205 CURVE SMOOTH"
);
}
);
width = 380;
},
{
associatedMasterId = "6F4F10D2-8254-4335-A627-9F8D8891324D";
layerId = "91A3B535-F27A-4C75-BB7F-ECA542290B31";
name = "Nov 14 18, 14:30";
paths = (
{
closed = 0;
nodes = (
"20 250 LINE",
"250 250 LINE"
);
}
);
width = 319;
}
);
unicode = 002D;
},
{
glyphname = guillemetleft;
lastChange = "2019-01-25 15:49:03 +0000";
layers = (
{
guideLines = (
{
position = "{-37, 400}";
}
);
layerId = "6F4F10D2-8254-4335-A627-9F8D8891324D";
paths = (
{
closed = 1;
nodes = (
"518 -45 OFFCURVE",
"538 -25 OFFCURVE",
"538 0 CURVE SMOOTH",
"538 12 OFFCURVE",
"533 23 OFFCURVE",
"526 31 CURVE SMOOTH",
"365 200 LINE",
"526 369 LINE SMOOTH",
"533 377 OFFCURVE",
"538 388 OFFCURVE",
"538 400 CURVE SMOOTH",
"538 425 OFFCURVE",
"518 445 OFFCURVE",
"493 445 CURVE SMOOTH",
"480 445 OFFCURVE",
"469 440 OFFCURVE",
"460 431 CURVE SMOOTH",
"293 254 LINE SMOOTH",
"277 238 OFFCURVE",
"270 222 OFFCURVE",
"270 200 CURVE SMOOTH",
"270 178 OFFCURVE",
"277 162 OFFCURVE",
"293 146 CURVE SMOOTH",
"460 -31 LINE SMOOTH",
"469 -40 OFFCURVE",
"480 -45 OFFCURVE",
"493 -45 CURVE SMOOTH"
);
},
{
closed = 1;
nodes = (
"278 -45 OFFCURVE",
"298 -25 OFFCURVE",
"298 0 CURVE SMOOTH",
"298 12 OFFCURVE",
"293 23 OFFCURVE",
"286 31 CURVE SMOOTH",
"125 200 LINE",
"286 369 LINE SMOOTH",
"293 377 OFFCURVE",
"298 388 OFFCURVE",
"298 400 CURVE SMOOTH",
"298 425 OFFCURVE",
"278 445 OFFCURVE",
"253 445 CURVE SMOOTH",
"240 445 OFFCURVE",
"229 440 OFFCURVE",
"220 431 CURVE SMOOTH",
"53 254 LINE SMOOTH",
"37 238 OFFCURVE",
"30 222 OFFCURVE",
"30 200 CURVE SMOOTH",
"30 178 OFFCURVE",
"37 162 OFFCURVE",
"53 146 CURVE SMOOTH",
"220 -31 LINE SMOOTH",
"229 -40 OFFCURVE",
"240 -45 OFFCURVE",
"253 -45 CURVE SMOOTH"
);
}
);
width = 568;
},
{
associatedMasterId = "6F4F10D2-8254-4335-A627-9F8D8891324D";
guideLines = (
{
position = "{-100, 400}";
}
);
layerId = "5992D816-BBEE-4DCE-9FF7-226C2CB1AECC";
name = "Nov 14 18, 14:32";
paths = (
{
closed = 0;
nodes = (
"190 400 LINE",
"0 200 LINE",
"190 0 LINE"
);
},
{
closed = 0;
nodes = (
"380 400 LINE",
"190 200 LINE",
"380 0 LINE"
);
}
);
width = 600;
}
);
unicode = 00AB;
},
{
glyphname = guilsinglleft;
lastChange = "2019-01-25 15:49:03 +0000";
layers = (
{
layerId = "6F4F10D2-8254-4335-A627-9F8D8891324D";
paths = (
{
closed = 1;
nodes = (
"278 -45 OFFCURVE",
"298 -25 OFFCURVE",
"298 0 CURVE SMOOTH",
"298 12 OFFCURVE",
"293 23 OFFCURVE",
"286 31 CURVE SMOOTH",
"125 200 LINE",
"286 369 LINE SMOOTH",
"293 377 OFFCURVE",
"298 388 OFFCURVE",
"298 400 CURVE SMOOTH",
"298 425 OFFCURVE",
"278 445 OFFCURVE",
"253 445 CURVE SMOOTH",
"240 445 OFFCURVE",
"229 440 OFFCURVE",
"220 431 CURVE SMOOTH",
"53 254 LINE SMOOTH",
"37 238 OFFCURVE",
"30 222 OFFCURVE",
"30 200 CURVE SMOOTH",
"30 178 OFFCURVE",
"37 162 OFFCURVE",
"53 146 CURVE SMOOTH",
"220 -31 LINE SMOOTH",
"229 -40 OFFCURVE",
"240 -45 OFFCURVE",
"253 -45 CURVE SMOOTH"
);
}
);
width = 328;
},
{
associatedMasterId = "6F4F10D2-8254-4335-A627-9F8D8891324D";
layerId = "F3A7EC23-B350-4222-9F1A-47BD7B279B0B";
name = "Nov 14 18, 14:32";
paths = (
{
closed = 0;
nodes = (
"190 400 LINE",
"0 200 LINE",
"190 0 LINE"
);
}
);
width = 600;
}
);
unicode = 2039;
},
{
glyphname = dollar;
lastChange = "2019-01-25 15:49:15 +0000";
layers = (
{
layerId = "6F4F10D2-8254-4335-A627-9F8D8891324D";
paths = (
{
closed = 0;
nodes = (
"484 560 LINE",
"484 560 OFFCURVE",
"441 700 OFFCURVE",
"257 700 CURVE SMOOTH",
"68 700 OFFCURVE",
"30 632 OFFCURVE",
"30 525 CURVE SMOOTH",
"30 417 OFFCURVE",
"116 375 OFFCURVE",
"257 350 CURVE SMOOTH",
"399 325 OFFCURVE",
"486 287 OFFCURVE",
"486 174 CURVE SMOOTH",
"486 66 OFFCURVE",
"447 0 OFFCURVE",
"257 0 CURVE SMOOTH",
"74 0 OFFCURVE",
"31 140 OFFCURVE",
"31 140 CURVE"
);
},
{
closed = 0;
nodes = (
"257 800 LINE",
"257 -100 LINE"
);
}
);
width = 516;
}
);
unicode = 0024;
},
{
glyphname = infinity;
lastChange = "2019-01-25 15:49:15 +0000";
layers = (
{
layerId = "6F4F10D2-8254-4335-A627-9F8D8891324D";
paths = (
{
closed = 1;
nodes = (
"422 18 OFFCURVE",
"490 89 OFFCURVE",
"541 165 CURVE",
"592 89 OFFCURVE",
"660 18 OFFCURVE",
"782 18 CURVE SMOOTH",
"953 18 OFFCURVE",
"1051 101 OFFCURVE",
"1051 250 CURVE SMOOTH",
"1051 399 OFFCURVE",
"953 483 OFFCURVE",
"782 483 CURVE SMOOTH",
"660 483 OFFCURVE",
"592 412 OFFCURVE",
"541 336 CURVE",
"490 412 OFFCURVE",
"422 483 OFFCURVE",
"300 483 CURVE SMOOTH",
"129 483 OFFCURVE",
"30 399 OFFCURVE",
"30 250 CURVE SMOOTH",
"30 102 OFFCURVE",
"128 18 OFFCURVE",
"300 18 CURVE SMOOTH"
);
},
{
closed = 1;
nodes = (
"177 108 OFFCURVE",
"120 154 OFFCURVE",
"120 250 CURVE SMOOTH",
"120 346 OFFCURVE",
"177 393 OFFCURVE",
"300 393 CURVE SMOOTH",
"396 393 OFFCURVE",
"439 333 OFFCURVE",
"489 251 CURVE",
"439 168 OFFCURVE",
"396 108 OFFCURVE",
"300 108 CURVE SMOOTH"
);
},
{
closed = 1;
nodes = (
"686 108 OFFCURVE",
"643 168 OFFCURVE",
"593 251 CURVE",
"643 333 OFFCURVE",
"686 393 OFFCURVE",
"782 393 CURVE SMOOTH",
"904 393 OFFCURVE",
"961 347 OFFCURVE",
"961 250 CURVE SMOOTH",
"961 154 OFFCURVE",
"905 108 OFFCURVE",
"782 108 CURVE SMOOTH"
);
}
);
width = 1081;
},
{
associatedMasterId = "6F4F10D2-8254-4335-A627-9F8D8891324D";
layerId = "021EE3F5-F9D6-4D72-A795-7B9E4E1ACD79";
name = path;
paths = (
{
closed = 1;
nodes = (
"877 63 OFFCURVE",
"951 130 OFFCURVE",
"951 250 CURVE SMOOTH",
"951 370 OFFCURVE",
"877 438 OFFCURVE",
"727 438 CURVE SMOOTH",
"467 438 OFFCURVE",
"505 63 OFFCURVE",
"245 63 CURVE SMOOTH",
"95 63 OFFCURVE",
"20 130 OFFCURVE",
"20 250 CURVE SMOOTH",
"20 370 OFFCURVE",
"95 438 OFFCURVE",
"245 438 CURVE SMOOTH",
"505 438 OFFCURVE",
"467 63 OFFCURVE",
"727 63 CURVE SMOOTH"
);
}
);
visible = 1;
width = 1051;
},
{
associatedMasterId = "6F4F10D2-8254-4335-A627-9F8D8891324D";
layerId = "4088C4F7-48FD-4701-93F4-1DB732A08F23";
name = path;
paths = (
{
closed = 1;
nodes = (
"957 63 OFFCURVE",
"1031 138 OFFCURVE",
"1031 250 CURVE SMOOTH",
"1031 362 OFFCURVE",
"957 438 OFFCURVE",
"807 438 CURVE SMOOTH",
"536 438 OFFCURVE",
"507 63 OFFCURVE",
"246 63 CURVE SMOOTH",
"97 63 OFFCURVE",
"20 138 OFFCURVE",
"20 250 CURVE SMOOTH",
"20 362 OFFCURVE",
"97 438 OFFCURVE",
"246 438 CURVE SMOOTH",
"507 438 OFFCURVE",
"544 63 OFFCURVE",
"807 63 CURVE SMOOTH"
);
}
);
width = 1051;
}
);
unicode = 221E;
},
{
glyphname = ampersand;
lastChange = "2019-01-25 15:49:15 +0000";
layers = (
{
layerId = "6F4F10D2-8254-4335-A627-9F8D8891324D";
paths = (
{
closed = 1;
nodes = (
"346 -20 OFFCURVE",
"416 41 OFFCURVE",
"466 107 CURVE",
"476 99 OFFCURVE",
"485 90 OFFCURVE",
"494 82 CURVE SMOOTH",
"532 46 OFFCURVE",
"568 14 OFFCURVE",
"596 -14 CURVE SMOOTH",
"599 -18 OFFCURVE",
"604 -20 OFFCURVE",
"610 -20 CURVE SMOOTH",
"621 -20 OFFCURVE",
"630 -11 OFFCURVE",
"630 0 CURVE SMOOTH",
"630 6 OFFCURVE",
"628 11 OFFCURVE",
"624 14 CURVE SMOOTH",
"595 43 OFFCURVE",
"560 76 OFFCURVE",
"521 111 CURVE SMOOTH",
"511 121 OFFCURVE",
"500 130 OFFCURVE",
"490 140 CURVE",
"533 206 OFFCURVE",
"557 268 OFFCURVE",
"559 272 CURVE SMOOTH",
"559 275 OFFCURVE",
"560 277 OFFCURVE",
"560 280 CURVE SMOOTH",
"560 291 OFFCURVE",
"551 300 OFFCURVE",
"540 300 CURVE SMOOTH",
"531 300 OFFCURVE",
"524 294 OFFCURVE",
"521 287 CURVE SMOOTH",
"519 281 OFFCURVE",
"497 226 OFFCURVE",
"460 167 CURVE",
"391 232 OFFCURVE",
"319 302 OFFCURVE",
"265 370 CURVE",
"291 382 OFFCURVE",
"316 393 OFFCURVE",
"338 402 CURVE SMOOTH",
"419 436 OFFCURVE",
"455 485 OFFCURVE",
"455 560 CURVE SMOOTH",
"455 659 OFFCURVE",
"394 720 OFFCURVE",
"295 720 CURVE SMOOTH",
"196 720 OFFCURVE",
"135 659 OFFCURVE",
"135 560 CURVE SMOOTH",
"135 506 OFFCURVE",
"163 446 OFFCURVE",
"205 385 CURVE",
"118 340 OFFCURVE",
"30 274 OFFCURVE",
"30 175 CURVE SMOOTH",
"30 -20 OFFCURVE",
"190 -20 OFFCURVE",
"260 -20 CURVE SMOOTH"
);
},
{
closed = 1;
nodes = (
"190 20 OFFCURVE",
"70 20 OFFCURVE",
"70 175 CURVE SMOOTH",
"70 256 OFFCURVE",
"148 313 OFFCURVE",
"229 353 CURVE",
"287 278 OFFCURVE",
"365 202 OFFCURVE",
"437 134 CURVE",
"393 74 OFFCURVE",
"333 20 OFFCURVE",
"260 20 CURVE SMOOTH"
);
},
{
closed = 1;
nodes = (
"201 459 OFFCURVE",
"175 513 OFFCURVE",
"175 560 CURVE SMOOTH",
"175 637 OFFCURVE",
"217 680 OFFCURVE",
"295 680 CURVE SMOOTH",
"373 680 OFFCURVE",
"415 637 OFFCURVE",
"415 560 CURVE SMOOTH",
"415 501 OFFCURVE",
"390 467 OFFCURVE",
"322 438 CURVE SMOOTH",
"299 429 OFFCURVE",
"271 417 OFFCURVE",
"240 403 CURVE"
);
}
);
width = 660;
},
{
associatedMasterId = "6F4F10D2-8254-4335-A627-9F8D8891324D";
layerId = "5D7515CE-83D1-4197-8F32-2FDB4407617B";
name = path;
paths = (
{
closed = 0;
nodes = (
"560 0 LINE",
"420 140 OFFCURVE",
"105 385 OFFCURVE",
"105 560 CURVE SMOOTH",
"105 630 OFFCURVE",
"140 700 OFFCURVE",
"245 700 CURVE SMOOTH",
"350 700 OFFCURVE",
"385 630 OFFCURVE",
"385 560 CURVE SMOOTH",
"385 500 OFFCURVE",
"362 455 OFFCURVE",
"280 420 CURVE SMOOTH",
"185 380 OFFCURVE",
"0 309 OFFCURVE",
"0 175 CURVE SMOOTH",
"0 0 OFFCURVE",
"140 0 OFFCURVE",
"210 0 CURVE SMOOTH",
"385 0 OFFCURVE",
"490 280 OFFCURVE",
"490 280 CURVE"
);
}
);
visible = 1;
width = 600;
},
{
associatedMasterId = "6F4F10D2-8254-4335-A627-9F8D8891324D";
layerId = "516983BA-9D40-4E5D-BCD6-C1457242DB8A";
name = path;
paths = (
{
closed = 0;
nodes = (
"560 0 LINE",
"420 140 OFFCURVE",
"105 385 OFFCURVE",
"105 560 CURVE SMOOTH",
"105 630 OFFCURVE",
"140 700 OFFCURVE",
"245 700 CURVE SMOOTH",
"350 700 OFFCURVE",
"385 630 OFFCURVE",
"385 560 CURVE SMOOTH",
"385 500 OFFCURVE",
"362 455 OFFCURVE",
"280 420 CURVE SMOOTH",
"185 380 OFFCURVE",
"0 309 OFFCURVE",
"0 175 CURVE SMOOTH",
"0 0 OFFCURVE",
"140 0 OFFCURVE",
"210 0 CURVE SMOOTH",
"385 0 OFFCURVE",
"490 280 OFFCURVE",
"490 280 CURVE"
);
}
);
width = 600;
}
);
unicode = 0026;
},
